<svg xmlns="http://www.w3.org/2000/svg" width="36" height="25" viewBox="0 0 36 25">
  <g fill="none">
    <path fill="#0033A0" d="M34.724835,13.7794987 C32.9911875,10.662798 29.2867598,9.27472537 25.9691975,10.498702 L22.2188518,2.26482745 L25.7313257,2.26482745 C26.2213403,2.26482745 26.6186314,2.66742471 26.6186314,3.16398381 C26.6186314,3.66054291 26.2213403,4.06314017 25.7313257,4.06314017 L25.4355571,4.06314017 C25.1088807,4.06314017 24.8440199,4.33153835 24.8440199,4.66257775 C24.8440199,4.99361715 25.1088807,5.26201532 25.4355571,5.26201532 L25.7313257,5.26201532 C26.874767,5.26201532 27.8017058,4.32269664 27.8017058,3.16398381 C27.8017058,2.00527098 26.874767,1.0659523 25.7313257,1.0659523 L21.2947968,1.0659523 C20.9681204,1.0659523 20.7032597,1.33435048 20.7032597,1.66538988 C20.7032597,1.75208354 20.7218191,1.83780311 20.7576811,1.91655422 L22.2814808,5.26201532 L12.9736434,5.26201532 L12.1602798,3.4637026 L12.6684102,3.4637026 C13.5119422,3.46542598 14.1970902,2.77382488 14.1987908,1.9190269 C14.2003436,1.12754452 13.6123557,0.462393597 12.8358152,0.377198532 L9.58591,0.0103427369 C8.64765809,-0.0932850337 7.80412608,0.593520567 7.70193804,1.54437842 C7.59967605,2.49516134 8.27742977,3.34995932 9.21575561,3.45351216 C9.27661,3.46025583 9.33783409,3.46362767 9.39905819,3.4637026 L10.8589719,3.4637026 L11.8568952,5.67023231 L9.58835009,10.5256767 C5.92000624,9.13093528 1.83041398,11.0137687 0.454054856,14.7311059 C-0.922304266,18.4484431 0.935714001,22.5926547 4.60405785,23.9873961 C8.2724017,25.3821375 12.361994,23.4993041 13.7383531,19.7819669 C13.9682392,19.1610994 14.1122046,18.5110094 14.1662563,17.8502044 L15.4634973,17.8502044 C15.7830753,19.1308278 17.066637,19.9064251 18.3303083,19.582579 C19.5940535,19.2587328 20.3594287,17.9581031 20.0398507,16.6774797 C19.9168849,16.184742 19.6422638,15.744605 19.2557682,15.4206839 L23.1315198,7.12866393 L24.8943006,10.9998318 C21.4221992,12.9831459 20.194094,17.4431863 22.1512687,20.9615851 C24.1084434,24.4800589 28.5097018,25.7245662 31.9817293,23.7412521 C35.4538307,21.7580129 36.6819358,17.2979725 34.724835,13.7794987 Z M9.39898425,2.26475252 C9.10846555,2.26475252 8.87281193,2.0262513 8.87251616,1.73185252 C8.87281193,1.4383529 9.10698671,1.20030125 9.3966181,1.19895252 C9.41673036,1.19895252 9.43625109,1.19895252 9.45577182,1.2019497 L12.7056771,1.56820606 C12.8948211,1.59068497 13.0302091,1.76437201 13.0079526,1.95604217 C12.9876924,2.13092808 12.8421743,2.26325393 12.6684102,2.26475252 L9.39898425,2.26475252 Z M10.1484618,12.1249012 C11.7435418,13.0976385 12.7937422,14.7744902 12.983108,16.6512543 L8.03253337,16.6512543 L10.1484618,12.1249012 Z M7.09790464,23.2451006 C3.83091876,23.2559324 1.17388166,20.5810172 1.16305356,17.2704733 C1.15236449,13.9599295 3.79202519,11.2673308 7.05893713,11.2563579 C7.74785611,11.2540682 8.43182097,11.373731 9.08014571,11.6099843 L6.56552118,16.9941326 C6.42569658,17.2933269 6.551694,17.6507415 6.84694499,17.7924336 C6.92539761,17.8301232 7.01109656,17.8497548 7.09790464,17.8501294 L12.983108,17.8501294 C12.6761741,20.9113822 10.1343389,23.241471 7.09790464,23.2451006 Z M15.4634234,16.6512543 L14.1661823,16.6512543 C13.9708272,14.3116494 12.6609421,12.2158658 10.6571838,11.036922 L12.5004137,7.09322218 L16.2584493,15.401427 C15.868996,15.7217514 15.590456,16.1595656 15.4634234,16.6512543 Z M17.7455738,18.449567 C17.092147,18.449567 16.5624994,17.9128456 16.5624994,17.2506919 C16.5624994,16.5885381 17.092147,16.0518167 17.7455738,16.0518167 C18.3990005,16.0518167 18.9286481,16.5885381 18.9286481,17.2506919 C18.9286481,17.9128456 18.3990005,18.449567 17.7455738,18.449567 Z M18.1904097,14.8990983 C18.0439304,14.8693512 17.8949369,14.8539157 17.7455738,14.8529416 C17.6065626,14.8549647 17.4680689,14.8692013 17.3314978,14.8955016 L13.516083,6.46081554 L22.1347796,6.46081554 L18.1904097,14.8990983 Z M28.4423405,23.2906023 C25.1630063,23.3042621 22.4935469,20.6214792 22.4799644,17.2983472 C22.4712903,15.1632255 23.579831,13.1832831 25.3929664,12.0956037 L27.8561272,17.50313 C27.9870048,17.8064454 28.335716,17.9449155 28.6351077,17.81229 C28.9344255,17.6796644 29.0710706,17.3262959 28.940193,17.0229805 C28.9370874,17.0157123 28.933834,17.0085191 28.9303587,17.0014757 L26.4660148,11.5909522 C27.0855021,11.3711834 27.7369324,11.2581144 28.3932429,11.2564137 C31.6725772,11.2427539 34.3420365,13.9255367 34.3556202,17.2486688 C34.3691733,20.5717259 31.7216747,23.2768378 28.4423405,23.2906023 Z"/>
    <path fill="#00AEC7" d="M7.02923452 20.74543C6.7311831 20.7458787 6.43460751 20.6959142 6.14887598 20.5970322 5.87771015 20.5005437 5.59082364 20.6785612 5.5080494 20.9946544 5.42527517 21.3107477 5.57799042 21.6451662 5.84915625 21.7416547 5.8515304 21.7424775 5.85390454 21.7433003 5.85634285 21.744123 6.23704017 21.8759158 6.63217485 21.942635 7.02929868 21.9421884 7.3127844 21.9421884 7.54262727 21.6742624 7.54262727 21.3438081 7.54262727 21.0133538 7.31272023 20.74543 7.02923452 20.74543zM4.59925076 19.5261915C3.82593857 18.8400946 3.39145217 17.8974162 3.39513142 16.9140565 3.39496419 16.560114 3.4510728 16.2080761 3.56170127 15.8688368 3.66697809 15.5460529 3.46512086 15.2065851 3.11082547 15.1106717 2.75653008 15.0147583 2.38392204 15.1986621 2.27864521 15.521446 1.71421427 17.2548956 2.24686984 19.1306535 3.66338245 20.3971063 3.78839346 20.5084084 3.95621759 20.5708017 4.13098213 20.5708017 4.50041263 20.5707255 4.79993732 20.2978409 4.79985372 19.9612679 4.79985372 19.7976286 4.72752292 19.6408456 4.59925076 19.5261915zM30.5656271 12.7117412C30.1930353 12.5301075 29.7956555 12.407414 29.3871373 12.3478144 29.1053917 12.3067408 28.8444422 12.5073621 28.8043308 12.7958664 28.7642194 13.0843707 28.9601408 13.35158 29.2418864 13.3926536 29.5475829 13.4369577 29.8449095 13.5285328 30.1236934 13.6642801 30.192649 13.6974423 30.2679786 13.7143201 30.3441452 13.7138678 30.6285949 13.7121444 30.8578674 13.474669 30.8562025 13.1833297 30.8550345 12.9823129 30.742362 12.7994265 30.5656271 12.7117412zM32.0038944 14.6468679C31.7975603 14.378492 31.4005994 14.3193456 31.1172371 14.5148219 30.8420457 14.7046615 30.774061 15.0664542 30.9631014 15.3346798 31.4079769 15.9391456 31.6455665 16.6588229 31.6434246 17.3957105 31.6435833 17.744802 31.5905123 18.0920899 31.4860364 18.426827 31.3863202 18.7448799 31.5775024 19.0793916 31.9131423 19.1741611 31.9717662 19.1909957 32.03277 19.1995632 32.0940118 19.1994149 32.3747562 19.1992626 32.6220239 19.0244538 32.7019872 18.7695305 33.1428963 17.36625 32.8860299 15.8491108 32.0038944 14.6468679z"/>
  </g>
</svg>
