<svg xmlns="http://www.w3.org/2000/svg" xmlns:xlink="http://www.w3.org/1999/xlink" width="28" height="36" viewBox="0 0 28 36">
  <defs>
    <rect id="robo-a" width="36" height="36" x="0" y="0"/>
    <polygon id="robo-c" points="0 .083 27.192 .083 27.192 35.957 0 35.957"/>
  </defs>
  <g fill="none" fill-rule="evenodd" transform="translate(-4)">
    <mask id="robo-b" fill="#fff">
      <use xlink:href="#robo-a"/>
    </mask>
    <g mask="url(#robo-b)">
      <g transform="translate(4)">
        <path fill="#00AEC7" d="M15.4442295,25.9534884 C15.8181044,25.9534884 16.1212121,25.7660651 16.1212121,25.5348837 C16.1212121,25.3037023 15.8181044,25.1162791 15.4442295,25.1162791 L12.5557705,25.1162791 C12.1818956,25.1162791 11.8787879,25.3037023 11.8787879,25.5348837 C11.8787879,25.7660651 12.1818956,25.9534884 12.5557705,25.9534884 L15.4442295,25.9534884 Z"/>
        <mask id="robo-d" fill="#fff">
          <use xlink:href="#robo-c"/>
        </mask>
        <path fill="#0033A0" d="M1.97189966,25.2895633 C2.32820121,24.7657252 2.73927122,24.3891226 3.24220102,24.1226963 C3.7982644,25.5602965 4.55919862,26.8629808 5.48024884,27.9775641 C5.47575292,28.0105168 5.47258535,28.0438702 5.47258535,28.0780248 L5.47258535,30.8152043 C5.47258535,31.1986178 5.21550055,31.5288462 4.84285021,31.6330128 C3.8135914,30.6076723 2.9132837,29.6274038 2.31379383,28.7054287 C1.1591602,26.9300881 1.52455577,25.9473157 1.97189966,25.2895633 L1.97189966,25.2895633 Z M8.7448988,18.4125601 C8.74377482,18.4291867 8.7423443,18.4457131 8.7423443,18.4626402 L8.7423443,19.2639223 C8.7423443,19.6787861 9.08546463,20.0151242 9.50869406,20.0151242 C9.93192348,20.0151242 10.2750438,19.6787861 10.2750438,19.2639223 L10.2750438,18.4626402 C10.2750438,18.4457131 10.2736133,18.4291867 10.2724893,18.4125601 L16.9192962,18.4125601 C16.91807,18.4291867 16.9167417,18.4457131 16.9167417,18.4626402 L16.9167417,19.2639223 C16.9167417,19.6787861 17.259862,20.0151242 17.6830914,20.0151242 C18.1062187,20.0151242 18.4494412,19.6787861 18.4494412,19.2639223 L18.4494412,18.4626402 C18.4494412,18.4457131 18.4480107,18.4291867 18.4467845,18.4125601 L23.4562596,18.4125601 L23.4562596,18.4626402 C23.4562596,19.0232372 23.4240729,19.5748197 23.363378,20.1152845 L22.9249238,20.1152845 C21.9756719,20.1152845 21.083232,20.4776643 20.4098661,21.1376202 C20.0282239,21.5118189 19.520696,21.7178486 18.980777,21.7178486 L8.21100847,21.7178486 C7.67108952,21.7178486 7.1636638,21.5117187 6.77987585,21.135617 C6.10865564,20.4776643 5.21611363,20.1152845 4.26686173,20.1152845 L3.82830531,20.1152845 C3.76761041,19.5748197 3.73542372,19.0232372 3.73542372,18.4626402 L3.73542372,18.4125601 L8.7448988,18.4125601 Z M2.10064642,16.8600761 L2.10064642,15.257512 C2.10064642,15.2298678 2.12353474,15.2074319 2.15173641,15.2074319 L3.83770587,15.2074319 L3.83770587,16.9101562 L2.15173641,16.9101562 C2.12353474,16.9101562 2.10064642,16.8877204 2.10064642,16.8600761 L2.10064642,16.8600761 Z M8.27599493,2.97966747 C8.09421677,3.21173878 7.91826286,3.45602965 7.74915502,3.71384215 C6.28103325,5.95232372 5.47258535,8.91366186 5.47258535,12.0523838 L5.47258535,13.705028 L2.91808616,13.705028 L2.91808616,12.0523838 C2.91808616,8.17848558 5.07633143,4.78946314 8.27599493,2.97966747 L8.27599493,2.97966747 Z M24.2736993,12.0523838 L24.2736993,13.705028 L21.7192002,13.705028 L21.7192002,12.0523838 C21.7192002,8.91366186 20.9107523,5.95232372 19.4426305,3.71394231 C19.2736248,3.45602965 19.0975687,3.21173878 18.9158927,2.97976763 C22.1154541,4.78946314 24.2736993,8.17848558 24.2736993,12.0523838 L24.2736993,12.0523838 Z M11.6549843,2.05659054 C11.4556312,2.58223157 11.2756922,3.21614583 11.1125108,3.96274038 C10.6383958,6.13171074 10.3772238,9.00460737 10.3772238,12.0523838 L10.3772238,13.705028 L7.00528486,13.705028 L7.00528486,12.0523838 C7.00528486,9.19821715 7.7272885,6.52544071 9.03835967,4.52634215 C9.79428706,3.37359776 10.6889749,2.53645833 11.6549843,2.05659054 L11.6549843,2.05659054 Z M11.9099233,13.705028 L11.9099233,12.0523838 C11.9099233,9.33363381 12.1268514,6.72776442 12.5207551,4.71484375 C12.9168047,2.69100561 13.375184,1.87059295 13.5958927,1.63651843 C13.8166015,1.87059295 14.2749808,2.69100561 14.6710304,4.71484375 C15.0649341,6.72776442 15.2818622,9.33363381 15.2818622,12.0523838 L15.2818622,13.705028 L11.9099233,13.705028 Z M20.1865006,13.705028 L16.8145617,13.705028 L16.8145617,12.0523838 C16.8145617,9.00460737 16.5533897,6.13171074 16.0791725,3.96264022 C15.9160933,3.21604567 15.7360522,2.58213141 15.5368012,2.05649038 C16.5028106,2.53635817 17.3974984,3.37359776 18.1533237,4.52624199 C19.4643948,6.52544071 20.1865006,9.19821715 20.1865006,12.0523838 L20.1865006,13.705028 Z M5.37040538,16.9101562 L7.92490456,16.9101562 L7.92490456,15.2074319 L5.37040538,15.2074319 L5.37040538,16.9101562 Z M9.45760407,16.9101562 L12.829543,16.9101562 L12.829543,15.2074319 L9.45760407,15.2074319 L9.45760407,16.9101562 Z M14.3622425,16.9101562 L17.7341814,16.9101562 L17.7341814,15.2074319 L14.3622425,15.2074319 L14.3622425,16.9101562 Z M19.2668809,16.9101562 L21.8213801,16.9101562 L21.8213801,15.2074319 L19.2668809,15.2074319 L19.2668809,16.9101562 Z M25.0911391,16.8600761 C25.0911391,16.8877204 25.0682508,16.9101562 25.0400491,16.9101562 L23.3540796,16.9101562 L23.3540796,15.2074319 L25.0400491,15.2074319 C25.0682508,15.2074319 25.0911391,15.2298678 25.0911391,15.257512 L25.0911391,16.8600761 Z M6.32803603,32.455028 C6.75116328,32.028145 7.00528486,31.4478165 7.00528486,30.8152043 L7.00528486,29.5273437 C8.86690168,31.1053686 11.1420408,32.034355 13.5958927,32.034355 C16.0496425,32.034355 18.3248838,31.1053686 20.1865006,29.5273437 L20.1865006,30.8151042 C20.1865006,31.4477163 20.44052,32.0278446 20.8636473,32.4548277 C18.6343869,33.8193109 16.1337366,34.5383614 13.5958927,34.5383614 C11.0581511,34.5383614 8.5571942,33.8194111 6.32803603,32.455028 L6.32803603,32.455028 Z M4.07803315,21.6176883 L4.26686173,21.6176883 C4.80678068,21.6176883 5.3142064,21.8238181 5.69799435,22.1999199 C6.36921456,22.8578726 7.26175657,23.2202524 8.21100847,23.2202524 L18.980777,23.2202524 C19.9300289,23.2202524 20.8223666,22.8578726 21.4957326,22.1979167 C21.8774769,21.8237179 22.3849026,21.6176883 22.9249238,21.6176883 L23.1137523,21.6176883 C21.9776133,26.7473958 18.1413686,30.5319511 13.5958927,30.5319511 C9.0504169,30.5319511 5.21417221,26.7473958 4.07803315,21.6176883 L4.07803315,21.6176883 Z M25.2198858,25.2895633 C25.6671276,25.9472155 26.0327275,26.9300881 24.8780938,28.7054287 C24.2785018,29.6273037 23.3782963,30.6075721 22.3490375,31.6329127 C21.976285,31.528746 21.7193023,31.1985176 21.7193023,30.8151042 L21.7193023,28.0780248 C21.7193023,28.0438702 21.7160326,28.0105168 21.7116388,27.9775641 C22.6326891,26.8629808 23.3935211,25.5602965 23.9496867,24.1226963 C24.4525143,24.3891226 24.8635843,24.7657252 25.2198858,25.2895633 L25.2198858,25.2895633 Z M26.4950918,24.4561298 C25.9431156,23.6444311 25.2638232,23.0596955 24.4265606,22.6745793 C24.7909343,21.3480569 24.9889591,19.932492 24.9889591,18.4626402 L24.9889591,18.4125601 L25.0400491,18.4125601 C25.9133813,18.4125601 26.6238386,17.7161458 26.6238386,16.8600761 L26.6238386,15.257512 C26.6238386,14.6738782 26.2931842,14.1649639 25.8063988,13.8998397 L25.8063988,12.0523838 C25.8063988,5.45252404 20.3287352,0.0832331731 13.5958927,0.0832331731 C6.86294816,0.0832331731 1.38538665,5.45252404 1.38538665,12.0523838 L1.38538665,13.8998397 C0.898499107,14.1649639 0.567946913,14.6738782 0.567946913,15.257512 L0.567946913,16.8600761 C0.567946913,17.7161458 1.27840423,18.4125601 2.15173641,18.4125601 L2.20282639,18.4125601 L2.20282639,18.4626402 C2.20282639,19.932492 2.40074899,21.3480569 2.76522493,22.6746795 C1.9278601,23.0597957 1.24866985,23.6445312 0.696693671,24.45623 C-0.522824239,26.2492989 -0.022040219,28.0450721 1.27799551,29.8745994 C1.27799551,29.8745994 5.48024884,35.9471154 13.3667031,35.9429087 C13.3667031,35.9429087 21.5825855,36.5528846 25.91379,29.874399 C27.2138257,28.0450721 27.7146097,26.2492989 26.4950918,24.4561298 Z" mask="url(#robo-d)"/>
      </g>
    </g>
  </g>
</svg>
