<svg xmlns="http://www.w3.org/2000/svg" xmlns:xlink="http://www.w3.org/1999/xlink" width="36" height="36" viewBox="0 0 36 36">
  <defs>
    <rect id="03-sura-icon-robo-protegido-a" width="36" height="36" x="0" y="0"/>
  </defs>
  <g fill="none" fill-rule="evenodd">
    <mask id="03-sura-icon-robo-protegido-b" fill="#fff">
      <use xlink:href="#03-sura-icon-robo-protegido-a"/>
    </mask>
    <g fill-rule="nonzero" mask="url(#03-sura-icon-robo-protegido-b)">
      <g transform="translate(0 2)">
        <path fill="#0033A0" d="M-1.99840144e-15,28.4770547 C-1.99840144e-15,30.1248281 1.34050781,31.4653359 2.98828125,31.4653359 L5.97051562,31.4653359 C6.26182031,31.4653359 6.49785937,31.2292266 6.49785937,30.9379922 C6.49785937,30.6467578 6.26182031,30.4106484 5.97051562,30.4106484 L2.98828125,30.4106484 C1.9220625,30.4106484 1.0546875,29.5432734 1.0546875,28.4770547 L1.0546875,18.3993047 C1.57633594,18.8431875 2.25133594,19.1118516 2.98828125,19.1118516 L14.9184141,19.1118516 L14.9184141,21.3378047 C14.9184141,22.01625 15.4704375,22.5682734 16.1488828,22.5682734 L19.8511172,22.5682734 C20.5296328,22.5682734 21.0815859,22.01625 21.0815859,21.3378047 L21.0815859,19.1118516 L27.0496406,19.1118516 C27.3409453,19.1118516 27.5769844,18.8757422 27.5769844,18.5845078 C27.5769844,18.2932734 27.3409453,18.0571641 27.0496406,18.0571641 L2.98828125,18.0571641 C1.9220625,18.0571641 1.0546875,17.1897891 1.0546875,16.1235703 L1.0546875,8.69196094 C1.0546875,7.6258125 1.9220625,6.75836719 2.98828125,6.75836719 L33.0117188,6.75836719 C34.0779375,6.75836719 34.9453125,7.6258125 34.9453125,8.69196094 L34.9453125,16.1235703 C34.9453125,17.1897891 34.0779375,18.0571641 33.0117188,18.0571641 L29.3620781,18.0571641 C29.0707734,18.0571641 28.8347344,18.2932734 28.8347344,18.5845078 C28.8347344,18.8757422 29.0707734,19.1118516 29.3620781,19.1118516 L33.0117188,19.1118516 C33.7486641,19.1118516 34.4237344,18.8431172 34.9453125,18.3993047 L34.9453125,28.4770547 C34.9453125,29.5432734 34.0779375,30.4106484 33.0117188,30.4106484 L8.28295313,30.4106484 C7.99164844,30.4106484 7.75560938,30.6467578 7.75560938,30.9379922 C7.75560938,31.2292266 7.99164844,31.4653359 8.28295313,31.4653359 L33.0117188,31.4653359 C34.6594922,31.4653359 36,30.1248281 36,28.4770547 L36,8.69196094 C36,7.04425781 34.6594922,5.70367969 33.0117188,5.70367969 L25.8101719,5.70367969 L25.8101719,3.19872656 C25.8101719,1.4540625 24.3908437,0.0346640625 22.6461094,0.0346640625 L17.2542656,0.0346640625 C16.9629609,0.0346640625 16.7269219,0.270773437 16.7269219,0.562007812 C16.7269219,0.853242187 16.9629609,1.08935156 17.2542656,1.08935156 L22.6461094,1.08935156 C23.8092187,1.08935156 24.7554844,2.03561719 24.7554844,3.19872656 L24.7554844,5.70367969 L23.3492344,5.70367969 L23.3492344,3.90185156 C23.3492344,3.12644531 22.7183906,2.49560156 21.9429844,2.49560156 L14.0570156,2.49560156 C13.2816094,2.49560156 12.6507656,3.12644531 12.6507656,3.90185156 L12.6507656,5.70367969 L11.2445156,5.70367969 L11.2445156,3.19872656 C11.2445156,2.03561719 12.1907812,1.08935156 13.3538906,1.08935156 L14.9418984,1.08935156 C15.2332031,1.08935156 15.4692422,0.853242187 15.4692422,0.562007812 C15.4692422,0.270773437 15.2332031,0.0346640625 14.9418984,0.0346640625 L13.3538906,0.0346640625 C11.6091562,0.0346640625 10.1898281,1.4540625 10.1898281,3.19872656 L10.1898281,5.70367969 L2.98828125,5.70367969 C1.34050781,5.70367969 -1.99840144e-15,7.0441875 -1.99840144e-15,8.69196094 L-1.99840144e-15,28.4770547 Z M20.0268984,19.1118516 L20.0268984,21.3378047 C20.0268984,21.4346953 19.9480781,21.5135859 19.8511172,21.5135859 L16.1488828,21.5135859 C16.0519219,21.5135859 15.9731016,21.4346953 15.9731016,21.3378047 L15.9731016,19.1118516 L20.0268984,19.1118516 Z M13.7054531,3.90185156 C13.7054531,3.708 13.8631641,3.55028906 14.0570156,3.55028906 L21.9429844,3.55028906 C22.1368359,3.55028906 22.2945469,3.708 22.2945469,3.90185156 L22.2945469,5.70367969 L13.7054531,5.70367969 L13.7054531,3.90185156 Z"/>
        <circle cx="18" cy="20.313" r="1" fill="#00AEC7"/>
        <path fill="#00AEC7" d="M31.7351953,29.0839219 C32.4136406,29.0839219 32.9656641,28.5318984 32.9656641,27.8534531 L32.9656641,26.1712969 C32.9656641,25.4928516 32.4136406,24.9408281 31.7351953,24.9408281 L25.9859531,24.9408281 C25.3075078,24.9408281 24.7554844,25.4928516 24.7554844,26.1712969 L24.7554844,27.8534531 C24.7554844,28.5318984 25.3075078,29.0839219 25.9859531,29.0839219 L31.7351953,29.0839219 Z M31.9109766,26.1712969 L31.9109766,27.8534531 C31.9109766,27.9503437 31.8321563,28.0292344 31.7351953,28.0292344 L28.9927266,28.0292344 L29.9187422,25.9955156 L31.7351953,25.9955156 C31.8321563,25.9955156 31.9109766,26.0743359 31.9109766,26.1712969 Z M25.8101719,27.8534531 L25.8101719,26.1712969 C25.8101719,26.0743359 25.8889922,25.9955156 25.9859531,25.9955156 L28.7597813,25.9955156 L27.8337656,28.0292344 L25.9859531,28.0292344 C25.8889922,28.0292344 25.8101719,27.9503437 25.8101719,27.8534531 L25.8101719,27.8534531 Z"/>
      </g>
    </g>
  </g>
</svg>
