<svg xmlns="http://www.w3.org/2000/svg" width="30" height="36" viewBox="0 0 30 36">
  <g fill="none" fill-rule="evenodd" transform="translate(-3)">
    <rect width="36" height="36"/>
    <g transform="translate(3)">
      <path fill="#0033A0" fill-rule="nonzero" d="M26.322829,2.14394654 C25.1202424,2.87707708 23.7235633,3.26449528 22.2838764,3.26449528 C20.0820808,3.26449528 18.0066349,2.3548471 16.5897517,0.76869909 C16.5896774,0.76869909 16.5896774,0.76869909 16.5896774,0.76869909 C16.1532849,0.280224364 15.5213141,-1.38697942e-14 14.8559176,-1.38697942e-14 C14.190521,-1.38697942e-14 13.5585503,0.280224364 13.1220834,0.768629347 C11.7052003,2.35477736 9.62968005,3.26442554 7.42795879,3.26442554 C5.98827182,3.26442554 4.59159273,2.87693759 3.3890062,2.14387679 C1.92027591,1.24887449 -6.57252031e-14,2.30261016 -6.57252031e-14,3.92697692 L-6.57252031e-14,18.1523736 C-6.57252031e-14,21.3166493 1.08106512,24.4082535 3.04382895,26.8576013 C7.89948561,32.9195281 14.2932497,35.5426039 14.5630332,35.651332 C14.6565512,35.6889928 14.7563087,35.707893 14.8559176,35.707893 C14.9555265,35.707893 15.0553583,35.6889928 15.148802,35.651332 C15.4185855,35.5426039 21.8123495,32.9195978 26.6679319,26.8583685 C28.6308443,24.4082535 29.7118352,21.3163703 29.7118352,18.1523736 L29.7118352,3.92704667 C29.7118352,2.30254041 27.7911136,1.24887449 26.322829,2.14394654 Z M14.8559176,1.39484502 C15.0844016,1.39484502 15.2958756,1.49081036 15.4514913,1.66509624 C17.151454,3.56794382 19.6417514,4.6593403 22.2838764,4.6593403 C24.0113225,4.6593403 25.6876642,4.19408974 27.131808,3.31387279 C27.2474984,3.24331107 27.3737459,3.21266807 27.4980411,3.21481591 L27.5907011,3.22246371 C27.9276789,3.27223258 28.2262434,3.55650609 28.2262434,3.92704667 L28.2262434,18.1523736 C28.2262434,21.0159207 27.2512495,23.8099347 25.4807213,26.0199272 C21.526859,30.9555354 16.3665835,33.549743 14.9413257,34.2029861 L14.8554719,34.2420504 L14.8554719,34.2420504 C13.5639727,33.6604697 8.27794011,31.0715676 4.23103961,26.01916 C2.46058563,23.8099347 1.48559176,21.0161996 1.48559176,18.1524433 L1.48559176,3.92704667 C1.48559176,3.52883585 1.83660459,3.22179559 2.21056634,3.21409016 L2.30434503,3.21852041 C2.39822211,3.22942773 2.49182484,3.26012767 2.58002721,3.31387279 C4.02409667,4.19408974 5.70051269,4.6593403 7.42795879,4.6593403 C10.0700837,4.6593403 12.5604555,3.56801356 14.2602696,1.66509624 C14.4159596,1.49081036 14.6274336,1.39484502 14.8559176,1.39484502 Z"/>
      <path fill="#00AEC7" fill-rule="nonzero" d="M26.3098816,5.13813595 C26.1099533,5.00709345 25.854054,4.97436779 25.6233906,5.05023818 C24.4900365,5.42350653 23.3074913,5.61272799 22.1087499,5.61272799 C19.5193991,5.61272799 17.0222535,4.72542898 15.0772084,3.1142495 C14.7914781,2.87754785 14.3598317,2.87754785 14.0741015,3.1142495 C12.1291317,4.72542898 9.63191069,5.61272799 7.04255996,5.61272799 C5.84381856,5.61272799 4.66127331,5.42350653 3.52791918,5.05023818 C3.29710515,4.97436779 3.04135657,5.00709345 2.84142823,5.13813595 C2.64165055,5.26917846 2.52270299,5.48217497 2.52270299,5.70929667 L2.52270299,10.4510215 C2.52270299,10.8371563 2.86011031,11.1502878 3.27608781,11.1502878 C3.69206531,11.1502878 4.02939731,10.8371563 4.02939731,10.4510215 L4.02939731,6.65449493 C5.01306885,6.89154621 6.02265423,7.01133052 7.04263529,7.01133052 C9.7843052,7.01133052 12.434448,6.14193273 14.5757302,4.55124175 C16.7170125,6.14193273 19.3671553,7.01133052 22.1088252,7.01133052 C23.1288063,7.01133052 24.1383916,6.89154621 25.1220632,6.65449493 L25.1220632,17.7429705 C25.1220632,20.0121595 24.3481883,22.2157574 22.9424375,23.9482596 C20.0939483,27.4652894 16.6148637,29.6430145 14.5828114,30.7151995 C12.5347135,29.6289592 9.03325563,27.4347315 6.20872168,23.9493785 C4.80334748,22.2158274 4.02932198,20.0116701 4.02932198,17.7429005 L4.02939731,10.6845103 C4.02939731,10.2983754 3.69206531,9.98524398 3.27608781,9.98524398 C2.86011031,9.98524398 2.52270299,10.2983754 2.52270299,10.6845103 L2.52270299,17.7429005 C2.52270299,20.3131238 3.40422576,22.8159377 5.00478244,24.7901763 C8.1725242,28.6992147 12.1371921,31.0660913 14.2185109,32.129046 C14.3315826,32.1867355 14.4565567,32.2156152 14.5816061,32.2156152 C14.7059021,32.2156152 14.8303489,32.1870851 14.9428933,32.1299551 C17.0081666,31.0821744 20.9501599,28.735157 24.1462261,24.7891274 C25.7469334,22.8160776 26.6285315,20.3137531 26.6285315,17.7429005 L26.6285315,5.70922674"/>
      <path fill="#0033A0" fill-rule="nonzero" stroke="#0033A0" stroke-width=".5" d="M7.97508197,21.6 C8.15344262,21.6 8.24262295,21.50752 8.24262295,21.32256 L8.24262295,21.32256 L8.24262295,17.07936 C8.48149883,17.0886857 8.87598528,17.0940147 9.4260823,17.0953469 L9.82910003,17.0953469 C10.0502308,17.0940147 10.2181265,17.0886857 10.3327869,17.07936 L10.3327869,17.07936 L12.9245902,21.45312 C12.9914754,21.55104 13.0862295,21.6 13.2088525,21.6 L13.2088525,21.6 L14.0783607,21.6 C14.2678689,21.6 14.312459,21.5184 14.2121311,21.3552 L14.2121311,21.3552 L11.4698361,16.88352 C12.1386885,16.70944 12.6514754,16.38576 13.0081967,15.91248 C13.364918,15.4392 13.5432787,14.84896 13.5432787,14.14176 L13.5432787,14.14176 L13.5432787,13.79904 C13.5432787,11.8624 12.2557377,10.89408 9.68065574,10.89408 C8.82229508,10.89408 8.05868852,10.95392 7.38983607,11.0736 C7.18918033,11.10624 7.08885246,11.22048 7.08885246,11.41632 L7.08885246,11.41632 L7.08885246,21.32256 C7.08885246,21.50752 7.18360656,21.6 7.37311475,21.6 L7.37311475,21.6 L7.97508197,21.6 Z M9.89803279,16.18176 C9.37409836,16.18176 8.82229508,16.17088 8.24262295,16.14912 L8.24262295,16.14912 L8.24262295,12.16704 C8.24262295,12.05824 8.25655738,11.9848 8.28442623,11.94672 C8.31229508,11.90864 8.38196721,11.88416 8.49344262,11.87328 C8.77213115,11.82976 9.17344262,11.808 9.69737705,11.808 C10.6337705,11.808 11.3054098,11.96032 11.7122951,12.26496 C12.1191803,12.5696 12.322623,13.09184 12.322623,13.83168 L12.322623,13.83168 L12.322623,14.04384 C12.322623,14.80544 12.1303279,15.35216 11.7457377,15.684 C11.3611475,16.01584 10.7452459,16.18176 9.89803279,16.18176 Z M19.5963934,21.74688 C20.4770492,21.74688 21.3242623,21.58912 22.1380328,21.2736 C22.327541,21.19744 22.4,21.07776 22.3554098,20.91456 L22.3554098,20.91456 L22.2383607,20.55552 C22.1937705,20.38144 22.0655738,20.33248 21.8537705,20.40864 C21.0734426,20.69152 20.3209836,20.83296 19.5963934,20.83296 C18.6154098,20.83296 17.9019672,20.58816 17.4560656,20.09856 C17.155082,19.77216 16.9572131,19.35056 16.862459,18.83376 C16.7677049,18.31696 16.7203279,17.55264 16.7203279,16.5408 L16.7203279,16.5408 L16.7203279,16.08384 C16.7203279,15.08288 16.7732787,14.31584 16.8791803,13.78272 C16.985082,13.2496 17.1996721,12.82528 17.5229508,12.50976 C17.98,12.04192 18.6154098,11.808 19.4291803,11.808 C20.2206557,11.808 20.9842623,12.02016 21.72,12.44448 C21.864918,12.52064 21.9763934,12.50432 22.0544262,12.39552 L22.0544262,12.39552 L22.3386885,11.9712 C22.4167213,11.84064 22.3888525,11.73728 22.255082,11.66112 C21.3967213,11.14976 20.4380328,10.89408 19.3790164,10.89408 C18.3311475,10.89408 17.4839344,11.14976 16.837377,11.66112 C16.3468852,12.0528 16.0013115,12.58864 15.8006557,13.26864 C15.6,13.94864 15.4996721,14.82176 15.4996721,15.888 L15.4996721,15.888 L15.4996721,16.75296 C15.4996721,18.66784 15.8062295,19.97888 16.4193443,20.68608 C17.0436066,21.39328 18.102623,21.74688 19.5963934,21.74688 Z"/>
    </g>
  </g>
</svg>
