<?xml version="1.0" encoding="UTF-8"?>
<svg width="224px" height="47px" viewBox="0 0 224 47" version="1.1" xmlns="http://www.w3.org/2000/svg" xmlns:xlink="http://www.w3.org/1999/xlink">
    <title>logo-cotiza-sxkm</title>
    <defs>
        <linearGradient x1="50.0446935%" y1="100.001037%" x2="50.0446935%" y2="0.000595111976%" id="linearGradient-1">
            <stop stop-color="#41D3DC" offset="0%"></stop>
            <stop stop-color="#0033A0" offset="46%"></stop>
        </linearGradient>
        <linearGradient x1="0.00496368198%" y1="50.0452667%" x2="100.007658%" y2="50.0452667%" id="linearGradient-2">
            <stop stop-color="#41D3DC" offset="0%"></stop>
            <stop stop-color="#0033A0" offset="87%"></stop>
        </linearGradient>
    </defs>
    <g id="Page-1" stroke="none" stroke-width="1" fill="none" fill-rule="evenodd">
        <g id="1.0-Ingreso-Datos" transform="translate(-855.000000, -145.000000)">
            <g id="logo-cotiza-sxkm" transform="translate(855.000000, 145.000000)">
                <g id="Logo/-Seguroxkm-Plus/-Azul" transform="translate(83.000000, 0.000000)">
                    <g id="Seguroxkm">
                        <path d="M78.2850629,20.5634396 L80.7461538,20.5634396 C80.9813464,20.5636707 81.2113949,20.494032 81.4075719,20.3632196 C81.5194397,20.2913096 81.6271124,20.0812196 81.7305901,19.8358796 L84.0070992,14.7598797 C84.2126562,14.3255997 84.3664744,14.0294997 84.469952,14.0294997 L84.8391157,14.0294997 C84.9425934,14.0294997 85.0964115,14.3030397 85.3005702,14.7344997 L87.5169503,19.7639696 C87.6400049,20.0121296 87.757466,20.2772096 87.8707321,20.3505296 C88.0545201,20.4848265 88.2744738,20.559575 88.5013867,20.5648496 L90.9624775,20.5648496 C91.556775,20.5648496 91.7315684,20.2461896 91.4854593,19.7907596 L87.886114,12.9085497 C87.7831703,12.717275 87.7831703,12.4864745 87.886114,12.2951998 L91.3945668,5.86418988 C91.6406759,5.40828989 91.4663486,5.1808099 90.871585,5.1817499 L88.470623,5.1817499 C88.1629867,5.1817499 87.9532346,5.2057199 87.8399685,5.2790399 C87.6839602,5.40458935 87.562211,5.56811266 87.4861867,5.75420989 L85.3313338,10.3705498 C85.1257768,10.7639398 84.9621702,10.9486498 84.8391157,10.9486498 L84.469952,10.9486498 C84.3468975,10.9486498 84.1902826,10.7611198 84.0070992,10.3677298 L81.8844083,5.74292989 C81.8087249,5.55860121 81.6868088,5.39728329 81.5306265,5.2748099 C81.4173604,5.2028999 81.2076083,5.1803399 80.8999719,5.1803399 L78.5004084,5.1803399 C77.9061108,5.1803399 77.7313175,5.39606989 77.9774265,5.85149988 L81.3628248,12.2768698 C81.4658474,12.4590947 81.4658474,12.6826148 81.3628248,12.8648397 L77.7620811,19.7907596 C77.515972,20.2461896 77.6893671,20.5634396 78.2850629,20.5634396 Z" id="Path" fill="#0033A0" fill-rule="nonzero"></path>
                        <path d="M94.9477667,20.5634396 L97.1627485,20.5634396 C97.378726,20.577897 97.5895615,20.49286 97.7360708,20.3321996 C97.8395485,20.2391396 97.7864113,19.9359896 97.7864113,19.6046396 L97.7864113,11.7185098 L98.9176741,11.7185098 C99.2868377,11.7185098 99.5637104,11.8397698 99.7482922,12.1513798 L104.302709,19.9063796 C104.527843,20.2997696 104.938957,20.5704896 105.533254,20.5704896 L108.026507,20.5704896 C108.764834,20.5704896 108.970391,20.2208096 108.64178,19.7019296 L102.88898,10.5749998 C102.684821,10.2633898 102.581343,10.0335598 102.581343,9.9306298 C102.581343,9.8276998 102.684821,9.64016981 102.88898,9.32855981 L108.581651,1.13786998 C108.991366,0.537209989 108.796996,0.181889996 107.997142,0.181889996 L105.536051,0.181889996 C105.037795,0.166268984 104.568969,0.41928839 104.305505,0.845999983 L99.6280344,8.05532984 C99.4224774,8.36552983 99.1456046,8.64188983 98.7974162,8.64188983 L97.789208,8.64188983 L97.789208,1.05608998 C97.789208,0.724739986 97.8423452,0.463889991 97.7388675,0.369419993 C97.6353898,0.274949995 97.5137336,0.180479996 97.1655452,0.180479996 L94.9477667,0.180479996 C94.5981799,0.180479996 94.300332,0.276359995 94.1982527,0.369419993 C94.0393425,0.561340969 93.9575205,0.80633703 93.9689238,1.05608998 L93.9689238,19.5989996 C93.9689238,19.9303496 94.0919783,20.2334996 94.195456,20.3265596 C94.4146061,20.4847013 94.6783121,20.5677344 94.9477667,20.5634396 L94.9477667,20.5634396 Z" id="Path" fill="#0033A0" fill-rule="nonzero"></path>
                        <path d="M111.074904,20.2884896 C111.157406,20.3293796 111.244104,20.4464096 111.336394,20.4562796 C111.480198,20.5101982 111.630001,20.5461852 111.782467,20.5634396 L113.843631,20.5634396 C114.078552,20.5782092 114.310884,20.5071277 114.498057,20.3632196 C114.601535,20.2913096 114.567975,19.9980296 114.567975,19.6666796 L114.567975,13.2046497 C114.567975,9.66272981 114.756751,7.10357986 114.797304,5.56526989 L114.951122,5.56526989 C116.531254,10.1801998 117.925406,14.2212597 119.136374,17.2457097 C119.19449,17.4303854 119.307198,17.5927379 119.459393,17.7110096 C119.569203,17.8009433 119.70306,17.8559137 119.843938,17.8689296 C119.966993,17.8787996 120.162761,17.8689296 120.428447,17.8689296 L122.551138,17.8689296 C122.59169,17.8689296 122.664404,17.8604696 122.766484,17.8505996 C122.893003,17.8512949 123.016618,17.8123742 123.120265,17.7392096 C123.179141,17.7084671 123.231415,17.6662999 123.274084,17.6151297 C123.313104,17.5603302 123.349051,17.503371 123.381756,17.4445197 C123.428683,17.3595585 123.469797,17.2714633 123.504811,17.1808497 C123.587313,16.9735797 124.166229,15.3760497 125.242956,12.2585398 C126.319683,9.14102982 127.094368,6.71864987 127.565611,5.56526989 L127.719429,5.56526989 C127.759981,6.71864987 127.646715,8.16812984 127.656503,9.77270981 C127.666292,11.3772898 127.529254,13.1129997 127.529254,15.1151997 L127.529254,19.6666796 C127.529254,19.8950996 127.699852,20.0600696 127.761379,20.1644096 C127.833914,20.2902249 127.944735,20.3891143 128.077406,20.4464096 C128.279391,20.5134245 128.488913,20.5546359 128.701069,20.5690796 L130.762232,20.5690796 C131.02721,20.5757173 131.288602,20.5062796 131.515941,20.3688596 C131.629207,20.2969496 131.675353,20.0487896 131.655776,19.7174396 C131.34814,9.52595981 131.123006,3.38399993 130.978976,1.33244997 C130.958001,0.877019983 130.850328,0.531569989 130.655958,0.417359992 C130.461587,0.303149994 130.065855,0.186119996 129.471558,0.186119996 L127.410394,0.186119996 C126.774146,0.186119996 126.358837,0.286229994 126.164467,0.390569992 C125.970097,0.49490999 125.800897,0.845999983 125.656867,1.26053997 C124.303267,5.63153989 122.867165,9.79949981 121.34856,14.0309097 L121.194741,14.0309097 C120.131998,10.9486498 118.719667,6.71723987 116.952156,1.24925998 C116.829102,0.834719983 116.664097,0.49772999 116.459938,0.403259992 C116.048683,0.241428351 115.609082,0.165631973 115.167865,0.180479996 L113.105304,0.180479996 C112.490031,0.180479996 112.08451,0.280589994 111.89014,0.384929992 C111.69577,0.48926999 111.588097,0.793829984 111.567122,1.24925998 C111.42449,3.58985993 111.19889,9.72476981 110.890322,19.6539896 C110.886817,19.7956651 110.897121,19.9373452 110.921085,20.0769896 C110.936288,20.1680566 110.993335,20.2464965 111.074904,20.2884896 L111.074904,20.2884896 Z" id="Path" fill="#0033A0" fill-rule="nonzero"></path>
                        <path d="M69.9523127,20.6607296 C71.8596581,20.6607296 73.1125771,20.1742796 74.0970134,19.1999696 C75.1639522,18.1241396 75.5107423,16.1867997 75.5107423,13.3949997 L75.5107423,12.1485598 C75.5107423,9.32855981 75.170944,7.38416985 74.1040051,6.30692987 C73.1335523,5.35799989 71.7841473,4.8785999 69.8558267,4.8785999 C67.9275061,4.8785999 66.3781375,5.35799989 65.4146764,6.30692987 C64.3477376,7.38416985 63.6821244,9.33137981 63.6821244,12.1485598 L63.6821244,13.3949997 C63.6821244,16.1910297 64.3966797,18.1283696 65.4636185,19.2041996 C66.4466565,20.1742796 68.0645441,20.6607296 69.9523127,20.6607296 Z M65.9698202,12.4587598 C65.9698202,10.9260898 66.1250367,9.78680981 66.3291954,9.04091982 C66.7808615,7.42505985 67.9974234,6.61712987 69.9257441,6.61712987 C71.8540647,6.61712987 72.9559622,7.42505985 73.4076283,9.04091982 C73.611787,9.78680981 73.5978035,10.9260898 73.5978035,12.4587598 L73.5978035,13.0495497 C73.5978035,14.5822197 73.6257704,15.7285497 73.4216118,16.4673897 C72.9503688,18.1043996 71.814911,18.9221996 69.8879887,18.9221996 C67.9610664,18.9221996 66.7696747,18.1043996 66.2984317,16.4673897 C66.0928747,15.7214997 65.9712185,14.5822197 65.9712185,13.0495497 L65.9698202,12.4587598 Z" id="Shape" fill="#0033A0" fill-rule="nonzero"></path>
                        <path d="M27.3502705,24.9175195 C29.0865077,25.7633627 30.9916556,26.197438 32.9198869,26.1867205 C34.8482076,26.1867205 36.1360852,25.7931295 37.2547629,25.0049395 C38.3734406,24.2167495 38.689467,22.9956895 38.689467,21.3389396 L38.689467,21.0089996 C38.689467,19.2479096 38.0336422,17.7984296 36.2689282,16.6591497 C36.5411682,16.4774341 36.7950246,16.2691617 37.0268323,16.0373397 C37.9091893,15.0432897 38.3077182,13.6403397 38.3077182,11.8073398 L38.3077182,10.5383398 C38.3077182,8.38385983 37.9287662,6.86105986 36.8632257,5.97134988 C36.4849194,5.64326385 36.0503591,5.3876181 35.5809414,5.2169999 C35.8270505,4.69952991 36.4199497,4.40906991 37.1974307,4.40906991 L38.1203397,4.40906991 C38.1917624,4.41930967 38.2642625,4.41930967 38.3356852,4.40906991 C38.3972125,4.38791991 38.3440753,4.37804991 38.3650505,4.34702991 C38.3860257,4.31600991 38.3021249,4.30049991 38.3021249,4.26947992 L38.3021249,3.07520994 C38.3021249,2.78474994 38.3454736,2.48864995 38.0588125,2.48864995 L37.3204852,2.48864995 C35.5361943,2.48864995 34.3839563,3.32054993 33.8735597,4.8334799 C33.6680026,4.8123299 33.3407894,4.8334799 32.8947167,4.8334799 C31.0433052,4.8405299 29.5051234,5.2169999 28.6283598,5.94596988 C27.5614209,6.83708986 26.8608491,8.37821983 26.8608491,10.5326998 L26.8608491,11.8016998 C26.8608491,13.8941397 27.5600226,15.4056597 28.6283598,16.3376697 C29.6072027,17.1032997 31.0614837,17.4868197 32.8052225,17.4868197 C33.3940332,17.4990896 33.9824323,17.447087 34.5601481,17.3317197 C36.0773547,18.1438796 36.7765282,19.3663496 36.7765282,21.0089996 L36.7765282,21.2571596 C36.7765282,22.4584796 36.5402075,23.2917895 35.8634076,23.7584995 C35.1866076,24.2252095 34.1504324,24.4634995 32.6472093,24.4634995 C31.0880523,24.4634995 29.5442771,24.0799795 27.9641449,23.3143495 C27.6565085,23.1733495 27.4845119,23.2311595 27.4229846,23.5004695 L27.090178,24.4324795 C27.0460976,24.6367528 27.1566179,24.8428591 27.3502705,24.9175195 Z M32.8891233,15.9076197 C31.1663597,15.9076197 30.0085283,15.2759397 29.5582606,14.0125797 C29.2836695,13.2253668 29.1450865,12.3964782 29.1485449,11.5619998 L29.1485449,10.7498398 C29.141908,9.92395797 29.2801415,9.10339766 29.5568622,8.32604983 C29.757967,7.71065992 30.1826119,7.19482462 30.7454572,6.88220986 C31.268439,6.60020987 31.9885878,6.45920987 32.8709448,6.45920987 C33.7938539,6.45920987 34.5265877,6.60020987 35.0495696,6.88220986 C35.5725514,7.16420986 35.8997646,7.64360985 36.1458737,8.32604983 C36.3514307,8.89004982 36.3947794,9.69374981 36.3947794,10.7498398 L36.3947794,11.5267498 C36.3947794,12.5828398 36.3542274,13.4119197 36.1500687,14.0125797 C35.6984026,15.2759397 34.652439,15.9076197 32.8891233,15.9076197 Z" id="Shape" fill="#0033A0" fill-rule="nonzero"></path>
                        <path d="M0.639044615,19.7597396 C2.15764954,20.3603996 3.86037017,20.6607296 5.7472065,20.6607296 C7.84472712,20.6607296 9.3143899,20.1841496 10.4120924,19.2309896 C11.5097948,18.2778296 11.937689,16.8593697 11.937689,14.9741997 L11.937689,14.4778797 C11.937689,12.9452097 11.7237419,11.7988798 11.0567304,11.0290198 C10.3897188,10.2591598 9.27663453,9.68246981 7.59302464,9.28907982 L5.68428088,8.82236982 C4.53623793,8.55305983 3.493071,8.18504984 2.9910644,7.71974985 C2.36398236,7.14122937 2.01102969,6.32072461 2.02061153,5.46374989 L2.02061153,5.1535499 C2.02061153,2.87498994 3.52383464,1.73570997 6.06742798,1.73570997 C7.38720118,1.73866072 8.70002206,1.9285153 9.96741798,2.29970995 C10.3771337,2.42378995 10.6819733,2.33072995 10.7630775,2.01770996 L11.0119833,1.26899997 C11.0944857,0.916499982 10.9742279,0.689489986 10.6260395,0.585149988 C9.35354362,0.197399996 7.89506761,0 6.23243293,0 C4.40619165,0 2.86101812,0.439919991 1.80526608,1.31975997 C0.749514035,2.19959996 0.116062808,3.46859993 0.116062808,5.1267599 L0.116062808,5.59346989 C0.116062808,7.00346986 0.577517344,8.10044984 1.28508097,8.88722982 C1.99264459,9.67400981 3.15047597,10.2549298 4.64111396,10.6271698 L6.73024449,11.1248998 C8.0223172,11.4350998 8.71589735,11.8454098 9.15637668,12.3515998 C9.59685601,12.8577897 9.64859485,13.6769997 9.64859485,14.7894897 L9.64859485,15.1307097 C9.64859485,16.3531797 9.47100477,17.2894197 8.74386429,17.9422496 C8.01672381,18.5950796 7.02669408,18.9207896 5.59059162,18.9207896 C4.06780556,18.9207778 2.56262643,18.5924268 1.17600989,17.9577596 C0.806846265,17.8167596 0.616671062,17.8957196 0.552347096,18.2059196 L0.317424787,19.2309896 C0.25869421,19.4805596 0.37335867,19.6568096 0.639044615,19.7597396 Z" id="Path" fill="#0033A0" fill-rule="nonzero"></path>
                        <path d="M20.0606872,20.6607296 C21.4590343,20.6607296 22.6797913,20.4637996 23.7229582,20.0699396 C24.0958508,19.9251796 24.3163235,19.7959296 24.3843764,19.6821896 C24.4579361,19.5421486 24.4636073,19.3757935 24.3997582,19.2309896 L24.1844127,18.5161196 C24.1023764,18.2049796 23.8562673,18.1325996 23.4460855,18.2989796 C22.3665498,18.7194656 21.2179269,18.9304379 20.0606872,18.9207896 C18.6245848,18.9207896 17.6093848,18.6063596 17.0136889,17.8717496 C16.4179931,17.1371397 16.0907798,15.9485097 16.034846,14.0252697 L23.9746607,14.0252697 C24.4053516,14.0252697 24.5997218,13.8842697 24.7647268,13.7080197 C24.9297317,13.5317697 24.9045615,13.1736297 24.9045615,12.7379397 L24.9045615,10.1900698 C24.9045615,8.38808983 24.5549747,7.04153986 23.6460491,6.15041988 C22.7636921,5.30441989 21.4925946,4.8814199 19.7306773,4.8814199 C17.6331567,4.8814199 16.0949749,5.46656989 15.2168129,6.63686987 C14.338651,7.80716984 13.8436361,9.64157981 13.8436361,12.1485598 L13.8436361,13.3949997 C13.8436361,15.9640197 14.3722113,17.8167596 15.2755435,18.9560396 C16.1788757,20.0953196 17.8247302,20.6607296 20.0606872,20.6607296 Z M16.9199997,7.77614985 C17.4947203,6.98936986 18.4581815,6.60584987 19.8131798,6.60584987 C20.9821979,6.60584987 21.603064,6.94283986 22.1372326,7.60553985 C22.6084756,8.18504984 22.614069,9.15653982 22.614069,10.5002698 L22.614069,11.6804398 C22.614069,11.8877098 22.8140326,11.9948698 22.7539037,12.0470398 C22.6937748,12.0992098 22.8098376,12.1020298 22.646231,12.1020298 L16.0292526,12.1020298 C16.0502278,10.1801998 16.3466774,8.56292983 16.9199997,7.77614985 Z" id="Shape" fill="#0033A0" fill-rule="nonzero"></path>
                        <path d="M56.7533146,20.5634396 L57.7321575,20.5634396 C58.0817443,20.5634396 57.9027559,20.2475996 57.9027559,19.9782896 L57.9027559,10.6567798 C57.9027559,9.62183981 58.2635294,8.89004982 58.632693,8.29079984 C59.1458864,7.44479985 60.2547757,7.10498986 61.609774,7.10498986 L62.4403921,7.10498986 C62.7074764,7.10498986 62.4795459,6.81593986 62.4795459,6.58751987 L62.4795459,5.53001989 C62.4795459,5.2818599 62.7074764,5.1803399 62.4403921,5.1803399 L61.6405376,5.1803399 C59.9625211,5.1803399 58.7683327,5.94878988 58.0705575,7.10357986 L58.0090303,7.10357986 L57.8915691,5.49899989 C57.8873745,5.40583447 57.8455444,5.3184602 57.7758073,5.25719816 C57.7060703,5.19593611 57.6145044,5.16612563 57.5224055,5.1746999 L56.6330567,5.1746999 C56.3869476,5.1746999 56.0051851,5.2649399 56.0051851,5.49335989 L56.0051851,19.9782896 C56.0024022,20.2461896 56.4261014,20.5634396 56.7533146,20.5634396 Z" id="Path" fill="#0033A0" fill-rule="nonzero"></path>
                        <path d="M43.000571,19.5425996 C43.8829281,20.2884896 45.3553875,20.6607296 47.2641313,20.6607296 C49.1728751,20.6607296 50.4453709,20.2884896 51.3067527,19.5425996 C52.2100849,18.7558196 52.5191196,17.5685997 52.5191196,16.0006797 L52.5191196,5.56667989 C52.5191196,5.29736989 52.7680254,5.1859799 52.5428915,5.1859799 L51.2494205,5.1859799 C51.0033114,5.1859799 50.6117742,5.29736989 50.6117742,5.56667989 L50.6117742,15.7567497 C50.6117742,16.8339897 50.5096949,17.5996197 50.0384519,18.0564596 C49.442756,18.6359696 48.5673908,18.9264296 47.2739197,18.9264296 C45.9804487,18.9264296 44.8883396,18.6782696 44.3373909,18.1805396 C43.7864421,17.6828096 43.3683363,16.8960297 43.3683363,15.7567497 L43.3683363,5.59205989 C43.3683363,5.30159989 43.6312256,5.1803399 43.3431661,5.1803399 L42.2021149,5.1803399 C41.9154537,5.1803399 41.4581942,5.32133989 41.4581942,5.65409989 L41.4581942,16.0006797 C41.4595926,17.5756497 42.0762636,18.7529996 43.000571,19.5425996 Z" id="Path" fill="#0033A0" fill-rule="nonzero"></path>
                        <path d="M132.703138,27.4794895 C133.533756,27.1777495 134.369968,25.9101595 132.91289,20.3970596 C131.831968,21.7154096 130.921644,23.3876695 130.151154,25.0430095 C130.174254,25.2186531 130.211194,25.3921619 130.261624,25.5618895 C130.676933,26.8576795 131.942437,27.7290594 132.703138,27.4794895 Z M140.297561,19.6723196 C138.271356,21.4757096 137.282725,24.3422395 136.562576,26.2443295 C136.246549,27.6923994 135.436906,28.8626994 133.765882,29.4125994 C132.245878,29.9103294 130.390272,28.7357994 129.235237,27.1269895 C128.410212,29.0629194 127.780956,30.7013394 127.313908,31.3217394 L127.30412,31.3837794 C127.041231,31.4697894 127.006272,31.6277094 126.901396,31.6657794 C126.718212,31.7264094 126.639905,31.6657794 126.589564,31.5050394 C125.456903,31.4965794 124.191399,30.6251994 123.841812,29.5409094 C123.701978,29.0911194 123.769098,27.6938094 123.999826,25.8946495 C122.28685,28.9402494 121.677171,32.4412794 120.867528,33.4381493 C120.761938,33.5698084 120.626762,33.6742101 120.473194,33.7427093 C120.290011,33.8033393 120.211703,33.7427093 120.161363,33.5819693 C119.05527,33.5650493 117.784173,32.6936694 117.440179,31.6079694 C117.031862,30.3389694 118.558857,19.8119096 120.376708,19.2211196 L120.508153,19.1774096 C122.326004,19.0505096 122.636437,20.1164696 122.644827,20.1432596 C120.492771,24.8808595 120.357131,30.2148894 120.354335,31.8236994 C122.704956,25.0035295 124.129872,22.8701995 124.651455,22.2356996 C125.184226,19.6652696 125.977088,17.3585097 126.789528,17.0934297 L126.919574,17.0511297 C128.698272,16.9101297 129.116378,18.0268496 129.116378,18.0268496 C126.97411,22.7038195 126.8133,27.9588894 126.800715,29.6283294 C127.343274,28.0773294 127.867654,26.7350095 128.382245,25.5393295 L128.331905,25.3814095 C128.144526,24.8004895 127.975326,24.0954895 128.761197,23.8374595 C128.900021,23.7867902 129.043292,23.7494937 129.189092,23.7260695 C130.718883,20.5648496 131.925657,19.0011596 132.389908,18.4681796 C131.978794,16.3813797 132.71013,15.1476297 133.497399,14.8910097 C134.702774,14.4962097 135.78929,14.8120497 136.053577,15.6312597 C136.368206,16.6097997 134.831422,16.9665297 135.354404,18.6049496 C135.481654,19.0011596 135.67043,19.4946596 135.832639,19.9980296 C136.207652,21.1400474 136.470407,22.3164757 136.617111,23.5103395 C138.53005,19.2013796 139.388635,18.6275096 139.388635,18.6275096 L140.297561,19.6723196 Z M113.309462,14.6893797 C113.567361,14.3029276 113.938368,14.0071978 114.370808,13.8433797 C114.868619,13.6798197 115.45173,13.7813397 116.143912,14.4073797 C116.143912,14.4073797 115.713221,16.0387497 115.320285,17.4247797 L115.311895,17.4854097 C114.720394,19.6962896 114.661664,19.4227496 114.091138,22.2399296 L113.355608,25.0824895 C112.438537,28.0534526 111.960761,31.1444907 111.937684,34.2559493 C114.99447,25.4786995 116.482312,24.4352995 116.482312,24.4352995 L117.675102,25.7042995 C114.244956,28.9910094 113.470272,34.7677793 112.396342,36.2003393 L112.464861,36.4118393 C112.343142,36.4563504 112.217033,36.4875493 112.088705,36.5048993 C112.036357,36.5444534 111.977045,36.573639 111.913912,36.5909093 C111.809036,36.6261593 111.747509,36.6162893 111.688778,36.5189993 C110.547727,36.4837493 109.272434,35.5855793 108.924246,34.5026993 C108.659958,33.6834893 109.001155,29.8891794 109.820586,26.3246995 C109.821985,26.3261095 112.25371,15.5339697 113.315056,14.6893797 L113.309462,14.6893797 Z M103.393783,28.3142094 C105.657707,26.1695995 108.029304,22.3823396 107.400047,20.4266696 C107.204279,19.8189596 106.489724,19.7597396 105.564018,20.0346896 C105.424183,20.5789496 105.151505,21.5433896 104.91099,22.4119496 L104.901201,22.4739896 C104.294319,24.4550395 104.322286,24.2717395 103.782524,26.8153795 L103.393783,28.3142094 Z M102.554775,30.3121794 C101.752124,32.9432393 101.464064,38.7059092 101.525591,38.7157792 L100.864173,39.7253392 C99.6056608,40.1370592 99.1595881,39.3742492 98.7498724,38.1052492 C98.5205435,37.3917893 99.050517,32.7472493 99.4112906,31.1680494 C99.7720641,29.5888494 99.7357071,28.8697494 100.311826,27.2200495 C100.887945,25.5703495 100.829215,25.5886795 103.161657,24.8230495 C104.477502,24.3929995 103.364418,27.6811195 102.560368,30.3149994 L102.554775,30.3121794 Z M108.791403,24.6834595 C107.089614,28.5722394 102.280699,31.4923494 102.280699,31.4923494 C101.132656,35.9310293 101.465462,38.7059092 101.52699,38.7157792 L100.40132,40.0439992 C100.40132,40.0439992 99.1679782,39.3798892 98.7582625,38.1108892 C98.5289336,37.3974293 98.8253832,33.8230793 99.5888807,30.6209694 C99.5888807,30.6209694 100.847393,25.1543995 101.86539,22.0425296 C100.708957,22.9477495 99.69096,24.0165295 99.1861567,25.0542895 C99.0085666,25.4039695 98.7806361,25.5957295 98.6268179,25.6478995 C98.5688542,25.678394 98.5001506,25.6800941 98.4407732,25.6525032 C98.3813958,25.6249123 98.338043,25.571143 98.3233766,25.5068995 C98.2548576,25.2953995 98.3233766,24.8921395 98.6282162,24.2957095 C100.131439,21.3191996 102.909955,19.0646096 105.242398,18.3003896 C106.998722,17.7251096 108.476775,18.0000596 108.936831,19.4283896 C109.408074,20.9088896 109.361928,23.4750895 108.791403,24.6834595 Z" id="Shape" fill="#FFFFFF" fill-rule="nonzero"></path>
                        <path d="M102.505833,30.6407094 C101.824838,33.0377093 101.582924,35.6885093 101.307449,39.3093892 C101.031975,42.9302691 101.062738,46.1633991 101.273889,46.8176391 C101.466861,47.4154791 97.1795286,46.0999491 96.7991782,44.9028591 C96.5712477,44.1978591 98.6170294,32.4384594 98.9889898,30.8691294 C99.3609501,29.2997994 101.257109,23.6781295 101.525591,23.1366895 C101.794074,22.5952496 102.435915,25.7353195 104.080371,25.1981095 C104.161476,25.1684995 103.186828,28.2451194 102.505833,30.6407094 Z" id="Path" fill="#FFFFFF"></path>
                        <path d="M133.171584,28.1873094 C134.010592,27.8855694 134.849601,26.6207995 133.398116,21.1373096 C132.311601,22.4528396 131.394285,24.1194595 130.618202,25.7691595 C130.640941,25.9437048 130.676937,26.1162319 130.725875,26.2852195 C131.142583,27.5739595 132.409485,28.4368794 133.171584,28.1873094 Z M140.803762,20.3970596 C138.767769,22.1976296 137.770748,25.0500595 137.045006,26.9479195 C136.724784,28.3903494 135.909548,29.5578294 134.227336,30.1091394 C132.703138,30.6082794 130.844735,29.4436194 129.691098,27.8460894 C128.86048,29.7749694 128.224232,31.4077494 127.754388,32.0267394 L127.744599,32.0887794 C127.48171,32.1747894 127.445353,32.3312994 127.339078,32.3707794 C127.154497,32.4314094 127.077588,32.3707794 127.025849,32.2114494 C125.890391,32.2114494 124.624887,31.3414794 124.276698,30.2628294 C124.136864,29.8158594 124.206781,28.4298294 124.443102,26.6334895 C122.71894,29.6692194 122.099472,33.1561493 121.285634,34.1501993 C121.179129,34.2814965 121.043596,34.3858042 120.889902,34.4547593 C120.70532,34.5153893 120.627012,34.4547593 120.576672,34.2954293 C119.467783,34.2813293 118.199482,33.4169993 117.85409,32.3383494 C117.447171,31.0693494 119.010523,20.5944596 120.824179,20.0008496 L120.955624,19.9571396 C122.773475,19.8260096 123.085307,20.8877396 123.095095,20.9131196 C120.926259,25.6352095 120.776636,30.9452694 120.769644,32.5456194 C123.146834,25.7508295 124.578741,23.6245495 125.10452,22.9886395 C125.64568,20.4280796 126.445535,18.1311896 127.260771,17.8646996 L127.392216,17.8223996 C129.175108,17.6743496 129.591816,18.7868396 129.591816,18.7868396 C127.431369,23.4482995 127.256576,28.6793994 127.241194,30.3417894 C127.789346,28.7907894 128.317921,27.4597495 128.836708,26.2725295 L128.786368,26.1146095 C128.600388,25.5365095 128.432586,24.8357395 129.221254,24.5777095 C129.360487,24.5268144 129.504244,24.4895134 129.650546,24.4663195 C131.188728,21.3163796 132.40529,19.7555096 132.866744,19.2253496 C132.458427,17.1498297 133.196754,15.9203097 133.985422,15.6608697 C135.194992,15.2646597 136.282906,15.5762697 136.545796,16.3912497 C136.859025,17.3641497 135.318047,17.7236996 135.846622,19.3522496 C135.973872,19.7470496 136.16125,20.2377296 136.32206,20.7368696 C136.694993,21.8727885 136.955425,23.0431619 137.099541,24.2308495 C139.02926,19.9359896 139.896235,19.3635296 139.896235,19.3635296 L140.803762,20.3970596 Z M113.769518,15.5099997 C114.028973,15.1238595 114.400744,14.8282989 114.833661,14.6639997 C115.334269,14.5004397 115.91738,14.5991397 116.609561,15.2153097 C116.609561,15.2153097 116.174675,16.8410397 115.770553,18.2214296 L115.760765,18.2820596 C115.162272,20.4844796 115.103542,20.2123496 114.526024,23.0168395 L113.782104,25.8481195 C112.855639,28.8045641 112.368853,31.8831425 112.337611,34.9835093 C115.413975,26.2415095 116.915799,25.1995195 116.915799,25.1995195 L118.108589,26.4685195 C114.660265,29.7495894 113.870199,35.5023893 112.79487,36.9307193 L112.861991,37.1408093 C112.740203,37.185396 112.614136,37.2170571 112.485836,37.2352793 C112.432576,37.2741696 112.372932,37.3032854 112.309644,37.3212893 C112.204768,37.3565393 112.143241,37.3466693 112.083112,37.2507893 C110.939264,37.2183593 109.663971,36.3272393 109.317181,35.2499993 C109.242084,34.9091283 109.213852,34.5594599 109.23328,34.2108293 C109.248662,32.6598294 109.603842,29.8130394 110.237294,27.1001995 C110.24009,27.0973795 112.706775,16.3489497 113.769518,15.5099997 Z M103.551796,30.3516594 C103.551796,30.3516594 105.949962,29.0206194 107.225254,26.7068095 C108.500547,24.3929995 108.763436,22.3259396 108.409654,21.2501096 C108.055872,20.1742796 106.916219,20.5704896 105.987717,20.8454396 C105.847882,21.3868796 105.568213,22.3484996 105.326299,23.2128295 L105.317909,23.2734595 C104.704034,25.2474595 104.732001,25.0641595 104.182451,27.5993395 L103.551796,30.3516594 Z M109.350742,28.2958794 C107.776203,32.1169794 101.960477,35.0723393 101.964672,34.2333893 C101.968867,33.3944393 101.837423,39.4419292 101.89895,39.4503892 L102.375786,40.5783892 C101.117274,40.9915192 99.525955,40.1173192 99.119036,38.8553692 C98.8897071,38.1503692 99.1959451,34.5858893 99.9706294,31.3964694 C99.9706294,31.3964694 101.23893,25.9524595 102.273707,22.8518695 C101.111681,23.7556795 100.088091,24.8174095 99.5804906,25.8565795 C99.4029005,26.2062595 99.1735716,26.3966095 99.0211518,26.4487795 C98.8687319,26.5009495 98.7596608,26.4487795 98.7163121,26.3162395 C98.6491914,26.1061495 98.7163121,25.7042995 99.0253468,25.1106895 C100.539757,22.1496896 103.330857,19.8936896 105.670292,19.1266496 C107.430811,18.5499596 109.637403,18.5062496 110.276447,20.3462996 C110.915492,22.1863496 110.92528,24.4733695 109.350742,28.2958794 Z" id="Shape" fill="#0033A0"></path>
                        <path d="M105.1557,23.4918724 C105.243796,23.4638095 104.263555,27.7910994 103.58256,30.1866894 C102.901565,32.5822794 102.659651,35.2344893 102.384176,38.8553692 C102.108702,42.4762492 102.139466,45.7079691 102.350616,46.3636191 C102.561767,47.0192691 98.2758328,45.7065591 97.8759055,44.4488391 C97.6479749,43.7438391 99.6937567,31.9830294 100.065717,30.4151094 C100.437677,28.8471894 101.521396,25.1431195 101.789879,24.5960395" id="Path" fill="url(#linearGradient-1)"></path>
                        <path d="M97.3683055,31.3442994 C100.253096,31.3668594 101.406732,31.4303094 103.130894,30.5448294 C104.279403,29.9545094 105.593383,28.7621194 107.072834,26.9676595 C107.427082,27.3652795 108.19897,27.7581994 109.388497,28.1464194 C108.586778,29.8177394 107.826543,30.9729994 107.107793,31.6121994 C106.029667,32.5709994 103.73498,34.2911993 101.431902,34.8551993 C99.1288245,35.4191993 95.4595617,35.5841693 93.7298064,35.5714793 C92.0000511,35.5587893 93.1355089,33.2449793 91.3917701,31.4824794 C89.9962197,30.0879894 94.4849138,31.3231494 97.3683055,31.3442994 Z" id="Path" fill="url(#linearGradient-2)"></path>
                    </g>
                </g>
                <path d="M6.776,20.198 C8.052,20.198 9.328,19.934 10.384,19.516 C10.912,19.318 10.934,19.12 10.846,18.724 L10.582,17.668 C10.494,17.294 10.252,17.184 9.922,17.316 C9.108,17.668 8.052,17.91 7.106,17.91 C5.896,17.91 5.082,17.624 4.642,17.096 C4.114,16.458 3.894,15.358 3.894,13.07 L3.894,12.674 C3.894,10.496 4.048,9.22 4.73,8.538 C5.192,8.076 5.742,7.856 6.82,7.856 C7.766,7.856 8.756,8.142 9.68,8.648 C9.944,8.802 10.252,8.824 10.384,8.516 L10.912,7.196 C11.044,6.844 11,6.69 10.758,6.558 C9.68,5.92 8.228,5.568 6.82,5.568 C5.126,5.568 3.872,5.898 2.97,6.602 C1.518,7.768 1.056,9.374 1.056,12.454 L1.056,13.334 C1.056,16.216 1.452,17.866 2.508,18.922 C3.432,19.846 4.73,20.198 6.776,20.198 Z M16.786,20.198 C18.414,20.198 19.558,19.714 20.284,18.9 C21.098,17.976 21.406,16.634 21.406,14.94 L21.406,14.28 C21.406,12.63 21.098,11.244 20.284,10.32 C19.558,9.484 18.436,9.022 16.786,9.022 C15.136,9.022 14.014,9.484 13.288,10.32 C12.474,11.244 12.166,12.63 12.166,14.28 L12.166,14.94 C12.166,16.634 12.474,17.976 13.288,18.9 C14.014,19.714 15.158,20.198 16.786,20.198 Z M16.786,18.108 C15.994,18.108 15.62,17.888 15.312,17.514 C14.938,17.03 14.828,16.172 14.828,14.83 L14.828,14.368 C14.828,13.026 14.938,12.19 15.312,11.706 C15.62,11.31 15.994,11.112 16.786,11.112 C17.578,11.112 17.952,11.31 18.26,11.706 C18.634,12.19 18.744,13.026 18.744,14.368 L18.744,14.83 C18.744,16.172 18.634,17.03 18.26,17.514 C17.952,17.888 17.578,18.108 16.786,18.108 Z M29.238,20 C29.722,20 29.766,19.868 29.766,19.45 L29.766,18.372 C29.766,17.932 29.7,17.8 29.238,17.8 L28.16,17.8 C27.566,17.8 27.324,17.734 27.126,17.514 C26.9229231,17.2906154 26.8698107,17.0484852 26.8628411,16.3896268 L26.862,11.42 L29.04,11.42 C29.414,11.42 29.502,11.244 29.502,10.87 L29.502,9.792 C29.502,9.352 29.414,9.22 29.04,9.22 L26.862,9.22 L26.862,7.02 C26.862,6.58 26.73,6.47 26.246,6.47 L24.86,6.47 C24.376,6.47 24.244,6.58 24.244,7.02 L24.244,9.33 L22.836,9.572 C22.572,9.616 22.484,9.682 22.484,10.034 L22.484,11.002 C22.484,11.332 22.594,11.42 22.924,11.42 L24.244,11.42 L24.244,16.656 C24.244,17.91 24.508,18.768 25.08,19.296 C25.63,19.802 26.378,20 27.654,20 L29.238,20 Z M33,8.098 C33.902,8.098 34.54,7.548 34.54,6.558 L34.54,6.426 C34.54,5.37 33.902,4.908 33,4.908 L32.89,4.908 C32.032,4.908 31.35,5.37 31.35,6.426 L31.35,6.558 C31.35,7.548 31.768,8.098 32.89,8.098 L33,8.098 Z M33.638,20 C34.122,20 34.254,19.89 34.254,19.45 L34.254,9.77 C34.254,9.33 34.122,9.22 33.638,9.22 L32.252,9.22 C31.768,9.22 31.636,9.33 31.636,9.77 L31.636,19.45 C31.636,19.89 31.768,20 32.252,20 L33.638,20 Z M43.956,20 C44.352,20 44.462,19.846 44.462,19.472 L44.462,18.35 C44.462,17.932 44.352,17.8 43.956,17.8 L39.446,17.8 L43.538,11.508 C43.912,10.936 44.088,10.694 44.088,10.254 L44.088,9.682 C44.088,9.308 43.978,9.22 43.604,9.22 L36.784,9.22 C36.3372308,9.22 36.2653728,9.33247337 36.2569613,9.67854529 L36.256,10.892 C36.256,11.266 36.3,11.42 36.784,11.42 L40.678,11.42 L36.542,17.734 C36.168,18.284 36.08,18.526 36.08,18.9 L36.08,19.406 C36.08,19.868 36.256,20 36.828,20 L43.956,20 Z M49.698,20.198 C51.018,20.198 51.7,19.802 52.118,19.076 L52.162,19.076 L52.294,19.604 C52.36,19.89 52.492,20 52.822,20 L53.834,20 C54.142,20 54.296,19.868 54.296,19.582 L54.296,12.63 C54.296,11.068 53.944,10.276 53.152,9.726 C52.404,9.22 51.546,9.022 49.984,9.022 C48.818,9.022 47.476,9.286 46.662,9.55 C46.288,9.66 46.244,9.836 46.332,10.21 L46.53,11.244 C46.596,11.552 46.728,11.706 47.08,11.596 C47.96,11.332 48.994,11.178 49.786,11.178 C50.578,11.178 50.996,11.244 51.304,11.486 C51.568,11.706 51.678,12.036 51.678,12.608 L51.678,13.202 C51.304,13.18 50.842,13.158 50.446,13.158 L49.654,13.158 C48.158,13.158 47.124,13.4 46.442,13.972 C45.804,14.5 45.518,15.336 45.518,16.524 L45.518,17.03 C45.518,18.086 45.826,18.944 46.464,19.494 C47.058,20 47.74,20.198 48.884,20.198 L49.698,20.198 Z M50.248,18.108 L49.456,18.108 C48.972,18.108 48.664,17.998 48.488,17.844 C48.268,17.646 48.158,17.338 48.158,16.854 L48.158,16.59 C48.158,16.084 48.246,15.71 48.488,15.512 C48.708,15.314 49.126,15.248 49.632,15.248 L50.402,15.248 C50.842,15.248 51.304,15.27 51.678,15.292 L51.678,16.634 C51.678,17.646 51.26,18.108 50.248,18.108 Z M67.408,20 C67.892,20 67.936,19.868 67.936,19.45 L67.936,18.372 C67.936,17.932 67.87,17.8 67.408,17.8 L66.33,17.8 C65.736,17.8 65.494,17.734 65.296,17.514 C65.0929231,17.2906154 65.0398107,17.0484852 65.0328411,16.3896268 L65.032,11.42 L67.21,11.42 C67.584,11.42 67.672,11.244 67.672,10.87 L67.672,9.792 C67.672,9.352 67.584,9.22 67.21,9.22 L65.032,9.22 L65.032,7.02 C65.032,6.58 64.9,6.47 64.416,6.47 L63.03,6.47 C62.546,6.47 62.414,6.58 62.414,7.02 L62.414,9.33 L61.006,9.572 C60.742,9.616 60.654,9.682 60.654,10.034 L60.654,11.002 C60.654,11.332 60.764,11.42 61.094,11.42 L62.414,11.42 L62.414,16.656 C62.414,17.91 62.678,18.768 63.25,19.296 C63.8,19.802 64.548,20 65.824,20 L67.408,20 Z M74.052,20.198 C75.306,20.198 76.428,19.978 77.176,19.494 C78.034,18.944 78.43,18.086 78.43,16.612 L78.43,9.77 C78.43,9.33 78.298,9.22 77.814,9.22 L76.428,9.22 C75.944,9.22 75.812,9.33 75.812,9.77 L75.812,16.348 C75.812,17.096 75.68,17.47 75.372,17.712 C75.086,17.932 74.602,17.998 74.052,17.998 C73.502,17.998 73.04,17.932 72.732,17.712 C72.402,17.47 72.248,17.096 72.248,16.348 L72.248,9.77 C72.248,9.33 72.116,9.22 71.632,9.22 L70.246,9.22 C69.762,9.22 69.63,9.33 69.63,9.77 L69.63,16.612 C69.63,18.086 70.07,18.944 70.884,19.494 C71.654,20.022 72.754,20.198 74.052,20.198 Z" id="Cotizatu" fill="#0033A0" fill-rule="nonzero"></path>
            </g>
        </g>
    </g>
</svg>