<svg height="54" viewBox="0 0 153 54" width="153" xmlns="http://www.w3.org/2000/svg"><g fill="none" fill-rule="evenodd"><g fill="#00aec7" transform="translate(109)"><path d="m23.388 45.4446667c.0513333.0133333.0866667.0573333.0806667.162-.57.7486666-1.4886667 1.6013333-2.708 2.466-1.19.852-2.588 1.6786666-4.0606667 2.3886666-1.542.7426667-2.9026667 1.3733334-4.3306667 1.754-1.602.4193334-2.99866663.574-4.15466663.444-.94066667-.1006666-1.70533334-.3746666-2.29466667-.846-.02866667-.026-.04666667-.076-.04666667-.1233333.018-.0693333.076-.1146667.144-.1373333 3.59066667-.588 6.89199997-1.4946667 9.95866667-2.5593334 3.0226667-1.046 5.5466667-2.2713333 7.412-3.5486666"/><path d="m23.0833333 43.7053333c-1.9466666 1.1726667-5.9286666 2.8886667-9.404 3.8846667-4.1473333 1.196-7.47066663 1.7793333-9.70599997 1.47-1.95066666-.288-2.924-1.196-3.22733333-1.5346667-.04933333-.0366666-.09733333-.082-.07733333-.144.014-.07.06466666-.124.15333333-.1393333l.74933333-.0606667c1.66133334-.116 4.62866667-.2013333 8.08933334-.718 4.00266663-.5973333 10.43000003-1.7686666 13.36866663-2.936.0666667.0153334.108.07.054.178"/><path d="m22.766 48.8333333c.0526667.0033334.1133333.0446667.0853333.1486667-.724 1.736-1.5346666 3.0433333-3.1433333 3.854-2.8173333 1.4233333-4.3046667.6253333-4.4973333.5293333-.05-.028-.096-.094-.096-.1546666.012-.0653334.0606666-.1193334.1286666-.1273334 1.2253334-.3766666 4.9246667-1.7666666 7.4306667-4.2313333.0233333-.0153333.066-.0226667.092-.0186667"/><path d="m41.3366667 22.1153333c.0526666.0233334.076.0646667.076.104-.012.054-.0573334.0886667-.1453334.082-.8426666-.24-2.6393333-.73-4.9046666-1.3393333-5.1873334-1.3973333-24.7706667-6.5533333-25.0986667-6.642l-.0886667-.028c-1.1733333-.3686667-2.13666663-.944-2.88199997-1.7433333-.218-.2233334-.41933333-.47-.60533333-.76-.65466667-.9946667-.81933333-2.44933337-.84733333-2.72133337-.004-.02733333.00466666-.08933333.03666666-.12466666.04-.04.094-.044.20133334-.03266667l3.20000003 1.238c7.602 2.9106667 27.7826666 10.652 31.058 11.9673333"/><path d="m38.0473333 19.0273333c.0306667.134-.024.1686667-.1393333.1453334-1.142-.5726667-3.7533333-1.8053334-6.3693333-3.0906667-2.2073334-1.0986667-17.332-8.144-18.358-8.66333333l-1.8046667-.91466667c-.2773333-.13-.5153333-.28466667-.7566667-.42866667-.71599997-.43333333-1.08799997-.74666666-1.48066663-1.22866666-.31266667-.41-.56466667-.91866667-.76533334-1.39666667-.43733333-1.08133333-.41533333-2.50066667-.39533333-2.76133333 0-.03733334.01866667-.088.07733333-.11066667.03933334-.02933333.08533334-.03733333.19066667 0l1.88 1.13866667 1.0146667.622 5.5406666 3.35066666c7.7293334 4.77333337 18.5506667 11.58466667 21.366 13.33799997"/><path d="m43.62 24.1993333c.054.0066667.0906667.0573334.0906667.108 0 .0526667-.0506667.084-.1253334.084-2.9826666-.2086666-29.7786666-1.9633333-29.7786666-1.9633333-.2373334-.022-.4466667-.048-.6933334-.1226667-2.13-.66-3.36466663-2.2946666-3.87466663-3.9306666-.016-.0633334-.032-.128-.00733334-.186.048-.0446667.11266667-.08.17066667-.0726667.018 0 31.6186667 5.6046667 34.218 6.0833333"/><path d="m42.3026667 26.0046667c.0573333.0033333.106.0606666.106.1146666-.014.04-.0486667.0773334-.0993334.088-1.1006666.176-21.47 3.0433334-21.6 3.06-.132.02-.2446666.0373334-.3606666.0373334-.1186667 0-.2313334 0-.346-.012-.9726667-.1033334-1.906-.5693334-2.7666667-1.4633334-.4306667-.4566666-.832-1.1866666-.9213333-1.476-.036-.0453333-.036-.09-.0046667-.1406666.034-.0466667.088-.07.1313333-.0746667 0 0 6.84-.0446667 11.148-.0573333 3.206-.0066667 6.6453334-.0186667 9.4266667-.0313334 2.4146667-.0093333 4.3433333-.0166666 5.2866667-.0446666"/><path d="m40.7813333 28.1013333c.038 0 .116-.012.1286667.0313334.006.034.0793333.088-.034.1513333-.656.4433333-15.2833333 6.5413333-15.4313333 6.592-.8.2806667-1.698.424-2.3546667-.6786667-.2713333-.4626666-.512-.834-.62-1.0073333-.0466667-.066-.2053333-.2433333.2273333-.35 0 0 4.1193334-1.1233333 7.7833334-2.068 4.24-1.076 9.0406666-2.314 10.3006666-2.6706667"/><path d="m34.3586667 38.2406667c.0586666.0106666.0993333.0646666.0726666.1733333-1.412 1.646-6.6193333 7.4046667-8.9713333 9.936-.2446667.252-.3653333.1453333-.2813333-.1133333 0 0 .4426666-1.1326667.64-2 .1193333-.5226667.2286666-.952.52-1.1853334 3.05-2.596 5.9953333-5.172 7.9246666-6.7746666z"/><path d="m39.1426667 30.946c.0693333.0186667.104.062.0693333.1853333-1.4233333 1.198-7.9546667 6.6926667-11.476 9.592l-.118.0973334c-1.024.7833333-1.7113333.9686666-1.8313333-.724-.0386667-.402-.0893334-.7413334-.0893334-.7413334-.0646666-.3513333.0433334-.348.176-.432 1.1426667-.7133333 3.3473334-1.944 5.0966667-3.0046666 3.1186667-1.8753334 6.772-4.112 8.1726667-4.9726667"/></g><path d="m15.6062432 26.6196743-6.46800708-1.7818564c-1.77836717-.4933544-3.40474287-1.2710262-3.40474287-3.4501203 0-2.2738666 1.36792324-3.383578 4.2457177-3.383578h5.75358025c2.5423419 0 5.5748061-.8502634 5.5815018-5.0041196l-10.8282206.0107543c-6.66954647.0060493-10.4860724 3.3862666-10.4860724 8.2310878 0 4.510093 2.85235096 7.0427354 7.9390435 8.4011405l5.6283714 1.4961948c2.3280808.630472 3.1610209 2.0917153 3.1610209 3.5905986 0 2.2852931-1.4368886 3.6638625-4.9306837 3.6853711l-10.80679449.0840181v4.9106915h10.98891639c6.6641899 0 10.4860724-3.5926151 10.4860724-8.3231717 0-4.7614752-1.8687586-7.1045727-6.8597032-8.4670107zm53.0523887-13.6196743c-6.5543811 0-11.065247 3.80098-11.065247 11.6314694v18.7783873h5.2768493v-18.9605386c0-4.0288372 2.1633676-6.4451985 6.2416938-6.4451985h1.5694626c4.6300486 0 5.3846494-2.4022463 5.3846494-5.0041196zm-23.5131476 0 .0187479 21.0872054c0 3.0790963-2.532968 4.6223412-5.8794586 4.6223412-3.5225865 0-5.8272325-1.5432449-5.8272325-4.6223412l-.0455305-15.7786041c-.0053565-4.495978-2.8074901-5.3086013-5.274171-5.3086013v22.383101c0 5.6540838 5.0632577 8.4260098 10.9761946 8.4260098 5.7368411 0 11.3511516-2.771926 11.3511516-8.4260098l-.0053565-16.3855511c.0006696-4.4254027-1.6558366-5.9975499-5.314345-5.9975499zm46.1371115 0h-1.3304275c-7.0324512.0107543-13.6457541 5.2111403-13.9350066 15.3390213-.2564438 9.2124195 4.5262658 15.6609787 12.6099356 15.6609787 6.6461116 0 8.979549-4.6512435 8.979549-4.6512435.376296 3.1120314 2.0582457 4.060428 5.3933537 4.060428v-26.0805706-4.3286139zm6.0060066 17.9173695c0 4.2116607-2.4024026 8.2142842-7.6276953 8.2142842-4.669553 0-8.0160436-3.1503437-7.802452-10.7314672.2089045-7.2766419 3.6986823-10.4760522 8.3066352-10.4760522.3622351 0 .7023746-.0154593 1.030462-.0436894v.0060493h6.0930501z" fill="#0033a0" fill-rule="nonzero"/></g></svg>