<svg xmlns="http://www.w3.org/2000/svg" xmlns:xlink="http://www.w3.org/1999/xlink" width="456" height="222" viewBox="0 0 456 222">
  <defs>
    <polygon id="sura-image-familia-a" points="0 .061 251.718 .061 251.718 204 0 204"/>
    <polygon id="sura-image-familia-c" points=".177 .164 24.937 .164 24.937 40.863 .177 40.863"/>
  </defs>
  <g fill="none" fill-rule="evenodd">
    <path fill="#F2EEE1" d="M216.702375,123.664958 C216.702375,123.664958 246.412512,82.5242085 292.345936,86.7023585 C338.2786,90.8808877 359.24542,82.8980429 380.990881,77.2344127 C402.736722,71.5704032 451.370549,170.158063 386.494093,198.744268 C321.617636,227.331231 264.229113,185.52774 217.668756,200.040177 C171.108778,214.552992 169.452505,134.362084 216.702375,123.664958"/>
    <g transform="translate(0 18)">
      <mask id="sura-image-familia-b" fill="#fff">
        <use xlink:href="#sura-image-familia-a"/>
      </mask>
      <path fill="#F2EEE1" d="M233.130065,47.0687263 C207.598246,30.6142458 165.001124,-24.3525475 89.3266262,12.5706927 C13.6521285,49.4943128 -10.4946407,62.4124134 3.99364887,113.875117 C18.4819385,165.338201 44.4029701,231.477888 111.529613,191.972168 C178.656255,152.466447 170.56831,129.548168 222.839875,116.640704 C275.111441,103.73286 242.257938,52.9512961 233.130065,47.0687263" mask="url(#sura-image-familia-b)"/>
    </g>
    <path fill="#B55743" d="M200,95.7064681 C200,95.7064681 211.700259,90.178246 216.295198,92.624734 C220.88976,95.071222 214.74216,104.312567 214.74216,104.312567 L203.367307,106 L200,95.7064681 Z"/>
    <polygon fill="#B55743" points="446.163 54 431 53.445 431.837 34 447 34.555"/>
    <g transform="translate(431)">
      <mask id="sura-image-familia-d" fill="#fff">
        <use xlink:href="#sura-image-familia-c"/>
      </mask>
      <path fill="#B55743" d="M24.7695769,16.0307367 L19.2884231,31.3850486 C15.4022692,37.3672872 13.0607308,42.6006174 6.94457692,40.3159018 C4.21726923,39.2972963 2.27303846,36.393067 1.83573077,34.6680578 L0.369961538,29.2688468 L0.176884615,13.3886817 C0.176884615,13.3886817 2.64496154,13.0636908 3.69034615,17.8704706 C4.14611538,19.9659844 3.14380769,21.2072688 4.13342308,22.376333 C4.91573077,21.6917459 5.72303846,20.9383239 6.43188462,20.0427183 L14.3061154,2.48418624 C14.7457308,1.01420459 17.1338077,1.3583789 16.6941923,2.82836055 L13.2238077,15.6162229 L18.6180385,1.39411284 C19.2115,-0.0232082569 21.9753462,-0.858254128 21.5703462,2.57671835 L20.3322692,8.22757156 L20.8426538,7.28833303 C21.5126538,5.90411284 23.5899615,6.86592018 22.9195769,8.25014037 L20.3418846,18.4565073 L22.6799615,14.1548927 C23.3503462,12.7706725 25.5580385,13.2574064 24.7695769,16.0307367" mask="url(#sura-image-familia-d)"/>
    </g>
    <path fill="#00AEC7" d="M118,105.557494 C118,105.557494 125.476107,100.893357 135.74234,100.247314 C146.008573,99.6008846 155.953249,101.880053 167.551756,96.620642 C179.150263,91.3612308 186,121.257443 186,121.257443 L138.333063,128 L118,105.557494 Z"/>
    <path fill="#DE7B66" d="M109.132801,119 L91,146.547373 C91,146.547373 116.354218,151.492627 116.646027,150.959847 C116.937835,150.427067 131,129.331136 131,129.331136 L109.132801,119 Z"/>
    <path fill="#0033A0" d="M171,99 C171,99 155.112602,104.555276 147.675149,107.68195 C140.238079,110.808249 111.59726,136.689912 111.008682,142.175682 C110.420104,147.662202 139.952789,156 139.952789,156 L165.878183,140.209206 L171,99 Z"/>
    <path fill="#EDA24C" d="M79.0390481,58.8094622 C79.0390481,58.8094622 75.4067487,64.8480934 68.0370773,69.2093686 C60.6670223,73.5706437 52.7301876,82.2581247 59.6745824,90.8594248 C66.6193608,99.4607249 85.2924164,101.729036 86.5578923,96.6589134 C87.8237517,91.5887911 96.3822035,97.2196488 105.994452,99.191363 C115.6067,101.162704 144.116721,106.497338 141.874912,80.2688758 C140.031152,58.6953005 130.645155,68.4572445 128.311694,51.1173518 C125.978234,33.7774591 79.0390481,58.8094622 79.0390481,58.8094622"/>
    <path fill="#B55743" d="M118.437754,106.417454 C117.980075,106.228093 111.236317,106.066379 111.589221,101.058156 C111.941747,96.0499333 112.602922,86.6595157 112.602922,86.6595157 L95.2883068,76 C95.2883068,76 96.0659817,96.1874095 93.690215,98.6937931 C91.3144483,101.199798 85,106.101979 85,106.101979 L88.5422792,133.877088 C88.5422792,133.877088 120.341847,137.380268 121.15659,136.965946 C121.970955,136.551245 125.193237,119.79203 124.990875,118.204805 C124.788514,116.617959 118.437754,106.417454 118.437754,106.417454"/>
    <path fill="#00AEC7" d="M145.157458,151.198008 L148.070695,169.053786 C148.070695,169.053786 154.953089,211.17155 131.258531,212.359799 C116.493238,213.10005 80.4895561,214.854705 75.4277923,205.731854 C70.3656463,196.609381 72.4067849,148.441392 72.4067849,148.441392 L86.5510613,105 C89.7849341,110.418201 93.0952397,114.611575 95.9878399,118.28945 C111.547652,138.071842 118.606988,137.726417 118.424313,106.381325 L121.338697,108.885282 C134.05024,119.805777 142.47887,134.778234 145.157458,151.198008"/>
    <path fill="#00AEC7" d="M86.9138158,107.459206 C87.5053489,104.720367 84.9531545,102.352895 82.2804556,103.160316 C77.249961,104.679653 69.2564957,107.178017 64.6356407,109.101064 C59.8014396,111.113529 53.5621106,119.263459 48.0746084,134.662677 C42.5867273,150.061894 38.1280607,149.854902 31.4358924,165.791766 C30.6954339,167.554623 30.116027,169.304162 29.6703877,171.020598 C26.3883453,183.66842 35.5512348,196.141211 48.552837,196.780071 L53.0266613,197 C53.0266613,197 62.6268534,185.82167 67.3492657,176.78251 C68.3223963,174.919963 72.8579888,167.375027 76.9092895,151.437782 C79.8896917,139.713434 84.6208198,118.07744 86.9138158,107.459206"/>
    <path fill="#7D3C2E" d="M112,92.3001063 L111.384966,98 L101,88 C104.801456,90.1655976 108.534268,91.9589154 112,92.3001063"/>
    <path fill="#B55743" d="M98.1108967,154 L114.405644,155.512612 C114.405644,155.512612 126.665417,160.040933 125.971626,162.239262 C125.277835,164.437591 114.166497,159.747163 114.166497,159.747163 C114.166497,159.747163 121.408395,167.876451 118.993667,168.463231 C116.579319,169.05001 107.899111,164.56583 107.899111,164.56583 C107.899111,164.56583 116.078905,169.022611 114.242017,170.629214 C112.405511,172.236578 104.169269,168.09754 104.169269,168.09754 C104.169269,168.09754 92.6299849,171.423383 89.8105764,169.013098 C86.9911679,166.602813 88.1773638,156.876816 88.6846438,156.916011 C89.1919237,156.955966 98.1108967,154 98.1108967,154"/>
    <path fill="#B55743" d="M53.6557997,198.074927 C61.5849848,194.001277 80.901013,182.46928 97,160.017938 L88.6845614,157 C88.6845614,157 50.5851401,173.835107 45.2867252,182.063615 C40.5209453,189.464928 41.6960946,193.90496 44.0624096,196.493814 C46.4991217,199.160478 50.4581272,199.718362 53.6557997,198.074927"/>
    <path stroke="#FEFDFB" stroke-linecap="round" stroke-linejoin="round" stroke-width="4.695" d="M118.107791,82.4037942 C116.255604,84.4530044 115.491934,87.4146475 116.352872,90.264495 C117.647064,94.5466064 122.119563,96.9541648 126.34295,95.6419778 C130.566337,94.3301671 132.940878,89.7954804 131.647058,85.513369 C130.786491,82.66578 128.519984,80.6470596 125.856236,80"/>
    <path fill="#B55743" d="M125.983732,58.7184746 C125.983732,58.7184746 128.499372,71.49338 127.910752,73.873702 C127.322132,76.2536414 125.001804,91.7999764 116.681316,94.4650187 C108.360827,97.1304437 100.634331,89.2501234 97.8888456,83.7593097 C95.142977,78.268496 91,66.1659742 91,66.1659742 L105.311056,44.6730436 L112.205657,41 L125.983732,58.7184746 Z"/>
    <path fill="#7D3C2E" d="M108.884528 63.1872751C108.884528 63.1872751 109.669684 61.7579966 107.145269 61.1398337 104.621246 60.5213134 101.580972 62.1124577 100.48732 62.8360299 99.5669277 63.4452598 100.034572 64.3378442 101.185846 63.8686836 105.248429 62.2135791 108.347502 64.5454469 108.884528 63.1872751M118.058174 64.4707703C118.058174 64.4707703 117.497504 62.5630744 119.857335 62.0922969 122.217523 61.6215195 123.520499 63.052519 124.436917 64.1047112 125.208242 64.9907199 125.230095 66.5441944 124.234144 65.8075233 120.719298 63.2068648 118.401025 66.2582677 118.058174 64.4707703"/>
    <path fill="#312554" d="M105.000442 71.022547C105.023872 72.6793607 105.937629 74.0123533 107.041861 73.9999136 108.146094 73.9874739 109.022971 72.6342668 108.999541 70.977453 108.976545 69.321028 108.062788 67.9876466 106.958122 68.0000863 105.85389 68.012526 104.977447 69.3657332 105.000442 71.022547M119.000442 71.0223538C119.023438 72.6790617 119.937629 74.0119691 121.041861 73.9999189 122.146094 73.98748 123.022971 72.6343594 122.999541 70.9776515 122.976545 69.3209436 122.062354 67.9876474 120.958122 68.0000863 119.85389 68.0125252 118.977447 69.3656459 119.000442 71.0223538"/>
    <path stroke="#7D3C2E" stroke-linecap="round" stroke-linejoin="round" stroke-width="3.13" d="M116,70 C116.116437,70.1051023 116.976681,73.8740948 118.791014,74.9891591 C120.531662,76.059018 120.669648,78.5042485 117.348932,79"/>
    <path fill="#FFF" d="M102.342565 72.4108048C101.289578 75.2197836 102.745561 78.4323512 105.593611 79.5860523 108.442383 80.7401288 111.604596 79.3983365 112.657584 76.5893578 113.71021 73.7803791 112.254588 70.5678114 109.406177 69.4137349 106.557766 68.2600338 103.395192 69.6018261 102.342565 72.4108048M120.342421 71.4106422C119.28978 74.2196209 120.745421 77.4321886 123.59387 78.5862651 126.442319 79.7399662 129.604935 78.3981739 130.657575 75.5891952 131.710216 72.7802164 130.254575 69.5676488 127.406487 68.4139477 124.557677 67.2598712 121.395422 68.6016635 120.342421 71.4106422"/>
    <path stroke="#312554" stroke-linecap="round" stroke-linejoin="round" stroke-width="1.565" d="M120,72.1498166 C120,72.1498166 117.7069,69.0654764 114,73"/>
    <path fill="#EDA24C" d="M113,45.9062844 C113,45.9062844 108.72691,55.9108029 100.627607,60.3141497 C92.5279256,64.7171191 89.6407946,67.9132061 89.6407946,67.9132061 L79,73 C79,73 81.0277534,59.5835293 82.3914251,56.0870425 C83.7550968,52.5909331 84.4818847,32.6513351 108.266435,35.2292629 L113,45.9062844 Z"/>
    <path fill="#EDA24C" d="M126.212032,66 C126.212032,66 131.226692,59.5204419 131.958861,53.7167733 C132.69103,47.9127242 123.50063,39.3392785 116.309078,36.6813886 C109.117525,34.0234987 107.166206,35.312484 107.166206,35.312484 L103.001782,42.5676405 C103.001782,42.5676405 102.623438,40.114877 112.891534,51.1947463 C116.682141,55.2854764 122.525536,51.6392502 126.212032,66"/>
    <line x1="104" x2="90" y1="69" y2="65" stroke="#312554" stroke-linecap="round" stroke-linejoin="round" stroke-width="1.565"/>
    <path fill="#B55743" d="M95.8657674,68.8751776 C95.8657674,68.8751776 94.6133574,62.5107962 88.6679888,64.325538 C82.7229693,66.1402797 87.7490194,76.280046 93.6476016,76.9621723 C99.5461838,77.6442986 95.8657674,68.8751776 95.8657674,68.8751776"/>
    <path fill="#FEFDFB" d="M119.969903,82.9087802 C120.193955,82.8020406 119.262029,90.2290332 113.934712,88.8227564 C108.607394,87.4168528 109.006791,82 109.006791,82 C109.006791,82 114.605243,85.460456 119.969903,82.9087802"/>
    <path stroke="#FEFDFB" stroke-linecap="round" stroke-linejoin="round" stroke-width="4.695" d="M85.3850499,74 C82.7945946,74.9239105 80.7350769,77.1943634 80.1573574,80.1585126 C79.2896644,84.6119904 82.0976927,88.9459707 86.4291033,89.8381934 C90.7605138,90.730416 94.9749696,87.8430048 95.8426625,83.389527 C96.4196394,80.4272866 95.3711306,77.5184956 93.3301771,75.6397503"/>
    <path stroke="#312554" stroke-linecap="round" stroke-linejoin="round" stroke-width="1.565" d="M102.342565 72.4108048C101.289578 75.2197836 102.745561 78.4323512 105.593611 79.5860523 108.442383 80.7401288 111.604596 79.3983365 112.657584 76.5893578 113.71021 73.7803791 112.254588 70.5678114 109.406177 69.4137349 106.557766 68.2600338 103.395192 69.6018261 102.342565 72.4108048zM120.342565 71.4106422C119.289578 74.2196209 120.745561 77.4321886 123.593611 78.5862651 126.442383 79.7399662 129.604596 78.3981739 130.657584 75.5891952 131.71021 72.7802164 130.254588 69.5676488 127.406177 68.4139477 124.557766 67.2598712 121.395192 68.6016635 120.342565 71.4106422z"/>
    <path fill="#7D3C2E" d="M92.3593137,72.7268326 C93.2930967,73.4709555 94.3977158,72.572366 93.8575829,71.5003888 C93.0895473,69.9767086 91.977295,68.5755008 90.6131504,69.119746 C89.0919819,69.7262595 90.6782135,71.3878931 92.3593137,72.7268326"/>
    <path stroke="#312554" stroke-linecap="round" stroke-linejoin="round" stroke-width="1.565" d="M82 70C82 70 66.036519 75.2214986 70.9335409 86M134 70C134 70 141.826378 75.9789574 139.602094 86"/>
    <line x1="111" x2="107" y1="47" y2="37" stroke="#312554" stroke-linecap="round" stroke-linejoin="round" stroke-width="1.565"/>
    <path fill="#312554" d="M327.269503,60.1399223 C326.645409,59.8458116 316.799227,57.6365878 318.12214,51.2834196 C319.444677,44.9306284 321.72964,47.6628414 325.625906,41.5732417 C329.522172,35.4840189 332.523604,24.6633846 343.688569,30.8476277 C354.853533,37.0318708 357.011575,36.6427397 360.256335,35.1435292 C369.518979,30.8642185 377.392621,38.0955711 373.185059,45.9468186 C368.977873,53.7984431 375.69758,57.2448173 380.738017,58.9186088 C385.778079,60.5924004 374.574437,76.2805668 367.334652,77.2303936 C360.094867,78.1802203 363.437635,84.8425818 357.830181,86.5718019 C352.221977,88.301022 323.173091,84.9632426 324.933846,73.4367426 C326.694601,61.9102425 327.269503,60.1399223 327.269503,60.1399223"/>
    <path fill="#0033A0" d="M169.858717,98.1620674 L149,132.841649 L152.700801,199.312211 C152.795868,205.001428 157.217816,209.535434 162.590057,209.452021 C179.591169,221.403681 199.914708,217.682475 221.387384,208.53905 C227.023616,208.451447 231.417915,203.336598 230.968335,197.386097 L227.827331,128.566642 L202.093677,97 L169.858717,98.1620674 Z"/>
    <path fill="#0033A0" d="M192,111.611326 C192,111.611326 197.196638,96.2449037 205.151201,97.0290196 C221.008133,98.5918248 267.876211,113.769098 270.749869,118.639299 C273.623527,123.509111 250.788198,144 250.788198,144 L192,111.611326 Z"/>
    <path fill="#B55743" d="M342.239095,94.9868764 C338.88878,95.1319776 334.526791,94.0786643 332.286275,91.5868737 C328.955737,87.8837537 325.38331,78.9581293 326.090341,75.3708625 C328.372693,63.7946717 325.93897,51.1913771 336.483962,48.3645622 C349.858979,44.7788147 361.347566,48.3258179 360.991958,58.2284065 C360.635591,68.1309952 357.679676,84.730651 357.679676,84.730651 L349.186558,92.1950073 C347.257531,93.8906405 344.805933,94.8755815 342.239095,94.9868764"/>
    <path fill="#B55743" d="M334.225704,104.219611 C334.225704,104.219611 338.940459,103.440864 339.682579,98.6449693 C340.424323,93.8490741 338.235558,86.0055821 338.235558,86.0055821 L359.195373,76 C359.195373,76 359.669819,99.2972686 360.899167,100.83091 C362.129266,102.36493 365,104.335836 365,104.335836 L362.974772,123 L339.236706,122.052027 C339.236706,122.052027 328.977855,116.073816 329,115.518055 C329.021465,114.961916 334.225704,104.219611 334.225704,104.219611"/>
    <path stroke="#7D3C2E" stroke-linecap="round" stroke-linejoin="round" stroke-width="2.776" d="M338.783053,70 C338.783053,70 334.90733,74.8230276 336.303298,76.2661354 C337.2145,77.2085014 340,76.9741415 340,76.9741415"/>
    <path fill="#312554" d="M343.851817 60.3908132C343.851817 60.3908132 351.564178 60.4332515 352.983539 60.9495842 354.402899 61.4662891 355.651711 57.8370697 347.07305 58.0057061 341.181386 58.1211085 343.232117 60.6156617 343.851817 60.3908132M328.895718 63.9584498C328.895718 63.9584498 333.531865 62.3832914 334.563811 62.6824763 335.59541 62.9816611 335.069409 58.5164032 329.987837 60.5180407 326.49845 61.8927322 328.603149 64.3489921 328.895718 63.9584498"/>
    <path fill="#E3E829" d="M323,110.982912 C323,110.982912 317.47372,105.540138 298.080596,112.689283 C278.687471,119.838428 257.942372,129.857829 257.942372,129.857829 C257.942372,129.857829 251.372899,137.419843 257.866517,144.239608 C264.360519,151.059754 313.389828,146.518963 313.389828,146.518963 L323,110.982912 Z"/>
    <path fill="#FF8585" d="M273,112 C273,112 274.551623,181.902594 298.442362,183.95794 C322.333102,186.013285 288.618029,112.05683 288.618029,112.05683 L273,112 Z"/>
    <path fill="#E3E829" d="M311.204026,109.871195 L314.14665,146.94287 C317.996872,165.547758 315.596846,179.654267 312.028669,191.549632 C310.764366,195.76458 310.764366,195.76458 311.493989,200.191054 C322.057497,221.775585 356.535669,214.344739 386.691909,202.962594 C389.881511,203.090423 392.714786,200.919225 393.452704,197.785502 C397.440932,180.847342 395.962833,167.522646 394.281118,145.023906 C392.29134,121.036106 386.027895,108.28436 389.713339,101.938922 L367.41101,101.046019 C365.807347,100.600137 365.22478,103.505594 364.388448,104.95699 C361.577797,109.835433 354.433902,120.052656 344.661856,118.375656 C336.145441,116.914748 334.415462,110.147778 334.206944,105.807665 C334.119842,103.99865 332.37214,102.7584 330.668933,103.33097 L311.204026,109.871195 Z"/>
    <path fill="#312554" d="M336.727421,46.4968299 C336.727421,46.4968299 330.34615,50.2499893 330.710309,55.0933337 C331.07524,59.9370627 326.747765,60.8795826 328.362178,64.4816157 C329.977362,68.0840334 333.939135,64.6231283 333.647114,60.8845817 C333.35432,57.1456505 332.684638,53.5328501 336.973537,52.0727326 C341.262436,50.6122307 344.174166,45.0051798 342.53815,44.1461063 C340.901749,43.2870327 336.727421,46.4968299 336.727421,46.4968299"/>
    <path fill="#E3E829" d="M377,102.981055 C379.321189,96.7621518 410.459657,88.5117254 431.118696,81 C431.118696,81 440.678762,86.969855 439.961576,100.31137 C439.244389,113.653269 392.608099,135 392.608099,135 C374.180265,134.267055 378.629274,112.72807 377,102.981055"/>
    <path fill="#DE7B66" d="M171,97.7226224 C171,97.7226224 175.221461,95.9401206 175.228456,93.9925372 C175.235083,92.0449538 174.674357,84.0409628 174.674357,84.0409628 L199.877577,83 C199.877577,83 199.087112,93.5561146 199.837446,94.5329422 C200.587781,95.5093904 204,96.5708462 204,96.5708462 L200.341842,101.830688 C197.106346,106.482573 191.835226,109.16828 186.285032,108.991814 L186.284664,108.991814 C180.234492,108.799408 174.76051,105.240476 171.986333,99.6944937 L171,97.7226224 Z"/>
    <path fill="#C7614A" d="M175,84.4996513 C175,84.4996513 182.048825,97.5110251 199.857599,93.0797299 L200,83 L175,84.4996513 Z"/>
    <path fill="#DE7B66" d="M167.143052,69.3463809 C167.143052,69.3463809 168.627293,78.2600164 171.849746,81.9338543 C175.072582,85.6076922 179.570644,89.1766063 179.570644,89.1766063 C181.009548,90.2822551 188.327784,92.579673 192.989908,89.3240261 C195.738617,87.4041835 198.690579,84.8784905 200.51447,83.2580004 C201.823123,82.0951888 202.896634,80.698461 203.656236,79.136638 C205.016375,76.3394217 206.914805,71.4960029 206.999334,66.1208197 C207.131121,57.7077347 187.671152,42 187.671152,42 C187.671152,42 164.998721,47.3646532 167.143052,69.3463809"/>
    <path fill="#DE7B66" d="M202.036717,66.8307741 C202.036717,66.8307741 204.38408,61.7254531 209.264526,63.3023002 C214.14458,64.8791474 207.492347,78.7302958 204.498098,75.5185781 C201.503849,72.3068604 202.036717,66.8307741 202.036717,66.8307741"/>
    <path fill="#B55743" d="M357.420972,70.1254048 C357.420972,70.1254048 360.460846,65.2937941 364.79084,67.6453233 C369.12046,69.9964767 360.605602,83.0610709 358.315623,79.3364381 C356.025644,75.6118052 357.420972,70.1254048 357.420972,70.1254048"/>
    <path fill="#DE7B66" d="M169.721339,67.312398 C169.721339,67.312398 166.842821,62.3997777 162.340038,64.5399733 C157.837255,66.680169 165.920254,79.9767118 168.410162,76.3892405 C170.899691,72.8021414 169.721339,67.312398 169.721339,67.312398"/>
    <path fill="#21173D" d="M196.999868 67.1782862C196.987261 68.1927717 196.081321 69.0082301 194.976812 68.9999373 193.872303 68.99199 192.987526 68.1630559 193.000133 67.1485704 193.012741 66.1344304 193.909675 64.9917521 195.013734 65.0000449 196.118243 65.0079921 197.012476 66.1638007 196.999868 67.1782862M180.999461 67.1934475C180.973795 68.2075057 180.057932 69.0163337 178.953402 68.9997495 177.848873 68.9831652 176.974885 68.1477332 177.000551 67.133675 177.026217 66.1196168 177.922268 64.9835952 179.026347 65.0001794 180.130877 65.0167637 181.025127 66.1793892 180.999461 67.1934475"/>
    <path stroke="#AB503C" stroke-linecap="round" stroke-linejoin="round" stroke-width="2.983" d="M186.330643,69 L185.034564,73.6418619 C185.034564,73.6418619 184.459569,75.006803 188,75"/>
    <path fill="#413466" d="M191.10467 60.7447844C190.853603 60.2407031 191.071922 59.6196461 191.570291 59.4118232 192.391998 59.0689354 193.800908 58.7622256 195.829768 59.264699 197.86164 59.7679762 199.071428 60.6860955 199.726384 61.3626256 200.118229 61.7674181 200.085105 62.4459581 199.65336 62.8013072 199.33868 63.0605835 198.90016 63.0678191 198.582469 62.8129646 197.841313 62.2180362 196.433909 61.2303746 195.213958 61.1905787 194.064396 61.1531947 192.818849 61.3063486 192.09915 61.4156868 191.729137 61.4723658 191.367782 61.2733863 191.192374 60.920851L191.10467 60.7447844zM172.333253 63.5968491C171.891619 63.1842834 171.88914 62.4570041 172.324578 62.0369452 173.042596 61.3436056 174.376176 60.4439832 176.640949 60.1151648 178.909439 59.7863464 180.485526 60.2240363 181.404738 60.6454175 181.954613 60.897541 182.1682 61.6067485 181.854635 62.1506652 181.626588 62.5469222 181.17917 62.7368964 180.760257 62.6077492 179.782794 62.3058181 177.97866 61.8791476 176.712007 62.3454879 175.51889 62.7849409 174.296855 63.4597679 173.598254 63.8714521 173.239245 64.0830242 172.796371 64.0292496 172.487764 63.7409826L172.333253 63.5968491z"/>
    <path stroke="#AB503C" stroke-linecap="round" stroke-linejoin="round" stroke-width="2.983" d="M205.000208 71C204.993229 70.8217088 205.13864 63.6261372 209 63M168 72C167.985402 71.8335307 166.976564 65.1625058 163 65"/>
    <path fill="#413466" d="M161.000835,56.1960343 C161.456369,64.2526194 165.16411,71.1542436 166.95057,66.4891442 C167.01216,66.3278984 166.692197,60.3062808 173.88761,54.3572998 C178.540593,50.5102186 192.780451,48.669963 193.869152,41.5675422 C194.958228,34.4647411 188.890947,33.4075164 188.890947,33.4075164 C188.890947,33.4075164 187.853321,30.6507457 177.996431,31.0371272 C162.566851,31.6417989 160.957272,55.4297365 161.000835,56.1960343"/>
    <polyline stroke="#312554" stroke-linecap="round" stroke-linejoin="round" stroke-width="1.152" points="150 160 147.857 141.593 146 139"/>
    <path fill="#7D3C2E" d="M339,93.897868 C339,93.897868 339.445046,97.2014213 339.114741,99 C339.114741,99 349.416628,95.6241624 352,89 C352,89 346.427335,93.2724873 339,93.897868"/>
    <path fill="#E3E829" d="M430.666602,42 C430.666602,42 411.879646,99.6659824 426.687207,104.946954 C441.494384,110.228305 449.621079,94.2792168 449.964574,87.3515812 C450.307301,80.4239457 448.050376,44.330523 448.050376,44.330523 L430.666602,42 Z"/>
    <path stroke="#312554" stroke-linecap="round" stroke-linejoin="round" stroke-width="1.565" d="M299 136C299 136 303.307854 144.807733 305 157M338 121C338 121 342.896232 128.610952 356 122.835797"/>
    <path fill="#DE7B66" d="M229.283789,193.953259 C228.081732,193.836098 226.936425,193.36821 225.988414,192.641056 L221.229697,188.991302 C217.632283,186.075506 219.225886,179.618047 220.256548,176.262708 L229.918717,141.953439 C230.949379,138.5981 234.765798,137.079165 238.399776,138.577692 L245.007286,141.301873 C248.640883,142.8004 250.771146,146.771779 249.740103,150.127118 L237.448338,190.137968 C236.616876,192.844009 232.681622,194.283955 229.283789,193.953259"/>
    <path fill="#3C2970" d="M250.04318,88.5788134 C250.04318,88.5788134 247.811575,95.0120184 243.666464,97.5950592 C239.521354,100.177719 232.181653,111.706101 241.553108,115.77279 C250.924941,119.839478 279.508145,127.479957 285.145903,115.762497 C290.783661,104.045037 293.054178,87.9658367 292.999021,86.2683337 C292.943863,84.5712118 286.786266,73.3085286 286.786266,73.3085286 L254.390408,63 L250.04318,88.5788134 Z"/>
    <path fill="#DE7B66" d="M254.331489,115.482783 C254.331489,115.482783 262.46719,116.993373 264.194025,112.253703 C265.920859,107.514034 262.475236,102.050312 262.475236,102.050312 L278.254298,96 C278.254298,96 275.685693,112.705858 280.795315,114.0627 C285.905321,115.419542 291,117.638659 291,117.638659 L277.137813,138 L246,130.814758 L254.331489,115.482783 Z"/>
    <path fill="#8189A9" d="M257.253583,115.886867 C258.045059,115.531696 258.961603,115.805227 259.466399,116.517094 C260.798458,118.396712 264.098469,121.631776 270.881197,121.254098 C280.377017,120.726111 292.679352,114.743531 292.679352,114.743531 L293.465554,114 L302,181.495727 L299.207422,202.570951 C298.861222,205.184181 296.373029,207.00276 293.649767,206.632712 C273.054458,210.07302 246.685261,219.954463 238.336534,199.116146 C236.716666,197.966325 236.890331,195.49997 237.216188,193.236188 L244.831076,140.321903 L254.715287,117.026006 L257.253583,115.886867 Z"/>
    <path fill="#8189A9" d="M254.183005,117.145511 C254.183005,117.145511 231.010382,113.027667 225.203607,148.603373 C225.203607,148.603373 221.072955,156.168442 222.192417,157.36981 C223.311495,158.571179 244.148517,161 244.148517,161 C244.148517,161 254.382498,133.605168 254.878928,131.985324 C255.375742,130.365858 254.183005,117.145511 254.183005,117.145511"/>
    <path fill="#DE7B66" d="M205 159.114296C205 159.114296 215.048484 187.324082 224.317393 191.586205 233.586687 195.847943 237.185548 189.243964 237.983546 187.896347 238.781928 186.5495 210.260494 147 210.260494 147L205 159.114296zM261.292695 58.4390014C261.292695 58.4390014 252.017789 64.8822971 252.300883 75.1463129 252.583591 85.4103286 251.203652 85.7112861 251.049939 87.6948008 250.527007 94.4466348 254.165906 102.628965 259.384416 104.547284 264.60254 106.464846 277.295431 101.670373 277.295431 101.670373 277.295431 101.670373 283.176296 93.7571616 282.995935 86.9856176 282.799738 79.5996502 281.958566 77.7628238 281.958566 77.7628238 281.958566 77.7628238 279.023348 56.6101349 273.945033 57.0054733 268.866332 57.4008117 261.292695 58.4390014 261.292695 58.4390014"/>
    <path stroke="#AB503C" stroke-linecap="round" stroke-linejoin="round" stroke-width="3.13" d="M261.046796,83 C260.548057,85.3218959 260.139212,86.7565325 258.911548,88.1126471 C257.798978,89.342444 257.319422,91.7606904 259.762714,91.9530121 C261.996129,92.1290225 263,91.7538624 263,91.7538624"/>
    <path fill="#21173D" d="M271.99276 83.5033224C271.912612 84.6434911 271.093979 85.0528395 269.992897 84.994626 268.891815 84.9367833 267.924886 84.4336259 268.004606 83.293828 268.085183 82.1536593 269.282272 80.9441535 270.383355 81.0019962 271.484437 81.0598389 272.072909 82.3631537 271.99276 83.5033224M258.970344 83.4868509C258.779103 84.7059306 258.300373 85.097749 257.487075 84.9800834 256.674611 84.8624178 255.836314 84.2796929 256.027555 83.0606132 256.218797 81.8415336 256.767523 80.8922043 257.579988 81.0098699 258.392869 81.1275355 259.162003 82.2677712 258.970344 83.4868509M266.011647 77.6324603C266.093211 78.3621674 266.580726 78.8611079 267.09705 78.7351873 268.373268 78.4232836 270.66193 78.0339309 272.051515 78.7973573 274.057322 79.9000843 272.706274 76.1488104 269.644996 76.0213092 268.327622 75.9665153 267.430789 76.0255241 266.843003 76.1061344 266.305727 76.1798954 265.927838 76.8822055 266.011647 77.6324603M259.991075 77.7101575C259.930853 78.4533085 259.581992 78.955149 259.213176 78.8179437 258.303431 78.4800022 256.670664 78.0459635 255.676821 78.8029952 254.241469 79.895833 255.216782 76.0893195 257.401881 76.0087047 258.342272 75.9740029 258.982622 76.0482113 259.402395 76.1400374 259.785108 76.2238554 260.053078 76.9456516 259.991075 77.7101575"/>
    <path fill="#432E7D" d="M276,55.6042652 C276,55.6042652 257.214241,65.5694171 254.012382,72.0012749 C250.810523,78.4331328 254.296237,82.1940728 249.988653,88 C249.988653,88 247.243045,78.8727381 247.013569,74.8336492 C246.783708,70.7949429 249.382375,50.8087797 261.862375,48.7178807 C274.341605,46.6269817 274.429924,49.7688779 274.429924,49.7688779 L276,55.6042652 Z"/>
    <path fill="#432E7D" d="M273.97309,54.672464 C273.97309,54.672464 268.266826,66.6161153 276.262458,74.658184 C284.258091,82.6998723 283.224839,86.7699808 283.224839,86.7699808 L301.884457,89 C301.884457,89 304.382739,57.0394342 286.145472,51.7702434 C267.908205,46.5014331 273.97309,54.672464 273.97309,54.672464"/>
    <path fill="#432E7D" d="M282,52.6260166 C282,52.6260166 284.038366,35.3510317 295.999207,42.9164727 C307.960807,50.4819136 289.38258,60.6042122 288.405317,60.9877223 C287.427676,61.3716027 282,52.6260166 282,52.6260166"/>
    <path fill="#C7614A" d="M264,104.933821 C264,104.933821 268.463773,105.055576 271,104 L264.624081,110 C264.624081,110 264.980749,107.108958 264,104.933821"/>
    <path fill="#FFF" d="M254.049464 132.768612C253.64568 135.778925 255.7583 138.546396 258.768612 138.950536 261.778925 139.35432 264.546753 137.2417 264.950536 134.231388 265.35432 131.221075 263.2417 128.453604 260.231388 128.049464 257.221075 127.64568 254.453604 129.7583 254.049464 132.768612M234.658566 134.950521C232.357855 134.646783 230.572539 133.009678 230 130.937894 231.465743 128.107304 233.100736 125.843047 234.80343 124.033859 235.242024 123.987708 235.69081 123.985919 236.14724 124.046023 239.210851 124.449933 241.360874 127.218631 240.949578 130.229889 240.538646 133.241148 237.721813 135.354431 234.658566 134.950521M263.049465 150.76842C262.645671 153.778789 264.758344 156.54667 267.768732 156.950461 270.77912 157.354609 273.547018 155.241592 273.950454 152.23158 274.354605 149.221211 272.241932 146.45333 269.231544 146.049539 266.221156 145.645391 263.453616 147.758408 263.049465 150.76842M240.049539 147.76842C239.645391 150.778789 241.758407 153.54667 244.768417 153.950461 247.778785 154.354609 250.547021 152.241592 250.950454 149.23158 251.354602 146.221211 249.241944 143.45333 246.231576 143.049539 243.221209 142.645391 240.453687 144.758408 240.049539 147.76842M272.766201 126.949165C269.992697 126.566898 267.98647 124.124068 268 121.325068 268.902621 121.43791 269.889272 121.476872 270.971476 121.415857 273.490175 121.273977 276.21644 120.721896 278.838564 120 278.998175 120.667864 279.046488 121.375792 278.951652 122.099158 278.547615 125.192944 275.778047 127.364145 272.766201 126.949165M269.049464 172.768424C268.64568 175.778792 270.7583 178.546313 273.768612 178.950461 276.778925 179.354609 279.546753 177.241594 279.950536 174.231226 280.35432 171.221215 278.2417 168.453336 275.231388 168.049546 272.221075 167.645398 269.453604 169.758056 269.049464 172.768424M245.049464 168.768456C244.64568 171.778844 246.7583 174.546384 249.768612 174.950535 252.778925 175.354329 255.546753 173.241656 255.950536 170.231268 256.35432 167.221237 254.2417 164.453339 251.231388 164.049546 248.221075 163.645395 245.453604 165.758068 245.049464 168.768456M263 211C263.508361 207.827763 266.375725 205.623116 269.496137 206.053717 271.546197 206.336384 273.197047 207.689147 274 209.488431 270.259433 210.185391 266.553991 210.750337 263 211M245.833115 203.050891C249.094848 203.465949 251.383912 206.308182 250.946405 209.399818 250.917342 209.604409 250.875877 209.804225 250.825112 210 247.011168 209.063731 243.661468 207.338483 241 204.498453 242.258269 203.398732 244.004034 202.818017 245.833115 203.050891M253.049539 191.768612C252.645391 194.778925 254.758408 197.546396 257.76842 197.950536 260.77879 198.35432 263.54667 196.2417 263.950461 193.231388 264.35461 190.221075 262.241593 187.453604 259.231223 187.049464 256.221211 186.64568 253.45333 188.7583 253.049539 191.768612M300 192L298.616522 201.594681C298.543874 202.098156 298.378441 202.568555 298.142728 203 295.434601 202.157691 293.660638 199.623781 294.054677 196.892523 294.460955 194.074903 297.033261 192.029767 300 192M235.867896 192.495759L236.22786 191.394372 237.502569 183C237.510768 183.003747 237.519357 183.006745 237.527947 183.010493 239.848582 184.045549 241.304054 186.440568 240.946043 189.003475 240.541181 191.89766 237.963651 194.000375 235.002733 194L235 194C235.388074 193.549552 235.687914 193.047763 235.867896 192.495759"/>
    <path fill="#DE7B66" d="M275.46276,202.99863 C275.46276,202.99863 253.239709,186.735126 240,154.863071 L248.735287,154 C248.735287,154 281.528932,178.567869 284.701114,187.461465 C290.407565,203.459815 275.46276,202.99863 275.46276,202.99863"/>
    <path fill="#DE7B66" d="M254,159.9264 L243.843065,139.202665 C243.843065,139.202665 238.180837,133.671257 230.586015,140.139546 C222.99081,146.607835 223,145.35409 223,145.35409 L225.389417,148.997643 L233.411959,145.292393 C233.411959,145.292393 231.274504,156.46908 236.639969,158.776626 C242.005435,161.084934 243.567363,159.70132 243.567363,159.70132 C243.567363,159.70132 247.164124,164.320602 248.727967,165.802854 C250.291809,167.284726 254,159.9264 254,159.9264"/>
    <path fill="#312554" d="M227.965385,156.957901 L216.832216,155.419583 C214.431967,155.087901 211.740387,152.879738 210.850474,150.512978 L202.288946,127.742442 C201.399033,125.375682 202.634695,123.71041 205.034573,124.042091 L216.167742,125.580791 C218.567991,125.912473 221.259941,128.120254 222.149854,130.487014 L230.711012,153.257551 C231.600925,155.624692 230.365633,157.289583 227.965385,156.957901"/>
    <path stroke="#312554" stroke-linecap="round" stroke-linejoin="round" stroke-width="1.565" d="M202,122.974982 C202.173649,121.607624 203.363715,120.800537 205.191539,121.042702 L216.980087,122.606505 C219.521716,122.943598 222.372229,125.187399 223.31456,127.59316 L227,137"/>
    <path fill="#DE7B66" d="M203.499699,137.119657 L205.104323,135.111205 C205.722466,134.337615 206.697363,133.92372 207.695041,134.011654 L214.369518,134.599521 C215.079166,134.66206 215.538237,135.364393 215.299628,136.023138 C215.163336,136.401026 214.823569,136.672029 214.419325,136.726229 L207.515891,137.648776 L206.768019,141.059241 L211.671078,140.308772 L215.912752,141.520514 C216.62935,141.725187 217.085718,142.413496 216.986491,143.139329 L216.946336,143.432694 L215.95252,148.557109 C215.698081,149.869672 214.391912,150.717929 213.06219,150.435556 L208.95372,149.561904 L208.201987,155.061174 L204.629036,159 L201.362646,149.298102 C200.824812,147.263118 200.886201,145.120112 201.540251,143.118482 L203.499699,137.119657 Z"/>
    <path fill="#FFF" d="M252.501603,116.388599 L252.947427,116.35713 L253.831197,116 C253.997709,116.673644 254.047484,117.389734 253.951516,118.120826 C253.54723,121.200707 250.775959,123.362515 247.761902,122.9494 C245.121693,122.586782 243.171168,120.369355 243,117.754182 C248.225631,115.603351 252.501603,116.388599 252.501603,116.388599"/>
    <path fill="#DE7B66" d="M272.549363,201.971002 L267.216819,196.40904 C264.388243,192.572156 267.102116,196.980394 269.179006,193.121476 L293.946065,147.103184 C296.022954,143.244267 300.417609,141.85805 303.71188,144.022281 L309.701672,147.957176 C312.995943,150.121406 313.992329,155.049333 311.915058,158.90863 C306.23917,175.315677 299.243815,188.74515 287.987243,202.842088 C285.856443,205.996691 275.13821,205.681002 272.549363,201.971002"/>
    <path fill="#8189A9" d="M292.510142,114 C292.510142,114 300.208354,119.670815 304.92686,122.316292 C309.645751,124.962146 314.251693,134.335574 313.989298,143.183447 C313.726903,152.031695 314.395377,171.648583 309.805955,173.273064 C305.216149,174.897546 290.705261,174.015469 285.058574,168.412043 C279.412655,162.808616 277,158.746471 277,158.746471 L292.510142,114 Z"/>
    <path fill="#FFF" d="M300.049546 138.768612C299.645395 141.778925 301.758068 144.546396 304.768456 144.950536 307.778844 145.35432 310.546742 143.2417 310.950535 140.231388 311.354329 137.221433 309.241656 134.453604 306.231268 134.049464 303.221237 133.64568 300.453339 135.7583 300.049546 138.768612M278.049464 135.768612C277.64568 138.778925 279.7583 141.546396 282.768612 141.950536 285.778925 142.35432 288.546753 140.2417 288.950536 137.231388 289.35432 134.221075 287.2417 131.453604 284.231388 131.049464 281.221075 130.64568 278.453604 132.7583 278.049464 135.768612M313.484667 163C311.159079 161.943889 309.695997 159.465733 310.053631 156.811559 310.362056 154.518686 311.948353 152.713724 314 152 313.938005 155.655087 313.812853 159.542162 313.484667 163M286.049464 154.768417C285.64568 157.778785 287.7583 160.546664 290.768612 160.950454 293.778925 161.354602 296.546753 159.241944 296.950536 156.231576 297.35432 153.221209 295.2417 150.45333 292.231388 150.049539 289.221075 149.645391 286.453604 151.758407 286.049464 154.768417M291.049464 123.768612C290.64568 126.778925 292.7583 129.546396 295.768612 129.950536 298.778925 130.35432 301.546753 128.2417 301.950536 125.231388 302.35432 122.221075 300.2417 119.453604 297.231388 119.049464 294.221075 118.64568 291.453604 120.7583 291.049464 123.768612M303 175C299.843505 174.887051 296.255195 174.345313 293 173.27355 294.263446 171.661722 296.228978 170.755619 298.304777 171.057653 300.483903 171.374748 302.221575 172.940977 303 175"/>
    <path fill="#432E7D" d="M282.219204,87.3595443 C282.219204,87.3595443 277.793279,102.177139 272.613893,114.105522 C270.330644,119.363034 274.590134,124.077532 282.505594,123.999033 C286.428463,123.960546 290.525265,122.122303 292.055052,121.128113 C296.186341,118.44315 297.818839,111.580986 300.502808,99.7090005 C302.406327,91.2909606 301.952751,87.4849137 301.952751,87.4849137 C295.255573,82.1904388 288.487547,73.7510594 282.219204,87.3595443"/>
    <path fill="#DE7B66" d="M278.562601,84.0689886 C278.562601,84.0689886 281.141613,78.6657304 286.495363,82.1981174 C290.842525,85.0656176 284.994679,92.8184233 278.81388,91.9294527 C272.632713,91.0401314 278.562601,84.0689886 278.562601,84.0689886"/>
    <path fill="#C7614A" d="M281.329932,88.8414956 C280.358724,89.4426403 279.570516,88.2138468 280.262322,87.1659728 C281.245294,85.6767472 282.506361,84.3991707 283.594232,85.2995434 C284.807588,86.304012 283.077583,87.7594352 281.329932,88.8414956"/>
    <line x1="283" x2="288" y1="165" y2="149" stroke="#312554" stroke-linecap="round" stroke-linejoin="round" stroke-width="1.565"/>
    <path stroke="#312554" stroke-linecap="round" stroke-linejoin="round" stroke-width="1.565" d="M305.876424,174 C305.876424,174 309.191236,173.95208 310.096025,173.306682 C311.000439,172.660903 312.497064,171.864899 313.153289,166.310745 C313.809887,160.756971 315.036611,138.301135 312.280319,131.072444 C310.467748,126.318478 306.749019,122.861393 304.160433,121.115737 C299.022942,117.651807 294,114 294,114"/>
    <polygon fill="#C7614A" points="277 177.571 282 182 280.31 171"/>
    <path stroke="#312554" stroke-linecap="round" stroke-linejoin="round" stroke-width="1.565" d="M273,127 C273,127 263.647092,126.895459 259.457284,122.814329 C255.267475,118.733199 255,117 255,117"/>
    <path fill="#FFF" d="M279.069012,92.4812679 C278.782405,93.5475828 279.414618,94.6444021 280.481268,94.9310099 C281.547918,95.2176176 282.644402,94.5850693 282.93101,93.5187544 C283.217618,92.4524395 282.585069,91.3556202 281.518754,91.0690125 C280.45244,90.7824047 279.355285,91.4146178 279.069012,92.4812679"/>
    <path stroke="#312554" stroke-linecap="round" stroke-linejoin="round" stroke-width="1.565" d="M239.726539,160 L236,194.618394 C242.209883,214.817152 262.975726,210.643027 262.975726,210.643027 L275,209.0006"/>
    <polygon fill="#C7614A" points="223 165.523 230 173 224.906 159"/>
    <path stroke="#312554" stroke-linecap="round" stroke-linejoin="round" stroke-width="1.565" d="M254 116.199911C254 116.199911 236.224279 112.595154 228 136M302 181C302 181 299.265799 202.352377 299 203"/>
    <path stroke="#A34C39" stroke-linecap="round" stroke-linejoin="round" stroke-width="3.13" d="M278.01639,85 C277.822199,84.4552557 279.365752,81.6137912 282,81"/>
    <path fill="#FFF" d="M213.179573,130.173305 L218.312249,130.990516 C218.80787,131.069446 219.102541,130.646886 218.967026,130.052075 C218.831933,129.456828 218.316048,128.905625 217.820427,128.826695 L212.687751,128.009484 C212.19213,127.930554 211.897459,128.353114 212.032974,128.947925 C212.168067,129.543172 212.683952,130.094375 213.179573,130.173305"/>
    <path stroke="#312554" stroke-linecap="round" stroke-linejoin="round" stroke-width="1.565" d="M273,56 C273,56 274.611287,52.0103609 278,51"/>
    <path fill="#FEFDFB" d="M257,95 L266,95.01814 C266,95.01814 264.474583,100.013301 261.548218,100 C257.341266,99.9814632 257,95 257,95"/>
    <path fill="#7D3C2E" d="M361.661442,74.7199996 C360.730437,75.4707168 359.606128,74.5899756 360.136248,73.5172779 C360.890059,71.9932602 361.991669,70.5869484 363.372617,71.1121768 C364.912821,71.697969 363.336739,73.369119 361.661442,74.7199996"/>
    <path fill="#312554" d="M349.977614 67.6454672C349.836134 69.0238282 349.060056 70.0760346 348.243824 69.9956883 347.427591 69.915342 346.880809 68.7328939 347.02229 67.3545328 347.164145 65.9761718 347.940223 64.9239654 348.756455 65.0043117 349.572313 65.084658 350.11947 66.2671061 349.977614 67.6454672M333.977601 68.6454672C333.836109 70.0238282 333.059965 71.0760346 332.243662 70.9956883 331.42736 70.915342 330.880531 69.7328939 331.022399 68.3545328 331.163891 66.9761718 331.940035 65.9239654 332.756338 66.0043117 333.57264 66.084658 334.119469 67.2671061 333.977601 68.6454672"/>
    <path fill="#FEFDFB" d="M346.969931 79.4400471C347.265031 79.2997141 345.450034 88.2231078 338.766469 86.8578733 332.082521 85.49225 333.048579 79 333.048579 79 333.048579 79 339.905148 82.8029868 346.969931 79.4400471M194.972653 77.0009964C195.242082 76.9033116 193.577557 84.0207083 187.438144 84 182.151925 83.9820637 181 77.3262548 181 77.3262548 181 77.3262548 187.454508 79.7293736 194.972653 77.0009964"/>
    <path fill="#B55743" d="M234.498482,108.024324 L225.885036,97.2519497 C221.128048,93.5127754 217.81347,89.9648671 213.547574,93.3799518 C211.645325,94.9028693 210.888177,97.7202478 211.013196,99.2055952 L211.326135,103.880986 L215.542805,116.555394 C215.542805,116.555394 217.607579,116.168308 217.121175,112.073926 C216.909424,110.289156 215.765496,109.564319 216.235491,108.376117 C217.050071,108.715766 217.903719,109.10361 218.717517,109.630351 L229.852449,121.529449 C230.609207,122.58255 232.425895,121.684663 231.669528,120.631561 L225.372066,111.372997 L233.603812,121.268355 C234.469181,122.239865 236.910966,122.181043 235.641238,119.556449 L233.094749,115.387685 L233.76204,116.00133 C234.67937,116.926162 236.076852,115.618419 235.159523,114.693207 L230.287282,107.253947 L233.342444,110.061838 C234.260164,110.987429 235.892449,110.02275 234.498482,108.024324"/>
    <polyline stroke="#312554" stroke-linecap="round" stroke-linejoin="round" stroke-width="1.152" points="63 168 73 149.285 72.664 143"/>
    <line x1="422" x2="429" y1="84.115" y2="84.885" stroke="#312554" stroke-linecap="round" stroke-linejoin="round" stroke-width="1.565"/>
    <path fill="#413466" d="M187,32.8659086 C187,32.8659086 192.539403,30.8211714 198.263859,33.0159001 C205.034283,35.6113414 212.313413,45.5173983 209.299639,64.0873031 C209.299639,64.0873031 204.218299,68.5745491 202.589757,57.6497998 C201.793192,52.3052494 192.202043,51.1887685 190.924569,47.1187783 C189.876316,43.7777909 187,32.8659086 187,32.8659086"/>
    <line x1="83" x2="87" y1="206" y2="202" stroke="#312554" stroke-linecap="round" stroke-linejoin="round" stroke-width="1.152"/>
    <line x1="101" x2="105" y1="208" y2="204" stroke="#312554" stroke-linecap="round" stroke-linejoin="round" stroke-width="1.152"/>
    <line x1="120" x2="124" y1="207" y2="203" stroke="#312554" stroke-linecap="round" stroke-linejoin="round" stroke-width="1.152"/>
    <line x1="136" x2="140" y1="206" y2="202" stroke="#312554" stroke-linecap="round" stroke-linejoin="round" stroke-width="1.152"/>
    <line x1="85" x2="89" y1="185" y2="181" stroke="#312554" stroke-linecap="round" stroke-linejoin="round" stroke-width="1.152"/>
    <line x1="105" x2="109" y1="187" y2="183" stroke="#312554" stroke-linecap="round" stroke-linejoin="round" stroke-width="1.152"/>
    <line x1="123" x2="127" y1="186" y2="182" stroke="#312554" stroke-linecap="round" stroke-linejoin="round" stroke-width="1.152"/>
    <line x1="139" x2="143" y1="185" y2="181" stroke="#312554" stroke-linecap="round" stroke-linejoin="round" stroke-width="1.152"/>
    <line x1="83" x2="87" y1="144" y2="140" stroke="#312554" stroke-linecap="round" stroke-linejoin="round" stroke-width="1.152"/>
    <line x1="61" x2="65" y1="146" y2="142" stroke="#312554" stroke-linecap="round" stroke-linejoin="round" stroke-width="1.152"/>
    <line x1="35" x2="39" y1="181" y2="177" stroke="#312554" stroke-linecap="round" stroke-linejoin="round" stroke-width="1.152"/>
    <line x1="53" x2="57" y1="167" y2="163" stroke="#312554" stroke-linecap="round" stroke-linejoin="round" stroke-width="1.152"/>
    <line x1="48" x2="52" y1="146" y2="142" stroke="#312554" stroke-linecap="round" stroke-linejoin="round" stroke-width="1.152"/>
    <line x1="38" x2="42" y1="162" y2="158" stroke="#312554" stroke-linecap="round" stroke-linejoin="round" stroke-width="1.152"/>
    <line x1="100" x2="104" y1="145" y2="141" stroke="#312554" stroke-linecap="round" stroke-linejoin="round" stroke-width="1.152"/>
    <line x1="119" x2="123" y1="144" y2="140" stroke="#312554" stroke-linecap="round" stroke-linejoin="round" stroke-width="1.152"/>
    <line x1="80" x2="84" y1="122" y2="118" stroke="#312554" stroke-linecap="round" stroke-linejoin="round" stroke-width="1.152"/>
    <line x1="61" x2="65" y1="124" y2="120" stroke="#312554" stroke-linecap="round" stroke-linejoin="round" stroke-width="1.152"/>
    <line x1="124" x2="128" y1="124" y2="120" stroke="#312554" stroke-linecap="round" stroke-linejoin="round" stroke-width="1.152"/>
    <line x1="136" x2="140" y1="109" y2="105" stroke="#312554" stroke-linecap="round" stroke-linejoin="round" stroke-width="1.152"/>
    <line x1="135" x2="139" y1="144" y2="140" stroke="#312554" stroke-linecap="round" stroke-linejoin="round" stroke-width="1.152"/>
    <line x1="123" x2="127" y1="167" y2="163" stroke="#312554" stroke-linecap="round" stroke-linejoin="round" stroke-width="1.152"/>
    <line x1="74" x2="78" y1="161" y2="157" stroke="#312554" stroke-linecap="round" stroke-linejoin="round" stroke-width="1.152"/>
    <line x1="134" x2="138" y1="167" y2="163" stroke="#312554" stroke-linecap="round" stroke-linejoin="round" stroke-width="1.152"/>
    <line x1="77" x2="81" y1="190" y2="194" stroke="#312554" stroke-linecap="round" stroke-linejoin="round" stroke-width="1.152"/>
    <line x1="92" x2="96" y1="192" y2="196" stroke="#312554" stroke-linecap="round" stroke-linejoin="round" stroke-width="1.152"/>
    <line x1="110" x2="114" y1="194" y2="198" stroke="#312554" stroke-linecap="round" stroke-linejoin="round" stroke-width="1.152"/>
    <line x1="127" x2="131" y1="195" y2="199" stroke="#312554" stroke-linecap="round" stroke-linejoin="round" stroke-width="1.152"/>
    <line x1="142" x2="146" y1="194" y2="198" stroke="#312554" stroke-linecap="round" stroke-linejoin="round" stroke-width="1.152"/>
    <line x1="77" x2="81" y1="147" y2="151" stroke="#312554" stroke-linecap="round" stroke-linejoin="round" stroke-width="1.152"/>
    <line x1="92" x2="96" y1="149" y2="153" stroke="#312554" stroke-linecap="round" stroke-linejoin="round" stroke-width="1.152"/>
    <line x1="110" x2="114" y1="150" y2="154" stroke="#312554" stroke-linecap="round" stroke-linejoin="round" stroke-width="1.152"/>
    <line x1="127" x2="131" y1="152" y2="156" stroke="#312554" stroke-linecap="round" stroke-linejoin="round" stroke-width="1.152"/>
    <line x1="140" x2="144" y1="150" y2="154" stroke="#312554" stroke-linecap="round" stroke-linejoin="round" stroke-width="1.152"/>
    <line x1="72" x2="76" y1="131" y2="135" stroke="#312554" stroke-linecap="round" stroke-linejoin="round" stroke-width="1.152"/>
    <line x1="70" x2="74" y1="110" y2="114" stroke="#312554" stroke-linecap="round" stroke-linejoin="round" stroke-width="1.152"/>
    <line x1="56" x2="60" y1="132" y2="136" stroke="#312554" stroke-linecap="round" stroke-linejoin="round" stroke-width="1.152"/>
    <line x1="50" x2="54" y1="153" y2="157" stroke="#312554" stroke-linecap="round" stroke-linejoin="round" stroke-width="1.152"/>
    <line x1="41" x2="45" y1="167" y2="171" stroke="#312554" stroke-linecap="round" stroke-linejoin="round" stroke-width="1.152"/>
    <line x1="90" x2="94" y1="129" y2="133" stroke="#312554" stroke-linecap="round" stroke-linejoin="round" stroke-width="1.152"/>
    <line x1="123" x2="127" y1="130" y2="134" stroke="#312554" stroke-linecap="round" stroke-linejoin="round" stroke-width="1.152"/>
    <line x1="110" x2="114" y1="135" y2="139" stroke="#312554" stroke-linecap="round" stroke-linejoin="round" stroke-width="1.152"/>
    <line x1="122" x2="126" y1="107" y2="111" stroke="#312554" stroke-linecap="round" stroke-linejoin="round" stroke-width="1.152"/>
    <line x1="135" x2="139" y1="128" y2="132" stroke="#312554" stroke-linecap="round" stroke-linejoin="round" stroke-width="1.152"/>
    <line x1="140" x2="144" y1="172" y2="176" stroke="#312554" stroke-linecap="round" stroke-linejoin="round" stroke-width="1.152"/>
    <line x1="92" x2="96" y1="172" y2="176" stroke="#312554" stroke-linecap="round" stroke-linejoin="round" stroke-width="1.152"/>
    <line x1="110" x2="114" y1="173" y2="177" stroke="#312554" stroke-linecap="round" stroke-linejoin="round" stroke-width="1.152"/>
    <line x1="127" x2="131" y1="175" y2="179" stroke="#312554" stroke-linecap="round" stroke-linejoin="round" stroke-width="1.152"/>
    <path stroke="#FEFDFB" stroke-linecap="round" stroke-linejoin="round" stroke-width="4.695" d="M172,108.115674 C172,108.115674 188.020226,123.236571 205,105"/>
    <path fill="#FFF" d="M318,150.321558 C318,150.321558 349.401536,164.98341 382.522971,146 C382.522971,146 385.71696,160.137502 386,164.26873 C386,164.26873 353.250127,182.869222 318.060407,165.772944 C318.060407,165.772944 319.491186,154.016079 318,150.321558"/>
    <polygon fill="#FFF" points="431 43.054 431.132 40 447 41.527 446.61 45"/>
  </g>
</svg>
