<svg xmlns="http://www.w3.org/2000/svg" xmlns:xlink="http://www.w3.org/1999/xlink" width="36" height="33" viewBox="0 0 36 33">
  <defs>
    <polygon id="accidente-a" points=".034 .033 25.92 .033 25.92 27.092 .034 27.092"/>
    <polygon id="accidente-c" points="0 .065 35.76 .065 35.76 1.309 0 1.309"/>
  </defs>
  <g fill="none" fill-rule="evenodd">
    <g transform="translate(10.043 1.575)">
      <mask id="accidente-b" fill="#fff">
        <use xlink:href="#accidente-a"/>
      </mask>
      <path fill="#0033A0" d="M12.9134472,16.0156223 C13.0153442,16.1703387 13.0806232,16.2754842 13.1517734,16.3766272 C13.910709,17.4544075 14.6563571,18.5419635 15.4374644,19.6035025 C15.721988,19.9901395 15.7597648,20.3292839 15.5728893,20.7701101 C15.0997133,21.8860692 14.6655502,23.0185776 14.2248979,24.1480841 C13.9449322,24.8657063 14.204812,25.5291393 14.8434644,25.7700658 C15.4903828,26.0141482 16.1337476,25.6940161 16.3955588,24.9750084 C16.9193356,23.536762 17.4346918,22.0955906 17.9461082,20.6529567 C18.1538421,20.066574 18.1085717,19.4973563 17.7732927,18.9620069 C17.2845116,18.1815745 16.8000567,17.3984479 16.3012326,16.6245582 C16.2350266,16.5217988 16.1023828,16.4128046 15.9881253,16.397256 C14.9872326,16.2610132 13.9835588,16.1454763 12.9134472,16.0156223 L12.9134472,16.0156223 Z M4.66396223,2.99612474 C4.17286352,4.58362241 3.23678627,5.71505318 1.81988498,6.45299636 C1.72772189,6.50102771 1.62543863,6.62911131 1.61879485,6.72609769 C1.50461459,8.39903573 1.39885494,10.0725896 1.31194506,11.7470671 C1.304297,11.894317 1.40441717,12.0862115 1.51627983,12.1932044 C1.83070043,12.4939392 2.17818541,12.7602668 2.51122403,13.0418352 C3.26567897,13.6794822 4.01179056,14.3272126 4.77574764,14.9534675 C5.33027124,15.407995 6.07684635,15.2162544 6.2784,14.5788384 C6.41413391,14.1496352 6.25252017,13.8064882 5.91778197,13.5266901 C5.19932704,12.9260674 4.48720687,12.3176703 3.76396223,11.7226665 C3.52447725,11.5255379 3.40612532,11.2985436 3.44938712,10.988572 C3.47943863,10.7734316 3.47426266,10.5505939 3.52733562,10.3419192 C3.72502661,9.5651045 3.62019399,8.91298656 2.8331382,8.51118586 C2.79976481,8.49425173 2.774503,8.46169201 2.74522403,8.43667569 C2.25064893,8.01378429 2.14705236,7.66386359 2.42215107,7.34419341 C2.70984206,7.00966738 3.0431897,7.05215665 3.5544515,7.48366906 C6.11323262,9.64338636 8.67402232,11.8007945 11.2306403,13.9630519 C11.7428292,14.3961807 12.3162798,14.6935286 12.9847519,14.7741197 C14.6019708,14.9689392 16.2197305,15.1601409 17.8393442,15.3334848 C18.4000481,15.393524 18.8827262,15.5352319 19.3263914,15.9337997 C20.3851468,16.884882 21.4962026,17.7781573 22.5843142,18.6969108 C22.9431554,18.9999547 23.3447948,19.1214956 23.7992755,18.9721674 C24.765327,18.6547294 24.9591554,17.516448 24.1547176,16.829923 C22.7202026,15.6055855 21.2765717,14.3918702 19.8290781,13.1829273 C19.6987519,13.074164 19.5186747,12.9974216 19.3502627,12.9654007 C18.0540309,12.7187782 16.7527777,12.4976339 15.458091,12.2429292 C15.1286833,12.1781177 14.7533871,12.0976036 14.5078764,11.8940861 C12.2161597,9.99492349 9.94839142,8.06704982 7.67297511,6.14833598 C7.43457167,5.94728168 7.25186781,5.72598339 7.37717253,5.38860935 C7.50301803,5.04961887 7.76467468,4.93739177 8.10922403,4.95971403 C8.87827983,5.00951577 9.64725837,5.06216552 10.4170867,5.09518707 C10.5671897,5.10165283 10.7779365,5.07502006 10.8637648,4.97818763 C11.5184858,4.23962866 12.1619279,3.49013948 12.781885,2.72240763 C13.0941425,2.33561672 13.0038335,1.78187068 12.6360309,1.48352211 C12.2478335,1.16862428 11.749782,1.19679651 11.3872326,1.57342695 C11.1742455,1.79472523 10.958091,2.02179651 10.7922283,2.27765581 C10.4267433,2.84140838 9.93394506,3.09318809 9.26493219,2.99704842 C9.21456309,2.98981293 9.16226266,2.99612474 9.11088927,2.99612474 L4.66396223,2.99612474 Z M17.8233528,16.6890619 C18.1441854,17.196393 18.4657906,17.7032623 18.7856961,18.2112092 C19.3609236,19.1244206 19.4814386,20.0852015 19.1108549,21.107869 C18.5887004,22.5485016 18.0850094,23.9957539 17.5613099,25.4358476 C17.161679,26.5349496 16.2175674,27.148273 15.0577648,27.0873871 C14.0679193,27.0355071 13.1709322,26.2872495 12.9156876,25.2744346 C12.7774815,24.7260767 12.8410609,24.1880332 13.0557476,23.6598423 C13.4692069,22.6422551 13.8587176,21.6149692 14.275576,20.5987675 C14.3656532,20.3791626 14.3396961,20.2282949 14.205121,20.0399412 C13.0880395,18.4763053 12.0122884,16.8821879 10.8542627,15.3495722 C10.4618163,14.8302333 9.8747691,14.4546804 9.36736996,14.0242457 C7.98785923,12.8539434 6.60348155,11.6893371 5.22057167,10.5229604 C5.09603948,10.4178919 4.96841717,10.3163641 4.82704378,10.2008271 C4.67570472,10.6530453 4.74662318,10.9583215 5.13304378,11.2415063 C5.72163605,11.6726339 6.26596223,12.1658789 6.812297,12.6515805 C7.51375622,13.2750644 7.73609099,14.0678895 7.45936996,14.9493879 C7.18048584,15.837814 6.5267691,16.3379866 5.59362747,16.4374361 C5.05015107,16.49532 4.53556738,16.3651581 4.11322403,16.0160072 C2.82788498,14.9531596 1.54957597,13.8815371 0.288108155,12.7909022 C0.137618884,12.6608173 0.024983691,12.3879469 0.0347948498,12.1881242 C0.133524464,10.180968 0.261301288,8.1752743 0.38135279,6.16919575 C0.401129614,5.83944206 0.584142489,5.62129968 0.877395708,5.49860422 C2.29321545,4.90598666 3.16355021,3.85945745 3.53312961,2.37949151 C3.64653734,1.92542592 3.86485494,1.78618119 4.38306953,1.78087003 C5.98931845,1.76462866 7.59556738,1.74261429 9.20181631,1.74569323 C9.50503519,1.74630901 9.7055073,1.65717391 9.87762747,1.41886453 C10.0421768,1.19094654 10.2339966,0.981656093 10.4221854,0.771595913 C11.2058421,-0.102590035 12.4927262,-0.21389345 13.4069408,0.509963613 C14.3172927,1.23066477 14.5160652,2.52958948 13.7930524,3.46042779 C13.0779966,4.38102864 12.3099451,5.26214219 11.5331639,6.13232553 C11.397121,6.28465572 11.1077305,6.34192387 10.881533,6.36347639 C10.5796275,6.39234139 10.2701511,6.34338636 9.83853734,6.32144896 C10.219473,6.65050989 10.5106403,6.90729287 10.8074472,7.15737918 C12.2200223,8.34800243 13.6301253,9.54170461 15.0530524,10.7200121 C15.2294987,10.8661845 15.4673614,10.9757175 15.693018,11.0199002 C17.0883657,11.2929245 18.4895073,11.536699 19.8855502,11.8064135 C20.0772927,11.8434377 20.2800824,11.9367293 20.4294901,12.0613491 C21.9762541,13.3517298 23.5224773,14.6430341 25.0494644,15.9565068 C26.0974043,16.8580183 26.2073356,18.3764709 25.3361511,19.3996002 C24.4400137,20.4520564 22.9333442,20.5981517 21.8544258,19.7104954 C20.7052069,18.7650322 19.5793185,17.7913197 18.4333442,16.8416999 C18.2816961,16.7160795 18.0717219,16.6602738 17.888709,16.5721394 C17.8669236,16.6111649 17.8451382,16.6501134 17.8233528,16.6890619 L17.8233528,16.6890619 Z" mask="url(#accidente-b)"/>
    </g>
    <g transform="translate(0 31.287)">
      <mask id="accidente-d" fill="#fff">
        <use xlink:href="#accidente-c"/>
      </mask>
      <path fill="#00AEC7" d="M17.9393253,0.0701611775 C23.6057717,0.0701611775 29.272218,0.0695453909 34.9386644,0.0730861635 C35.1140292,0.0732401101 35.3525099,0.0549974342 35.4503897,0.154293012 C35.6105356,0.316475788 35.786673,0.585497528 35.7560807,0.777776871 C35.7254884,0.969902267 35.4561064,1.13100742 35.2758747,1.28795601 C35.2312996,1.32682753 35.1266215,1.29873227 35.0496,1.29873227 C23.6267845,1.29904017 12.2039691,1.2986553 0.781076395,1.30196515 C0.478861803,1.30204213 0.218209442,1.25616603 0.069960515,0.95835627 C-0.138932189,0.538697751 0.141033476,0.0838624277 0.63166867,0.07347103 C1.26105064,0.0600776731 1.89081888,0.0667743516 2.52043262,0.0667743516 C7.66001202,0.0664664583 12.7996687,0.0665434316 17.9393253,0.0665434316 L17.9393253,0.0701611775 Z" mask="url(#accidente-d)"/>
    </g>
    <path fill="#0033A0" d="M11.1882957,3.08072611 C11.1823185,2.05621128 10.3286704,1.21242979 9.31773476,1.23175009 C8.34032704,1.25045461 7.50166609,2.0985466 7.5039789,3.06602421 C7.50637854,4.08107133 8.36752017,4.92700807 9.38185494,4.9107667 C10.368224,4.89498717 11.1939064,4.05844117 11.1882957,3.08072611 M12.4311169,3.07433733 C12.430576,4.78784032 11.0709193,6.14734302 9.35782918,6.14726605 C7.62936567,6.1471121 6.25557167,4.77483182 6.2579634,3.05070652 C6.26028412,1.36014158 7.64605236,-0.00174729427 9.36215536,2.13678934e-05 C11.0781039,0.00171650494 12.4315803,1.35760146 12.4311169,3.07433733"/>
    <path fill="#00AEC7" d="M13.1100953 28.4949673C14.0117948 28.6649244 14.9403013 28.6798572 15.8542069 28.3881284 16.4141382 28.2094733 16.9580781 27.9690087 17.5278206 27.8356139 19.0381983 27.4819215 20.5050824 27.642026 21.9061468 28.3238557 22.3203785 28.5254488 22.7382412 28.7201913 23.1470652 28.9322528 23.5165674 29.1239163 23.6352283 29.468218 23.465812 29.7958934 23.3048163 30.1074044 22.9710824 30.2171683 22.6086876 30.0541388 22.235091 29.8861061 21.8706876 29.6977524 21.5032712 29.5164802 19.9934343 28.7716864 18.4598034 28.7040269 16.8973571 29.3465231 15.6322584 29.8667088 14.328224 30.0168068 12.9813914 29.7376246 12.5702498 29.6523381 12.341503 29.3764658 12.3944987 29.0211569 12.4457176 28.6778559 12.7046704 28.4781872 13.1100953 28.4949673M10.782085 30.7380929C10.4744627 30.6551927 9.93430815 30.5429656 9.41841116 30.3621553 8.76732103 30.1340063 8.1306 29.8621366 7.49758712 29.5865721 6.91896052 29.3346385 6.74861717 29.030132 6.92375021 28.6440339 7.10614506 28.2417713 7.44227382 28.2091346 8.04963863 28.4577584 8.8649691 28.7913608 9.69459142 29.09071 10.5229004 29.3917527 10.7008146 29.4564102 10.8979648 29.4759615 11.0883167 29.4979758 11.6018961 29.5571683 11.8290979 29.76007 11.8069262 30.1557128 11.784909 30.5489695 11.5133639 30.7510244 10.782085 30.7380929"/>
  </g>
</svg>
