<svg xmlns="http://www.w3.org/2000/svg" width="26" height="18" viewBox="0 0 26 18">
  <g fill="none">
    <path fill="#0033A0" d="M0,0.0267857143 L0,6.30305357 L0.371820313,6.53678571 C1.20376953,7.05975 1.70046094,7.98058929 1.70046094,9 C1.70046094,10.0194107 1.20376953,10.94025 0.371820313,11.4632143 L0,11.6969464 L0,17.9732143 L26,17.9732143 L26,0.0267857143 L0,0.0267857143 Z M24.4765625,16.3660714 L8.37890625,16.3660714 L8.37890625,14.0461607 L6.85546875,14.0461607 L6.85546875,16.3660714 L1.5234375,16.3660714 L1.5234375,12.5807679 C2.58202344,11.7422143 3.22389844,10.4093571 3.22389844,9 C3.22389844,7.59064286 2.58202344,6.25783929 1.5234375,5.41923214 L1.5234375,1.63392857 L6.85546875,1.63392857 L6.85546875,3.91810714 L8.37890625,3.91810714 L8.37890625,1.63392857 L24.4765625,1.63392857 L24.4765625,16.3660714 Z"/>
    <rect width="1.523" height="2.472" x="6.855" y="5.646" fill="#0033A0"/>
    <rect width="1.523" height="2.472" x="6.855" y="9.846" fill="#0033A0"/>
    <path fill="#00AEC7" d="M13.7505469 2.93357143C12.4744648 2.93357143 11.436293 4.02878571 11.436293 5.37492857 11.436293 6.721125 12.4744648 7.81633929 13.7505469 7.81633929 15.0266289 7.81633929 16.0648008 6.721125 16.0648008 5.37492857 16.0648008 4.02878571 15.0266289 2.93357143 13.7505469 2.93357143zM13.7505469 6.20919643C13.3144883 6.20919643 12.9597305 5.83494643 12.9597305 5.37492857 12.9597305 4.91496429 13.3144883 4.54071429 13.7505469 4.54071429 14.1866055 4.54071429 14.5413633 4.91496429 14.5413633 5.37492857 14.5413633 5.83494643 14.1866055 6.20919643 13.7505469 6.20919643zM19.1082734 10.1836607C17.8321914 10.1836607 16.7940195 11.278875 16.7940195 12.6250714 16.7940195 13.9712143 17.8321914 15.0664286 19.1082734 15.0664286 20.3843555 15.0664286 21.4225273 13.9712143 21.4225273 12.6250714 21.4224766 11.278875 20.3843555 10.1836607 19.1082734 10.1836607zM19.1082734 13.4592857C18.6722148 13.4592857 18.317457 13.0850357 18.317457 12.6250714 18.317457 12.1650536 18.6722148 11.7908036 19.1082734 11.7908036 19.544332 11.7908036 19.8990898 12.1650536 19.8990898 12.6250714 19.8990391 13.0850357 19.544332 13.4592857 19.1082734 13.4592857z"/>
    <polygon fill="#00AEC7" points="9.577 8.398 23.321 8.047 23.281 9.601 9.537 9.952" transform="rotate(-52.938 16.43 9)"/>
  </g>
</svg>
