<svg xmlns="http://www.w3.org/2000/svg" width="55" height="28" viewBox="0 0 55 28">
  <g fill="none" transform="rotate(-90 14 13.5)">
    <path fill="#0033A0" d="M26.6236151,26.9985575 L25.7144599,25.6126573 C25.3778339,25.0988952 25.1604849,24.5042964 25.0853846,23.8917339 L24.4589599,18.7999204 C24.3644219,18.0256845 24.071089,17.2864778 23.6090014,16.6622389 L21.6988037,14.071872 L21.6988037,12.5745968 L23.4658691,12.5745968 L23.4658691,-2.27373675e-13 L4.02814919,-2.27373675e-13 L4.02814919,12.5745968 L5.79521464,12.5745968 L5.79521464,14.158996 L4.49377094,16.8041522 C4.18983568,17.4239002 4.02814919,18.1190958 4.02814919,18.8115968 L4.02814919,33.2328629 C4.02814919,33.4116018 4.04758691,33.5876462 4.08116115,33.7591996 C1.87763054,35.8878992 0.494018297,38.8869405 0.494018297,42.2147177 C0.494018297,48.6529113 5.64678114,53.891129 11.9799437,53.891129 C18.3131063,53.891129 23.4658691,48.6529113 23.4658691,42.2147177 C23.4658691,38.8869405 22.0822569,35.8878992 19.8787262,33.7591996 C19.9123005,33.5876462 19.9317382,33.4116018 19.9317382,33.2328629 L19.9317382,27.805128 C20.9504514,29.4595857 22.7555088,30.5383065 24.7602445,30.5383065 C25.9945398,30.5383065 27,29.5170696 27,28.2614062 C27,27.8105171 26.8701207,27.373999 26.6236151,26.9985575 Z M21.6988037,1.79637097 L21.6988037,10.7782258 L5.79521464,10.7782258 L5.79521464,7.18548387 L12.8634764,7.18548387 L12.8634764,5.3891129 L5.79521464,5.3891129 L5.79521464,1.79637097 L21.6988037,1.79637097 Z M21.6988037,42.2147177 C21.6988037,47.6622127 17.3385697,52.0947581 11.9799437,52.0947581 C6.62131773,52.0947581 2.26108374,47.6622127 2.26108374,42.2147177 C2.26108374,36.7672228 6.62131773,32.3346774 11.9799437,32.3346774 C17.3385697,32.3346774 21.6988037,36.7672228 21.6988037,42.2147177 Z M24.7602445,28.7419355 C22.895107,28.7419355 21.274708,27.3919627 20.9080419,25.5318206 L19.805393,19.9253468 L19.2629039,19.7870262 C17.5753564,19.3576935 16.3976073,17.8244909 16.3976073,16.0568619 L16.3976073,14.3709677 L14.6305419,14.3709677 L14.6305419,16.0568619 C14.6305419,18.4074133 16.0547966,20.468749 18.1646728,21.3040615 L18.1646728,32.3912631 C17.6053966,32.0257016 17.0169638,31.7023548 16.3976073,31.4391865 L16.3976073,22.4546371 L14.6305419,22.4546371 L14.6305419,30.8643478 C14.0562456,30.7260272 13.4669293,30.6308196 12.8634764,30.5832157 L12.8634764,22.4546371 L11.096411,22.4546371 L11.096411,30.5841139 C10.4929581,30.6308196 9.9036418,30.7260272 9.32934553,30.865246 L9.32934553,22.4546371 L7.56228008,22.4546371 L7.56228008,31.4391865 C6.94292365,31.7023548 6.35449085,32.0265998 5.79521464,32.3912631 L5.79521464,18.8115968 C5.79521464,18.3957369 5.8915197,17.9789788 6.07441098,17.6062319 L7.56228008,14.5829395 L7.56228008,12.5745968 L19.9317382,12.5745968 L19.9317382,14.6700635 L22.195349,17.7391633 C22.4718948,18.1137067 22.6486013,18.5565121 22.7051474,19.020874 L23.3315721,24.1126875 C23.4402467,24.9991966 23.7547843,25.8623528 24.2433779,26.6069486 L25.1525331,27.9928488 C25.2046615,28.0718891 25.2320538,28.1644022 25.2320538,28.2596099 C25.2329346,28.526371 25.0208867,28.7419355 24.7602445,28.7419355 L24.7602445,28.7419355 Z"/>
    <polygon fill="#00AEC7" points="4.421 41.386 19.537 41.262 19.522 43.043 4.406 43.167" transform="rotate(-45 11.971 42.214)"/>
    <path fill="#00AEC7" d="M15.5140746 43.1129032C14.0527115 43.1129032 12.8634764 44.3218609 12.8634764 45.8074597 12.8634764 47.2930585 14.0527115 48.5020161 15.5140746 48.5020161 16.9754377 48.5020161 18.1646728 47.2930585 18.1646728 45.8074597 18.1646728 44.3218609 16.9754377 43.1129032 15.5140746 43.1129032zM15.5140746 46.7056452C15.0263645 46.7056452 14.6305419 46.3023599 14.6305419 45.8074597 14.6305419 45.3125595 15.0263645 44.9092742 15.5140746 44.9092742 16.0017847 44.9092742 16.3976073 45.3125595 16.3976073 45.8074597 16.3976073 46.3023599 16.0017847 46.7056452 15.5140746 46.7056452zM8.44581281 41.3165323C9.90717593 41.3165323 11.096411 40.1075746 11.096411 38.6219758 11.096411 37.136377 9.90717593 35.9274194 8.44581281 35.9274194 6.98444968 35.9274194 5.79521464 37.136377 5.79521464 38.6219758 5.79521464 40.1075746 6.98444968 41.3165323 8.44581281 41.3165323zM8.44581281 37.7237903C8.93352287 37.7237903 9.32934553 38.1270756 9.32934553 38.6219758 9.32934553 39.116876 8.93352287 39.5201613 8.44581281 39.5201613 7.95810274 39.5201613 7.56228008 39.116876 7.56228008 38.6219758 7.56228008 38.1270756 7.95810274 37.7237903 8.44581281 37.7237903zM17.28114 8.98185484C18.7425032 8.98185484 19.9317382 7.77289718 19.9317382 6.28729839 19.9317382 4.8016996 18.7425032 3.59274194 17.28114 3.59274194 15.8197769 3.59274194 14.6305419 4.8016996 14.6305419 6.28729839 14.6305419 7.77289718 15.8197769 8.98185484 17.28114 8.98185484zM17.28114 5.3891129C17.7688501 5.3891129 18.1646728 5.79239819 18.1646728 6.28729839 18.1646728 6.78219859 17.7688501 7.18548387 17.28114 7.18548387 16.79343 7.18548387 16.3976073 6.78219859 16.3976073 6.28729839 16.3976073 5.79239819 16.79343 5.3891129 17.28114 5.3891129z"/>
  </g>
</svg>
