<svg xmlns="http://www.w3.org/2000/svg" xmlns:xlink="http://www.w3.org/1999/xlink" width="30" height="36" viewBox="0 0 30 36">
  <defs>
    <rect id="reembolsogastos-a" width="36" height="36" x="0" y="0"/>
  </defs>
  <g fill="none" fill-rule="evenodd" transform="translate(-3)">
    <mask id="reembolsogastos-b" fill="#fff">
      <use xlink:href="#reembolsogastos-a"/>
    </mask>
    <g fill-rule="nonzero" mask="url(#reembolsogastos-b)">
      <g transform="translate(3)">
        <path fill="#0033A0" d="M28.7838984,0.849796875 C28.7837578,0.84965625 28.7836172,0.849515625 28.7834766,0.849375 C28.2344766,0.301640625 27.5057578,0 26.7316172,0 L2.9413125,0 C1.34057813,0 0.03825,1.30190625 0.03825,2.90207813 L0.03825,7.75328906 C0.03825,8.04452344 0.274359375,8.28063281 0.56559375,8.28063281 L3.11470313,8.28063281 C3.4059375,8.28063281 3.64204688,8.04452344 3.64204688,7.75328906 C3.64204688,7.46205469 3.4059375,7.22594531 3.11470313,7.22594531 L1.0929375,7.22594531 L1.0929375,2.90207813 C1.0929375,1.88346094 1.92213281,1.0546875 2.9413125,1.0546875 C3.43420312,1.0546875 3.89833594,1.24692188 4.24785937,1.59560156 C4.59667969,1.94435156 4.78877344,2.40834375 4.78877344,2.90207813 L4.78877344,35.4726563 C4.78877344,35.6784609 4.90851562,35.8654219 5.09540625,35.951625 C5.28229687,36.0376875 5.50223437,36.0073125 5.65875,35.8735781 L7.695,34.1332031 L9.73223437,35.8736484 C9.92953125,36.0421875 10.2200625,36.0421875 10.4172891,35.8736484 L12.4545234,34.1332031 L14.4907734,35.8735781 C14.6881406,36.0421875 14.9786719,36.0421875 15.1760391,35.8735781 L17.2122891,34.1332031 L19.2495234,35.8736484 C19.4468203,36.0422578 19.7374219,36.0421875 19.9347187,35.8735781 L21.9708984,34.1332734 L24.0070781,35.8735781 C24.2045156,36.0422578 24.4951875,36.0421875 24.6924141,35.8735078 L26.7276094,34.1333438 L28.7637187,35.8735781 C28.8611016,35.9568281 28.9831641,36.0000703 29.1064922,36.0000703 C29.1812344,36.0000703 29.2565391,35.9841797 29.3270625,35.9516953 C29.5140234,35.8655625 29.6336953,35.6786016 29.6336953,35.4727266 L29.6336953,2.90207813 C29.6336953,2.12667188 29.3319141,1.3978125 28.7838984,0.849796875 Z M26.3848359,33.0387188 L24.3496406,34.7790938 L22.3135313,33.0386484 C22.1161641,32.8700391 21.8256328,32.8700391 21.6282656,33.0386484 L19.5920156,34.7790938 L17.5547813,33.0385781 C17.3574844,32.8700391 17.0668828,32.8700391 16.8695859,33.0386484 L14.8334063,34.7790938 L12.7972266,33.0386484 C12.5999297,32.8701094 12.3093281,32.8699687 12.1120313,33.0385781 L10.0747266,34.7790938 L8.03742188,33.0385781 C7.93877344,32.9542734 7.81685156,32.9121562 7.69485937,32.9121562 C7.57286719,32.9121562 7.450875,32.9543437 7.35222656,33.0386484 L5.84339062,34.32825 L5.84339062,2.90207813 C5.84339062,2.85630469 5.842125,2.81074219 5.84008594,2.76532031 C5.83938281,2.75041406 5.83811719,2.73557813 5.83720312,2.72067188 C5.835375,2.69022656 5.83333594,2.65978125 5.83052344,2.62954688 C5.82890625,2.61203906 5.82679688,2.59467188 5.82489844,2.57723438 C5.821875,2.54960156 5.81857031,2.52196875 5.81477344,2.49454688 C5.81224219,2.47647656 5.80942969,2.45847656 5.80654687,2.44040625 C5.80232812,2.4136875 5.79775781,2.38710938 5.79276562,2.36067188 C5.78939062,2.34260156 5.785875,2.32460156 5.78214844,2.30667188 C5.77659375,2.28002344 5.77061719,2.25351563 5.76428906,2.22707813 C5.76021094,2.20985156 5.75620312,2.192625 5.75184375,2.17553906 C5.74467187,2.14755469 5.73679687,2.11978125 5.72878125,2.09207813 C5.72442187,2.07696094 5.72034375,2.06170313 5.71570312,2.04665625 C5.70515625,2.01234375 5.69376562,1.9783125 5.68195312,1.94442187 C5.67914062,1.93626562 5.67660937,1.92803906 5.67372656,1.91995313 C5.65875,1.87811719 5.64271875,1.83663281 5.62577344,1.79557031 C5.62099219,1.78403906 5.61578906,1.77278906 5.61086719,1.76132813 C5.59828125,1.7319375 5.58555469,1.70254688 5.57198437,1.67357813 C5.56495312,1.65853125 5.55742969,1.64369531 5.55011719,1.62871875 C5.5378125,1.60361719 5.5254375,1.57858594 5.51235937,1.55383594 C5.5040625,1.53801562 5.49534375,1.52233594 5.48676562,1.50658594 C5.47375781,1.48296094 5.46053906,1.45954688 5.44689844,1.43627344 C5.4376875,1.42052344 5.42826562,1.40491406 5.41877344,1.38930469 C5.40464062,1.3663125 5.39015625,1.34353125 5.37539062,1.32089063 C5.36554687,1.30577344 5.35570312,1.29065625 5.34557812,1.27575 C5.32975781,1.25247656 5.31344531,1.22955469 5.29692187,1.20677344 C5.28700781,1.19313281 5.277375,1.17935156 5.26725,1.16578125 C5.24777344,1.13983594 5.22759375,1.1143125 5.20720312,1.08892969 C5.19932812,1.07915625 5.19180469,1.06910156 5.18378906,1.05939844 C5.18252344,1.05785156 5.18139844,1.05630469 5.18013281,1.05475781 L26.7316172,1.05475781 C27.2245078,1.05475781 27.6886406,1.24699219 28.0385156,1.59609375 C28.3870547,1.94477344 28.5789375,2.408625 28.5789375,2.90214844 L28.5789375,34.3281797 L27.0701719,33.0386484 C26.8728047,32.8700391 26.5821328,32.8700391 26.3848359,33.0387188 Z"/>
        <path fill="#00AEC7" d="M13.6286016,27.0355781 C13.5364219,26.8153594 13.3965703,26.6323359 13.2090469,26.4863672 C13.0215234,26.3405391 12.8473594,26.226 12.686625,26.1425391 C12.5258203,26.0592188 12.3233906,25.972875 12.0793359,25.8835781 L12.0793359,24.3118125 C12.3055313,24.3296719 12.5227969,24.3892969 12.7312734,24.4904063 C12.9396094,24.5916563 13.0735547,24.6422109 13.1331094,24.6422109 C13.2818203,24.6422109 13.3979766,24.5723203 13.4814375,24.4323984 C13.5647578,24.2925469 13.6064531,24.1570547 13.6064531,24.0260625 C13.6064531,23.7938203 13.4457187,23.6212031 13.1241797,23.5080703 C12.8027109,23.3950078 12.4543828,23.3325 12.0792656,23.3205469 L12.0792656,23.088375 C12.0792656,23.0289609 12.0480469,22.9767891 11.9854687,22.9320703 C11.9229609,22.8874219 11.8529297,22.8650625 11.7756562,22.8650625 C11.6921953,22.8650625 11.6207578,22.8874219 11.5612734,22.9320703 C11.5017187,22.9767188 11.4719766,23.0288906 11.4719766,23.088375 L11.4719766,23.3384063 C10.9718437,23.4040078 10.5579844,23.5781719 10.2306094,23.8608281 C9.90309375,24.1436953 9.73940625,24.5500313 9.73940625,25.0798359 C9.73940625,25.3001953 9.77653125,25.4996016 9.85099219,25.6781953 C9.92538281,25.8567891 10.01025,26.0027578 10.1055234,26.1158203 C10.2006562,26.2289531 10.3391016,26.3390625 10.5207891,26.4462188 C10.7023359,26.553375 10.8512578,26.6307891 10.9673437,26.6783906 C11.0834297,26.7260625 11.2516172,26.7915234 11.4719062,26.8748438 L11.4719062,28.6520625 C11.2455703,28.6283672 11.0401875,28.5598125 10.8556875,28.4466797 C10.6710469,28.3336172 10.5176953,28.2278672 10.3957734,28.1296406 C10.2736406,28.0314141 10.1680312,27.9822656 10.0787344,27.9822656 C9.94767187,27.9822656 9.83158594,28.0522969 9.73040625,28.1921484 C9.62908594,28.3320703 9.57860156,28.4705156 9.57860156,28.6074141 C9.57860156,28.8694688 9.76457812,29.1164766 10.1367422,29.3486484 C10.5087656,29.5808203 10.9539141,29.7029531 11.4718359,29.7147656 L11.4718359,29.9647969 C11.4718359,30.0242109 11.5015781,30.0764531 11.5611328,30.1211016 C11.6205469,30.16575 11.6919844,30.1880391 11.7755156,30.1880391 C11.8527891,30.1880391 11.9228906,30.1656797 11.9853281,30.1211016 C12.0478359,30.0764531 12.079125,30.0242109 12.079125,29.9647969 L12.079125,29.6879766 C12.5971172,29.6046563 13.0079531,29.4022266 13.3115625,29.0806875 C13.6152422,28.7592188 13.7670469,28.3305234 13.7670469,27.7946719 C13.7670469,27.5089219 13.7208516,27.2558672 13.6286016,27.0355781 Z M11.5434844,25.6870547 C11.3052656,25.5919219 11.1266719,25.4920781 11.0076328,25.387875 C10.8884531,25.2837422 10.8290391,25.1422734 10.8290391,24.9636797 C10.8290391,24.6243516 11.0670469,24.4160156 11.5434844,24.3385313 L11.5434844,25.6870547 Z M12.0078984,28.6430625 L12.0078984,27.0890859 C12.2222813,27.1843594 12.3874453,27.2944688 12.5035313,27.4195547 C12.6196172,27.5445703 12.6776953,27.7083984 12.6776953,27.9106875 C12.6776953,28.3097109 12.4544531,28.5537656 12.0078984,28.6430625 Z"/>
        <path fill="#0033A0" d="M24.6398906 27.77625L17.8550859 27.77625C17.5638516 27.77625 17.3277422 28.0123594 17.3277422 28.3035938 17.3277422 28.5948281 17.5638516 28.8309375 17.8550859 28.8309375L24.6398906 28.8309375C24.931125 28.8309375 25.1672344 28.5948281 25.1672344 28.3035938 25.1672344 28.0123594 24.931125 27.77625 24.6398906 27.77625zM24.6398906 24.1263281L17.8550859 24.1263281C17.5638516 24.1263281 17.3277422 24.3624375 17.3277422 24.6536719 17.3277422 24.9449062 17.5638516 25.1810156 17.8550859 25.1810156L24.6398906 25.1810156C24.931125 25.1810156 25.1672344 24.9449062 25.1672344 24.6536719 25.1672344 24.3624375 24.931125 24.1263281 24.6398906 24.1263281zM25.3138359 18.8108438L9.10863281 18.8108438C8.81739844 18.8108438 8.58128906 19.0469531 8.58128906 19.3381875 8.58128906 19.6294219 8.81739844 19.8655313 9.10863281 19.8655313L25.3138359 19.8655313C25.6050703 19.8655313 25.8411797 19.6294219 25.8411797 19.3381875 25.8411797 19.0469531 25.6050703 18.8108438 25.3138359 18.8108438zM17.2112344 15.5072813L9.10863281 15.5072813C8.81739844 15.5072813 8.58128906 15.7433906 8.58128906 16.034625 8.58128906 16.3258594 8.81732812 16.5619687 9.10863281 16.5619687L17.2112344 16.5619687C17.5024687 16.5619687 17.7385781 16.3258594 17.7385781 16.034625 17.7385781 15.7433906 17.5024687 15.5072813 17.2112344 15.5072813zM21.7758516 4.6749375C21.6127969 4.433625 21.2850703 4.37027344 21.0436172 4.5331875 20.8023047 4.69624219 20.7388125 5.02403906 20.9018672 5.26542187 21.3989063 6.00110156 21.6616641 6.86144531 21.6616641 7.75335937 21.6616641 10.2073359 19.6651406 12.2038594 17.2111641 12.2038594 14.7571875 12.2038594 12.7606641 10.2074062 12.7606641 7.75335938 12.7606641 5.29938281 14.7571172 3.30285938 17.2111641 3.30285938 17.9521172 3.30285938 18.6854766 3.48848438 19.3319297 3.83955469 19.5880078 3.97870313 19.9080703 3.88378125 20.0470078 3.62791406 20.1860156 3.37197656 20.0912344 3.05184375 19.8353672 2.91283594 19.0348594 2.47802344 18.1274766 2.24817188 17.2111641 2.24817188 14.1756328 2.24817188 11.7059766 4.71782813 11.7059766 7.75335938 11.7059766 10.7888203 14.1756328 13.2584766 17.2111641 13.2584766 20.2466953 13.2584766 22.7163516 10.7888906 22.7163516 7.75328906 22.7163516 6.65015625 22.3911563 5.58569531 21.7758516 4.6749375z"/>
        <path fill="#00AEC7" d="M19.8306562,6.422625 L18.5418281,6.422625 L18.5418281,5.13379688 C18.5418281,4.8425625 18.3057187,4.60645313 18.0144844,4.60645313 L16.4079141,4.60645313 C16.1166797,4.60645313 15.8805703,4.8425625 15.8805703,5.13379688 L15.8805703,6.422625 L14.5917422,6.422625 C14.3005078,6.422625 14.0643984,6.65873438 14.0643984,6.94996875 L14.0643984,8.55653906 C14.0643984,8.84777344 14.3005078,9.08388281 14.5917422,9.08388281 L15.8805703,9.08388281 L15.8805703,10.3727109 C15.8805703,10.6639453 16.1166797,10.9000547 16.4079141,10.9000547 L18.0144844,10.9000547 C18.3057187,10.9000547 18.5418281,10.6639453 18.5418281,10.3727109 L18.5418281,9.08388281 L19.8306562,9.08388281 C20.1218906,9.08388281 20.358,8.84777344 20.358,8.55653906 L20.358,6.94996875 C20.358,6.65873438 20.1218906,6.422625 19.8306562,6.422625 Z M19.3033125,8.02919531 L18.0144844,8.02919531 C17.72325,8.02919531 17.4871406,8.26530469 17.4871406,8.55653906 L17.4871406,9.84536719 L16.9352578,9.84536719 L16.9352578,8.55653906 C16.9352578,8.26530469 16.6991484,8.02919531 16.4079141,8.02919531 L15.1190859,8.02919531 L15.1190859,7.4773125 L16.4079141,7.4773125 C16.6991484,7.4773125 16.9352578,7.24120313 16.9352578,6.94996875 L16.9352578,5.66114063 L17.4871406,5.66114063 L17.4871406,6.94996875 C17.4871406,7.24120313 17.72325,7.4773125 18.0144844,7.4773125 L19.3033125,7.4773125 L19.3033125,8.02919531 Z"/>
      </g>
    </g>
  </g>
</svg>
