<svg xmlns="http://www.w3.org/2000/svg" xmlns:xlink="http://www.w3.org/1999/xlink" width="11" height="12" viewBox="0 0 11 12">
  <defs>
    <path id="add-a" d="M5.5,0.06019999 C6.02288479,0.06019999 6.44676666,0.484081863 6.44676666,1.00696665 L6.446,4.61319999 L10.0833333,4.61343333 C10.5895944,4.61343333 11,5.02383897 11,5.5301 C11,6.03636102 10.5895944,6.44676666 10.0833333,6.44676666 L6.446,6.44619999 L6.44676666,10.1134333 C6.44676666,10.6363181 6.02288479,11.0602 5.5,11.0602 C4.97711521,11.0602 4.55323334,10.6363181 4.55323334,10.1134333 L4.553,6.44619999 L0.916666667,6.44676666 C0.410405646,6.44676666 6.19990939e-17,6.03636102 0,5.5301 C-6.19990939e-17,5.02383897 0.410405646,4.61343333 0.916666667,4.61343333 L4.553,4.61319999 L4.55323334,1.00696665 C4.55323334,0.484081863 4.97711521,0.06019999 5.5,0.06019999 Z"/>
  </defs>
  <g fill="none" fill-rule="evenodd">
    <mask id="add-b" fill="#fff">
      <use xlink:href="#add-a"/>
    </mask>
    <use fill="#455560" xlink:href="#add-a"/>
    <g fill="#00AEC7" mask="url(#add-b)">
      <g transform="translate(.029)">
        <circle cx="5.5" cy="5.5" r="5.5"/>
        <rect width="11" height="11"/>
      </g>
    </g>
  </g>
</svg>
