<?xml version="1.0" encoding="UTF-8"?>
<svg width="200px" height="129px" viewBox="0 0 200 129" version="1.1" xmlns="http://www.w3.org/2000/svg" xmlns:xlink="http://www.w3.org/1999/xlink">
    <!-- Generator: Sketch 60.1 (88133) - https://sketch.com -->
    <title>icono exito</title>
    <desc>Created with Sketch.</desc>
    <defs>
        <linearGradient x1="50%" y1="0%" x2="50%" y2="88.7992352%" id="linearGradient-1">
            <stop stop-color="#F6F6F6" offset="0%"></stop>
            <stop stop-color="#CECECE" offset="100%"></stop>
        </linearGradient>
    </defs>
    <g id="Flujo" stroke="none" stroke-width="1" fill="none" fill-rule="evenodd">
        <g id="Exito" transform="translate(-417.000000, -180.000000)">
            <g id="icono-exito" transform="translate(417.000000, 180.000000)">
                <path d="M174.285714,73.7651934 C174.285714,44.4407375 150.460833,20.6685083 121.071429,20.6685083 C91.6820238,20.6685083 67.8571429,44.4407375 67.8571429,73.7651934 C67.8571429,103.089649 91.6820238,126.861878 121.071429,126.861878 C150.460833,126.861878 174.285714,103.089649 174.285714,73.7651934" id="Fill-1" fill="url(#linearGradient-1)"></path>
                <path d="M164.285714,86.8260891 L164.285714,104.863848 C162.353571,107.660299 160.181383,110.241308 157.778416,112.607735 L157.778416,86.8260891 L157.769151,86.8260891 L157.769151,86.7649033 C157.73883,86.6313285 154.575303,83.9477692 152.142857,81.9096774 L152.142857,80.7824791 L155.085712,80.0042986 C156.297724,79.6871663 157.567851,79.7888555 158.699848,80.2912688 C159.210258,80.5161914 159.740881,80.7316345 160.271505,80.9057125 L160.271505,83.2617983 C162.703951,85.2998901 164.246128,86.6313285 164.275607,86.7649033 L164.275607,86.8260891 L164.285714,86.8260891 Z" id="Fill-3" fill="#C3CAD6"></path>
                <g id="Group-8" transform="translate(0.000000, 20.668508)">
                    <polygon id="Fill-5" fill="#FFB031" points="0.034097177 0.256313612 15.6071303 36.8792568 26.9896204 29.0753617 33.5857193 38.6819959 34.7757108 22.4761406 48.5509703 14.0630735"></polygon>
                    <polygon id="Fill-7" fill="#FF9433" points="29.5076969 27.6220636 15.6028682 37.1603474 26.9845058 29.355598 33.5806047 38.9622321 34.7714486 22.7572312 12.8205385 9.65447938"></polygon>
                    <polygon id="Fill-9" fill="#FF7733" points="34.4790653 25.8748591 12.8205385 8.80010067 34.7705962 21.9028525"></polygon>
                </g>
                <g id="Group-7" transform="translate(12.857143, 61.292818)" fill="#FFFFFF">
                    <path d="M22.3679877,2.9903738 C22.2453441,2.27552636 22.0894844,1.56239112 21.905519,0.869802399 L22.9726891,0.582151212 C23.1660232,1.30727191 23.3278447,2.05379523 23.4564501,2.80117466 L22.3679877,2.9903738 Z" id="Fill-11"></path>
                    <path d="M23.0101652,11.9726246 L21.9225545,11.7782888 C22.1763587,10.3434573 22.3075193,8.8812304 22.3151845,7.430989 L23.4189773,7.43698173 C23.4121638,8.94886267 23.2741897,10.4752974 23.0101652,11.9726246 L23.0101652,11.9726246 Z M15.449695,12.6266886 C14.1934493,12.3450301 12.9065426,12.2012045 11.6213394,12.2012045 L11.1742011,12.2063411 L11.1469469,11.0968294 C12.6672172,11.0591608 14.2019662,11.2072669 15.6915756,11.5437161 L15.449695,12.6266886 Z M3.28157104,14.7943457 L2.50993806,14.0007366 C3.48171866,13.0436116 4.81120992,12.3270519 6.57506411,11.8082525 L6.94555014,12.8561246 C5.32222513,13.332975 4.11026738,13.979334 3.28157104,14.7943457 L3.28157104,14.7943457 Z M23.1413257,16.464606 C22.1252572,15.7197949 21.0342397,14.9390274 19.8529428,14.2892439 L19.4841602,14.0923399 L19.9900652,13.1061072 C20.1212258,13.1737395 20.2532381,13.2439401 20.383547,13.3149968 C21.6227589,13.9973122 22.7929837,14.8345826 23.7920185,15.5665522 L23.1413257,16.464606 Z M70.5839785,17.9268329 L70.2433017,16.8712558 C71.6468901,16.4132398 73.0445168,15.9346772 74.4344781,15.4381365 L74.8032608,16.4851526 C73.4056342,16.9842616 71.9986389,17.4662486 70.5839785,17.9268329 L70.5839785,17.9268329 Z M62.0014779,20.3855657 L61.7417118,19.3068737 C63.1231563,18.9695685 64.5608125,18.5877458 66.0137991,18.1691105 L66.3187048,19.2375292 C64.8503878,19.6595889 63.3982528,20.044836 62.0014779,20.3855657 L62.0014779,20.3855657 Z M19.9406671,20.5088448 L18.9825136,19.9558011 C19.6987866,18.704176 20.3111531,17.372077 20.8051345,15.9971729 L21.8433471,16.3730028 C21.3280734,17.8095466 20.6884527,19.2007167 19.9406671,20.5088448 L19.9406671,20.5088448 Z M30.9632653,20.9505948 C29.6652867,20.5071325 28.4482188,19.9643622 27.3461293,19.3385496 C27.1732358,19.2418098 27.0003423,19.1399333 26.8291522,19.0363446 L27.3997859,18.0852123 C27.5607557,18.1836643 27.7225772,18.278692 27.8878054,18.3711513 C28.9319798,18.9644318 30.0860225,19.4780947 31.3192726,19.9001543 L30.9632653,20.9505948 Z M53.2239399,22.0729481 L53.0748938,20.9728535 C54.4955161,20.7785177 55.9604264,20.535384 57.42704,20.2511572 L57.6365563,21.3409785 C56.149502,21.6294858 54.6650028,21.876044 53.2239399,22.0729481 L53.2239399,22.0729481 Z M39.8183074,22.5780499 L39.1131064,22.5232592 C37.7555093,22.4093972 36.525666,22.2561545 35.352886,22.0515455 L35.5402583,20.9582997 C36.6815256,21.156916 37.8798563,21.3058783 39.2050891,21.4171719 L39.8958113,21.4693943 L39.8183074,22.5780499 Z M44.2990591,22.7235877 L44.2930973,21.6132198 C45.7324568,21.606371 47.2126975,21.5472998 48.6929383,21.4377184 L48.773849,22.5446618 C47.2689092,22.6559554 45.7631177,22.7167388 44.2990591,22.7235877 L44.2990591,22.7235877 Z M1.56455991,22.9769947 C0.941121342,21.7082475 0.612368219,20.3136529 0.61321826,18.9438853 C0.61321826,18.8308795 0.614923295,18.7187298 0.620033447,18.6065801 L0.632808828,18.3651585 L1.73404662,18.4464885 L1.72297462,18.6493853 C1.71956786,18.7486934 1.71786447,18.8462894 1.71786447,18.9438853 C1.71701278,20.1441441 2.00658807,21.36923 2.55507774,22.4855906 L1.56455991,22.9769947 Z M13.6628452,27.1051317 L13.1756773,26.1086258 C14.3237582,25.5410283 15.4352163,24.6609527 16.4793907,23.4932258 L17.3012735,24.2346125 C16.1625613,25.5084963 14.9378281,26.4750386 13.6628452,27.1051317 L13.6628452,27.1051317 Z M9.07478021,28.0100343 C7.47104412,27.9021651 5.93714678,27.3885023 4.63831644,26.5229804 L5.24897962,25.5975312 C6.38769186,26.35604 7.73592034,26.8072072 9.14802573,26.9022348 L9.07478021,28.0100343 Z" id="Fill-13"></path>
                </g>
                <path d="M136.770509,61.2928177 L136.428571,60.0852672 C137.027147,59.7783979 137.625723,59.4675434 138.222074,59.1546961 L138.571429,60.3582613 C137.972853,60.6721049 137.372793,60.9849521 136.770509,61.2928177" id="Fill-15" fill="#00C8B7"></path>
                <path d="M157.857143,86.8564972 L119.285714,109.756906 L80.7142857,86.8564972 C80.7142857,86.8375876 80.7142857,86.8118017 80.7211155,86.7928921 C80.7527035,86.6476319 82.8810472,84.8580942 86.1277746,82.2030117 C86.1593625,82.1780854 86.1841207,82.1522996 86.2157086,82.1273732 C96.8668184,73.4212125 119.285714,55.5911602 119.285714,55.5911602 C119.285714,55.5911602 141.70461,73.4212125 152.35572,82.1273732 C155.652817,84.820275 157.819579,86.6416152 157.850313,86.7928921 C157.857143,86.8118017 157.857143,86.8375876 157.857143,86.8564972" id="Fill-19" fill="#7A4C08"></path>
                <path d="M134.453919,46.3259669 L92.8841414,46.3259669 C89.3186542,46.3259669 86.4285714,49.2357894 86.4285714,52.8237122 L86.4285714,116.08789 C86.4285714,119.676671 89.3186542,122.585635 92.8841414,122.585635 L144.973001,122.585635 C148.538489,122.585635 151.428571,119.676671 151.428571,116.08789 L151.428571,63.4115179 L134.453919,46.3259669 Z" id="Fill-21" fill="#FFFFFF"></path>
                <path d="M135.714286,56.925481 C135.714286,60.5185221 138.633868,63.4309392 142.233825,63.4309392 L152.857143,63.4309392 L135.714286,46.3259669 L135.714286,56.925481 Z" id="Fill-23" fill="#C3CAD6"></path>
                <path d="M133.839172,67.7071823 L99.0171081,67.7071823 C97.9824732,67.7071823 97.1428571,68.5050011 97.1428571,69.4889503 C97.1428571,70.4728994 97.9824732,71.2707182 99.0171081,71.2707182 L133.839172,71.2707182 C134.873807,71.2707182 135.714286,70.4728994 135.714286,69.4889503 C135.714286,68.5050011 134.873807,67.7071823 133.839172,67.7071823" id="Fill-27" fill="#0033A0"></path>
                <path d="M133.839172,76.9723757 L99.0171081,76.9723757 C97.9824732,76.9723757 97.1428571,77.7701945 97.1428571,78.7541436 C97.1428571,79.7380928 97.9824732,80.5359116 99.0171081,80.5359116 L133.839172,80.5359116 C134.873807,80.5359116 135.714286,79.7380928 135.714286,78.7541436 C135.714286,77.7701945 134.873807,76.9723757 133.839172,76.9723757" id="Fill-29" fill="#0033A0"></path>
                <path d="M118.116689,86.2375691 L99.0261685,86.2375691 C97.9861438,86.2375691 97.1428571,87.0353878 97.1428571,88.019337 C97.1428571,89.0032862 97.9861438,89.801105 99.0261685,89.801105 L118.116689,89.801105 C119.156713,89.801105 120,89.0032862 120,88.019337 C120,87.0353878 119.156713,86.2375691 118.116689,86.2375691" id="Fill-31" fill="#0033A0"></path>
                <path d="M157.857143,86.9502762 L157.857143,124.260475 C157.857143,126.868677 155.742435,129 153.156465,129 L85.401304,129 C82.8153334,129 80.7142857,126.868677 80.7142857,124.260475 L80.7142857,86.9502762 L119.285287,109.880933 L157.857143,86.9502762 Z" id="Fill-33" fill="#FFB031"></path>
                <path d="M157.142857,127.523483 L132.164618,102.633258 L119.645864,109.988453 L107.122814,102.629834 L82.1428571,127.521771 C83.0018358,128.427368 84.2095597,129 85.5547202,129 L153.724981,129 C155.070142,129 156.279584,128.428224 157.142857,127.523483" id="Fill-35" fill="#FF9433"></path>
                <path d="M165.867204,36.4632031 C154.743107,37.5530196 145.856488,46.701675 145.060199,57.8259962 C144.665048,63.3621275 146.237098,68.5039791 149.133161,72.6652518 C150.223675,74.2321297 150.402434,76.2572939 149.669437,78.0196048 L147.834808,82.4258089 L155.333267,80.4859867 C156.554643,80.1702216 157.846153,80.2692182 159.004236,80.7701754 C162.480196,82.2747537 166.394927,82.9600494 170.508944,82.5632094 C181.426913,81.5083831 190.261359,72.710483 191.316805,61.8165851 C192.731479,47.2000719 180.519434,35.0286052 165.867204,36.4632031" id="Fill-37" fill="#00C1DD"></path>
                <path d="M167.616441,35.6435222 C175.875419,38.1145799 181.899424,45.7565071 181.899424,54.8127841 C181.899424,65.8680998 172.929629,74.8296316 161.86412,74.8296316 C156.034906,74.8296316 150.803736,72.3269922 147.142857,68.3570822 C147.719542,69.6177911 148.396185,70.822165 149.180476,71.950572 C150.269769,73.5177091 150.448328,75.5432082 149.716152,77.3058106 L147.883576,81.7135971 L155.373641,79.773454 C156.594504,79.4576367 157.883714,79.5557961 159.040501,80.0568361 C162.512569,81.5616633 166.423772,82.247926 170.53233,81.8501668 C181.43893,80.795166 190.263486,71.9958107 191.316896,61.1001108 C192.674455,47.0581869 181.473104,35.280759 167.616441,35.6435222" id="Fill-45" fill-opacity="0.5" fill="#037180"></path>
                <path d="M72.143267,107.63588 C71.3447886,107.63588 70.697152,106.989675 70.697152,106.192961 C70.697152,105.397065 71.3447886,104.75086 72.143267,104.75086 C72.9417455,104.75086 73.5885622,105.397065 73.5885622,106.192961 C73.5885622,106.989675 72.9417455,107.63588 72.143267,107.63588 M72.143267,102.629834 C70.1708449,102.629834 68.5714286,104.224898 68.5714286,106.192961 C68.5714286,108.161842 70.1708449,109.756906 72.143267,109.756906 C74.1156892,109.756906 75.7142857,108.161842 75.7142857,106.192961 C75.7142857,104.224898 74.1156892,102.629834 72.143267,102.629834" id="Fill-49" fill="#FFFFFF"></path>
                <path d="M148.571019,12.1333613 C147.77254,12.1333613 147.124904,11.4872302 147.124904,10.6906077 C147.124904,9.89398529 147.77254,9.24867204 148.571019,9.24867204 C149.369497,9.24867204 150.017134,9.89398529 150.017134,10.6906077 C150.017134,11.4872302 149.369497,12.1333613 148.571019,12.1333613 M148.571019,7.12707182 C146.598597,7.12707182 145,8.72277037 145,10.6906077 C145,12.659263 146.598597,14.2541436 148.571019,14.2541436 C150.543441,14.2541436 152.142857,12.659263 152.142857,10.6906077 C152.142857,8.72277037 150.543441,7.12707182 148.571019,7.12707182" id="Fill-51" fill="#FFFFFF"></path>
                <path d="M197.142429,59.5962519 C196.504272,59.5962519 195.986038,59.0800173 195.986038,58.4424163 C195.986038,57.8048153 196.504272,57.287726 197.142429,57.287726 C197.781442,57.287726 198.299677,57.8048153 198.299677,58.4424163 C198.299677,59.0800173 197.781442,59.5962519 197.142429,59.5962519 M197.142429,55.5911602 C195.564597,55.5911602 194.285714,56.8680717 194.285714,58.4424163 C194.285714,60.0167609 195.564597,61.2928177 197.142429,61.2928177 C198.721117,61.2928177 200,60.0167609 200,58.4424163 C200,56.8680717 198.721117,55.5911602 197.142429,55.5911602" id="Fill-53" fill="#FFFFFF"></path>
                <path d="M177.142857,90.5138122 C175.959797,90.5138122 175,91.4714877 175,92.6519337 C175,93.8331725 175.959797,94.7900552 177.142857,94.7900552 C178.325918,94.7900552 179.285714,93.8331725 179.285714,92.6519337 C179.285714,91.4714877 178.325918,90.5138122 177.142857,90.5138122" id="Fill-59" fill="#FFFFFF"></path>
                <path d="M93.2142857,24.2320442 C91.4391716,24.2320442 90,25.6680353 90,27.4392265 C90,29.2104178 91.4391716,30.6464088 93.2142857,30.6464088 C94.9893999,30.6464088 96.4285714,29.2104178 96.4285714,27.4392265 C96.4285714,25.6680353 94.9893999,24.2320442 93.2142857,24.2320442" id="Fill-61" fill="#FFFFFF"></path>
                <path d="M166.428571,24.2320442 C164.850405,24.2320442 163.571429,25.5081939 163.571429,27.0828729 C163.571429,28.657552 164.850405,29.9337017 166.428571,29.9337017 C168.006738,29.9337017 169.285714,28.657552 169.285714,27.0828729 C169.285714,25.5081939 168.006738,24.2320442 166.428571,24.2320442" id="Fill-65" fill="#FFFFFF"></path>
                <path d="M71.7857143,40.6243094 C70.7993375,40.6243094 70,41.4218804 70,42.4060773 C70,43.3902743 70.7993375,44.1878453 71.7857143,44.1878453 C72.7720911,44.1878453 73.5714286,43.3902743 73.5714286,42.4060773 C73.5714286,41.4218804 72.7720911,40.6243094 71.7857143,40.6243094" id="Fill-67" fill="#FFFFFF"></path>
                <path d="M80.3571429,1.42541436 C79.3706832,1.42541436 78.5714286,2.22375558 78.5714286,3.20718232 C78.5714286,4.19146199 79.3706832,4.98895028 80.3571429,4.98895028 C81.3427477,4.98895028 82.1428571,4.19146199 82.1428571,3.20718232 C82.1428571,2.22375558 81.3427477,1.42541436 80.3571429,1.42541436" id="Fill-71" fill="#FFFFFF"></path>
                <g id="Group-75" transform="translate(122.142857, 0.000000)">
                    <polygon id="Clip-74" points="0.271607143 0.135221741 6.0177944 0.135221741 6.0177944 5.86840686 0.271607143 5.86840686"></polygon>
                    <path d="M4.58157336,3.00166261 L5.7213417,1.8644131 C6.11661197,1.47001635 6.11661197,0.825112662 5.7213417,0.430715918 C5.3252027,0.0363191728 4.67887066,0.0363191728 4.28446911,0.430715918 L3.14470077,1.56796543 L2.00493243,0.430715918 C1.60966216,0.0363191728 0.96246139,0.0363191728 0.568059846,0.430715918 C0.172789575,0.825112662 0.172789575,1.47001635 0.568059846,1.8644131 L1.70695946,3.00166261 L0.568059846,4.13891212 C0.172789575,4.53330887 0.172789575,5.17821256 0.568059846,5.5726093 C0.96246139,5.96700605 1.60966216,5.96700605 2.00493243,5.5726093 L3.14470077,4.43535979 L4.28446911,5.5726093 C4.67887066,5.96700605 5.3252027,5.96700605 5.7213417,5.5726093 C6.11661197,5.17821256 6.11661197,4.53330887 5.7213417,4.13891212 L4.58157336,3.00166261 Z" id="Fill-73" fill="#FFFFFF"></path>
                </g>
                <g id="Group-78" transform="translate(63.571429, 68.419890)">
                    <polygon id="Clip-77" points="0 0.0563857324 5.67494637 0.0563857324 5.67494637 5.78987423 0 5.78987423"></polygon>
                    <path d="M4.25645646,2.92312998 L5.38215358,1.78588047 C5.77254397,1.39148372 5.77254397,0.746580036 5.38215358,0.352183291 C4.99176319,-0.0422134538 4.35341055,-0.0422134538 3.96302016,0.352183291 L2.83732304,1.48943281 L1.71162591,0.352183291 C1.32209352,-0.0422134538 0.682882883,-0.0422134538 0.292492492,0.352183291 C-0.0978978979,0.746580036 -0.0978978979,1.39148372 0.292492492,1.78588047 L1.41818962,2.92312998 L0.292492492,4.0603795 C-0.0978978979,4.45477624 -0.0978978979,5.09967993 0.292492492,5.49407668 C0.682882883,5.88847342 1.32209352,5.88847342 1.71162591,5.49407668 L2.83732304,4.35682716 L3.96302016,5.49407668 C4.35341055,5.88847342 4.99176319,5.88847342 5.38215358,5.49407668 C5.77254397,5.09967993 5.77254397,4.45477624 5.38215358,4.0603795 L4.25645646,2.92312998 Z" id="Fill-76" fill="#FFFFFF"></path>
                </g>
                <path d="M176.607701,106.549724 L177.599399,105.560217 C177.943057,105.217318 177.943057,104.656212 177.599399,104.312422 C177.255741,103.969524 176.693392,103.969524 176.349734,104.312422 L175.358035,105.30282 L174.365444,104.312422 C174.021786,103.969524 173.459437,103.969524 173.114886,104.312422 C172.771228,104.656212 172.771228,105.217318 173.114886,105.560217 L174.106585,106.549724 L173.114886,107.539231 C172.771228,107.88302 172.771228,108.444127 173.114886,108.787025 C173.459437,109.129924 174.021786,109.129924 174.365444,108.787025 L175.358035,107.797518 L176.349734,108.787025 C176.693392,109.129924 177.255741,109.129924 177.599399,108.787025 C177.943057,108.444127 177.943057,107.88302 177.599399,107.539231 L176.607701,106.549724 Z" id="Fill-79" fill="#FFFFFF"></path>
                <path d="M178.541134,54.8086775 L168.816978,64.2361881 L166.715762,66.2730277 C166.219375,66.7542062 165.568322,66.9944751 164.91793,66.9944751 C164.266877,66.9944751 163.616485,66.7542062 163.119437,66.2730277 L158.601723,61.8918046 C157.60895,60.9294475 157.60895,59.3705829 158.601723,58.4075852 C159.593174,57.4452282 161.203292,57.4452282 162.196065,58.4075852 L164.91793,61.0460581 L174.946792,51.3244581 C175.939566,50.3614605 177.549683,50.3614605 178.541134,51.3244581 C179.533908,52.2868152 179.533908,53.847602 178.541134,54.8086775 Z" id="Shape" fill="#FFFFFF" fill-rule="nonzero"></path>
            </g>
        </g>
    </g>
</svg>