<svg xmlns="http://www.w3.org/2000/svg" width="36" height="36" viewBox="0 0 36 36">
  <g fill="none" fill-rule="evenodd">
    <path fill="#FFF" d="M12.02948,1.77648926 C11.6493531,1.71194456 11.2615356,1.83746334 10.9915466,2.11239626 L2.50735472,10.5965881 C2.28213499,10.8215332 2.15551758,11.1269531 2.15551758,11.4455566 C2.15551758,11.7638855 2.28213499,12.0693054 2.50735472,12.2945252 L3.59335329,13.3805237 C3.41235352,13.4038696 3.23052975,13.3417969 3.10144043,13.2124328 L0.983551008,11.0945434 C0.756134016,10.8704223 0.627868688,10.5647278 0.627868688,10.245575 C0.627868688,9.9264221 0.756134016,9.6204529 0.983551008,9.39660645 L9.4674683,0.912414516 C9.69131468,0.684997594 9.99728395,0.557006836 10.3164367,0.557006836 C10.6355896,0.557006836 10.9415588,0.684997594 11.1654053,0.912414516 L12.02948,1.77648926 Z"/>
    <polygon fill="#FFF" points="9.89 1.376 4.375 6.891 1.405 9.861 .556 9.013 9.041 .527"/>
    <path fill="#00AEC7" d="M5.6472473,4.76998903 C5.81863402,4.94329837 6.07791136,4.9954834 6.30313109,4.90264889 C6.52835081,4.80953981 6.67474369,4.58953861 6.67392316,4.34564212 L6.66128538,4.2311096 C6.65386959,4.19128418 6.64123535,4.15283203 6.62338259,4.11657715 C6.61129763,4.08004762 6.59399414,4.0457153 6.57174684,4.0144043 C6.54867555,3.98171995 6.523407,3.95068359 6.49566647,3.92156986 C6.38195801,3.81005859 6.23062132,3.74578861 6.0715942,3.74139408 C5.74420163,3.7512817 5.4810791,4.01412966 5.47146605,4.34152223 C5.47393795,4.42034916 5.49124144,4.49780273 5.52255251,4.57003786 C5.55056761,4.64419554 5.59286501,4.71231077 5.6472473,4.76998903 Z"/>
    <path fill="#0033A0" fill-rule="nonzero" d="M31.6002502,13.6793518 C31.8251953,13.9045715 32.1306152,14.0309143 32.4489441,14.0309143 C32.767273,14.0309143 33.0726929,13.9045715 33.2976379,13.6793518 L35.4185486,11.5584412 C35.7563782,11.2206116 35.9458924,10.7627563 35.9458924,10.2854004 C35.9458924,9.80804447 35.7563782,9.35018923 35.4185486,9.01263431 L26.9335327,0.52734375 C26.5959778,0.189788836 26.1381226,0 25.660492,0 C25.183136,0 24.7252808,0.189788836 24.3877258,0.52734375 L22.2665406,2.64825436 C22.0415955,2.87347416 21.9149781,3.17861937 21.9149781,3.49694824 C21.9149781,3.81527712 22.0415955,4.12069704 22.2665406,4.34564212 L17.9873657,8.62179567 L13.708191,4.34564212 C13.9334106,4.12069704 14.0600281,3.81527712 14.0600281,3.49694824 C14.0600281,3.17861937 13.9334106,2.87347416 13.708191,2.64825436 L11.5872803,0.52734375 C11.2497254,0.189788836 10.7918701,0 10.3142395,0 C9.83688356,0 9.37902832,0.189788836 9.04147341,0.52734375 L7.34463499,2.22418209 C7.11035156,2.45846559 7.11007692,2.83831791 7.34436035,3.07287598 C7.57864378,3.30715941 7.95849609,3.30743405 8.19305423,3.07315062 L9.88742067,1.37576292 C10.0000305,1.26315309 10.1527405,1.19970703 10.3120422,1.19970703 C10.471344,1.19970703 10.6240539,1.26315309 10.7363891,1.37576292 L12.8597717,3.49859616 L12.4398193,3.9185486 C12.4365234,3.92047116 12.4332275,3.92266842 12.4302063,3.9251404 C12.4302063,3.9251404 12.4266357,3.9317322 12.4241638,3.9342041 L3.96002194,12.3964234 C3.95700075,12.3999939 3.95233158,12.4008179 3.94931032,12.4043884 C3.94628906,12.407959 3.94436644,12.4120789 3.94134525,12.4156494 L3.52578734,12.8309326 L1.40460202,10.709198 C1.17086794,10.4751892 1.17086794,10.0956116 1.40460202,9.86160277 L4.79772949,6.46792601 C5.02542113,6.23281859 5.02267458,5.85845944 4.79168705,5.62692262 C4.5604248,5.3951111 4.1863403,5.39126585 3.95040895,5.6184082 L0.556182844,9.01263431 C0.21862793,9.35018923 0.0288390938,9.80804447 0.0288390938,10.2854004 C0.0288390938,10.7627563 0.21862793,11.2206116 0.556182844,11.5584412 L2.67736816,13.6793518 C2.90231325,13.9045715 3.20773317,14.0309143 3.52606205,14.0309143 C3.84439085,14.0309143 4.14953613,13.9045715 4.37475586,13.6793518 L12.0476074,21.3552246 L3.47415159,29.9262085 C3.06518555,29.8207398 2.63067623,29.9341736 2.32580566,30.2261352 L0.204620344,32.3470459 C-0.0296630859,32.5813293 -0.0296630859,32.9611816 0.204620344,33.1954651 L2.74740602,35.7412719 C2.86001585,35.8538818 3.01272581,35.9173279 3.17202757,35.9173279 C3.33132933,35.9173279 3.48403929,35.8538818 3.59637455,35.7412719 L5.72058105,33.6184387 C6.02737425,33.3187867 6.14520267,32.8746643 6.02709961,32.4624023 L14.6700439,23.8222046 L17.9807739,23.1622009 L21.3049621,23.8222046 L29.9448852,32.4624023 C29.8267822,32.8746643 29.9446106,33.3185119 30.2514038,33.6178894 L32.3731384,35.739624 C32.4857483,35.8522339 32.6384582,35.9154053 32.7974854,35.9154053 C32.9567871,35.9154053 33.1094971,35.8522339 33.222107,35.739624 L35.7703857,33.1984863 C36.0043945,32.9642029 36.0043945,32.5843506 35.7703857,32.3500672 L33.6475525,30.2255859 C33.3421326,29.9338989 32.907898,29.8204651 32.4992066,29.9253845 L23.9273987,21.3552246 L31.6002502,13.6788025 L31.6002502,13.6793518 Z M25.236145,1.37576292 C25.3484802,1.26315309 25.5011902,1.19970703 25.660492,1.19970703 C25.8197937,1.19970703 25.9725037,1.26315309 26.0851135,1.37576292 L34.5704041,9.86160277 C34.8041382,10.0956116 34.8041382,10.4751892 34.5704041,10.709198 L32.4475708,12.8309326 L32.0317383,12.4156494 C32.0317383,12.4120789 32.0273437,12.4074097 32.0237732,12.4043884 C32.0202027,12.4013672 32.0160828,12.3999939 32.0130615,12.3964234 L23.5475464,3.92980957 C23.5475464,3.92980957 23.5447998,3.92321777 23.5417785,3.92102051 C23.5387574,3.9185486 23.5351867,3.91744997 23.5321656,3.91442871 L23.1119385,3.49420163 L22.6878662,3.9185486 L25.236145,1.37576292 Z M23.116333,17.0752258 L22.9806519,16.9398193 L22.2607727,13.3258667 C22.1907348,12.9781494 22.0215454,12.657898 21.7735291,12.4043884 L20.5339965,11.1665039 L24.8096008,6.89089964 L29.0549926,11.1365662 L23.116333,17.0752258 Z M19.6855774,12.0149231 L20.9160461,13.2453918 C21.0014648,13.3332825 21.0594177,13.4439697 21.0827637,13.5639953 L21.4519043,15.4107971 L18.8717652,12.8309326 L19.6855774,12.0149231 Z M17.1397705,9.47021484 L16.2899781,10.3191834 L12.0127258,6.04138184 L12.8592224,5.19461058 L17.1397705,9.47021484 Z M13.7156067,13.3288879 L12.9954529,16.9384461 L12.8597717,17.0741272 L6.91973873,11.1340942 L11.1654053,6.88842773 L15.4415588,11.1645813 L14.1968078,12.4090576 C13.9507141,12.6625672 13.7834473,12.9822693 13.7156067,13.3288879 Z M6.07022093,11.9836121 L12.4302063,18.3435974 C12.5002441,18.4108887 12.5862121,18.4597778 12.6798706,18.4853211 L12.3799438,19.9907227 L5.22317503,12.8303833 L6.07022093,11.9836121 Z M3.17477419,34.4687805 L1.47738649,32.7713928 L3.17477419,31.0740051 L4.87216188,32.7713928 L3.17477419,34.4687805 Z M22.987793,22.1086121 L31.5277405,30.6496582 L31.1033936,31.0745545 L30.6787719,31.4986267 L22.024292,22.8435974 C22.0083618,22.8320617 21.992157,22.8210754 21.9751282,22.8111877 C21.9460144,22.7883911 21.9149781,22.768341 21.8820191,22.7513123 C21.8441162,22.7304382 21.8037414,22.713684 21.7619934,22.7015992 C21.7468872,22.6941834 21.7312317,22.6878662 21.7153015,22.682373 L21.0415649,22.5477906 L22.618927,22.2322082 C22.7458191,22.2044678 22.8694153,22.1635437 22.987793,22.1099854 L22.987793,22.1086121 Z M34.4976196,32.7713928 L32.800232,34.4687805 L31.1028442,32.7713928 L32.800232,31.0740051 L34.4976196,32.7713928 Z M22.7005005,20.886383 C22.6126098,20.9726258 22.5013733,21.0308533 22.3807984,21.0544739 L14.2586059,22.6804504 C14.2424011,22.6859436 14.2270203,22.6925354 14.2116394,22.6996765 C14.1698914,22.7120361 14.1297912,22.7285156 14.0916137,22.7493896 C14.0589295,22.7664184 14.0276184,22.7867432 13.9987793,22.8095398 C13.9817505,22.8194275 13.965271,22.8301391 13.9493408,22.8419494 L5.29623415,31.4986267 L4.44726562,30.6496582 L13.1022949,21.9954529 C13.1165771,21.9803467 13.1220703,21.9616699 13.1347046,21.9460144 C13.1635437,21.9122314 13.1882629,21.8751526 13.2085877,21.8356018 C13.2245178,21.8045654 13.2377014,21.7721558 13.2475891,21.7386475 C13.253357,21.7199707 13.2643433,21.7043152 13.2684631,21.6850891 L14.8914184,13.5670166 C14.9136658,13.4491883 14.9691467,13.3401489 15.0515442,13.2528076 L23.1157837,5.19461058 L23.9622803,6.04138184 L17.6022949,12.4013672 C17.4891357,12.513977 17.425415,12.6669617 17.425415,12.8268127 C17.425415,12.9863891 17.4891357,13.1393738 17.6022949,13.2519836 L22.6933594,18.3430481 C22.8054199,18.4559326 22.9581299,18.5193787 23.1174316,18.5188293 C23.2764588,18.5188293 23.4291687,18.455658 23.5417785,18.3430481 L29.9047852,11.9830627 L30.7518311,12.829834 L22.7005005,20.886383 Z"/>
    <path fill="#00AEC7" fill-rule="nonzero" d="M21.8095093,19.6246033 C21.8218689,19.5845032 21.829834,19.5430297 21.8334045,19.5010071 C21.8369751,19.4644775 21.8369751,19.4273987 21.8334045,19.3905945 C21.8345032,19.3708191 21.8345032,19.3507691 21.8334045,19.330719 C21.8270874,19.3120422 21.8193969,19.2939148 21.8106079,19.276062 C21.7998963,19.2400818 21.785614,19.2054748 21.7680359,19.1722412 C21.7485352,19.1337891 21.7243652,19.0978088 21.6966248,19.0648498 C21.6853637,19.0516662 21.6809692,19.0349121 21.6686096,19.0222778 L16.9249878,14.278656 C16.9101562,14.2679443 16.89505,14.257782 16.8793945,14.2487183 C16.8475342,14.2220764 16.8129273,14.1992797 16.776123,14.1803284 C16.7431641,14.1622009 16.7082825,14.1473694 16.6723023,14.136383 C16.6525269,14.1306152 16.6374207,14.1174316 16.6170959,14.1130371 C16.5962219,14.1119385 16.5750732,14.1119385 16.5541992,14.1130371 C16.518219,14.1094666 16.4819641,14.1094666 16.4459839,14.1130371 C16.4023132,14.1166076 16.3594666,14.1248474 16.3177185,14.1383057 C16.2899781,14.1473694 16.2627869,14.1586304 16.2366943,14.171814 C16.1913757,14.1940613 16.1493531,14.2223511 16.1111756,14.2553101 C16.1004639,14.2649231 16.0867309,14.2679443 16.0765686,14.2781067 C16.0664062,14.2882691 16.063385,14.3014527 16.0543213,14.311615 C16.0221863,14.3492432 15.9947205,14.3904419 15.9727478,14.4346619 C15.9579162,14.4632263 15.9455566,14.4928894 15.9353943,14.5236511 C15.9260559,14.5428772 15.9178162,14.5629273 15.9109497,14.5835266 L14.7227783,20.5186157 C14.6881714,20.6949463 14.7340393,20.8773193 14.8477478,21.0160217 C14.9617309,21.1547242 15.1320191,21.2352127 15.3113709,21.2352127 C15.3517456,21.2354736 15.3921203,21.2316285 15.4313965,21.223114 L21.3653869,20.0357666 C21.3848877,20.0289002 21.4041137,20.0209351 21.4225159,20.0115967 C21.4557495,20.0014343 21.4878845,19.9879761 21.5183715,19.9714965 C21.5595703,19.9508972 21.5980225,19.925354 21.6331787,19.8959656 C21.644989,19.8849793 21.6600952,19.8814087 21.6713562,19.8701477 C21.6828918,19.8586121 21.6870117,19.8424072 21.697998,19.8300476 C21.7282105,19.7946167 21.7537537,19.7556152 21.7746277,19.7141418 C21.7886352,19.6853027 21.8001709,19.655365 21.8095093,19.6246033 Z M16.8673096,15.9186402 L20.0275269,19.0780334 L16.072998,19.870697 L16.8673096,15.9186402 Z"/>
  </g>
</svg>
