<svg xmlns="http://www.w3.org/2000/svg" width="22" height="33" viewBox="0 0 22 33">
  <g fill="none">
    <path fill="#00AEC7" d="M13.45872,10.4845898 C13.33992,10.2099551 13.1716514,9.97657031 12.9536,9.78417773 C12.7354229,9.59197852 12.4694743,9.43103906 12.1557543,9.30155273 C11.8418457,9.17206641 11.4899086,9.05250586 11.0996286,8.94254883 C10.8163943,8.86417383 10.5676057,8.79359766 10.3534514,8.73062695 C10.1391086,8.66791406 9.96116,8.59933594 9.81966857,8.52463477 C9.67792571,8.45012695 9.57088,8.36569336 9.49828,8.27152734 C9.42542857,8.17736133 9.38922286,8.05966992 9.38922286,7.91838867 C9.38922286,7.45548633 9.72588571,7.22390625 10.3994,7.22390625 C10.6442914,7.22390625 10.8890571,7.25922656 11.1341371,7.32986719 C11.3790286,7.40050781 11.6047486,7.48287891 11.8114229,7.57710938 C12.0180343,7.67127539 12.1902,7.76157422 12.3279829,7.8478125 C12.4657029,7.93424414 12.54616,7.99308984 12.5691029,8.02441406 L13.3956114,6.42352734 C13.21188,6.31369922 13.0110514,6.20393555 12.7928743,6.09391406 C12.57476,5.98408594 12.3394229,5.88605273 12.0869257,5.79968555 C11.8556114,5.72066602 11.6141771,5.65543945 11.3636286,5.60265234 L11.3636286,3.70708594 L9.47791429,3.70708594 L9.47791429,5.63094727 C9.41914286,5.64667383 9.36074857,5.66330273 9.30310857,5.68199414 C8.93954286,5.79975 8.62010286,5.97448242 8.3446,6.20580469 C8.06903429,6.43732031 7.85092,6.72188086 7.69025714,7.05916406 C7.52953143,7.39664063 7.4492,7.78509961 7.4492,8.22454102 C7.4492,8.53849219 7.49313714,8.8130625 7.5812,9.04850977 C7.66907429,9.28389258 7.80308571,9.49194727 7.98304571,9.67235156 C8.16275429,9.85294922 8.39054857,10.0118906 8.66605143,10.1490469 C8.94155429,10.2864609 9.26677714,10.4138848 9.64178286,10.5316406 C9.92482857,10.6180723 10.1870686,10.6964473 10.4281886,10.7670879 C10.6692457,10.8377285 10.8776171,10.9142344 11.0538057,10.9966055 C11.2297429,11.079041 11.3675257,11.1713379 11.4670286,11.2732383 C11.5664057,11.375332 11.6162514,11.5048184 11.6162514,11.6616973 C11.6162514,12.0777422 11.28336,12.2855391 10.6175143,12.2855391 C10.3036686,12.2855391 9.99365714,12.2425488 9.68766857,12.1560527 C9.38149143,12.0698145 9.10404,11.9717813 8.85544,11.8617598 C8.60665143,11.7519316 8.39802857,11.642168 8.22982286,11.5322109 C8.06136571,11.4223828 7.9618,11.3479395 7.93131429,11.3085586 L7.10480571,12.9918164 C7.34190286,13.156623 7.60024571,13.3019004 7.87970857,13.4273262 C8.15892,13.5529453 8.44793714,13.6609043 8.74638286,13.7510098 C8.98524,13.8232617 9.22925143,13.8810117 9.47797714,13.9255488 L9.47797714,16.035293 L11.3636914,16.035293 L11.3636914,13.9644141 C11.4834343,13.9447559 11.6022343,13.9211016 11.7196514,13.892291 C12.0869886,13.8021855 12.4121486,13.6568438 12.6953829,13.4567813 C12.9784286,13.2566543 13.2062229,12.9938145 13.3783886,12.6681328 C13.5505543,12.3425801 13.6366686,11.9441953 13.6366686,11.4733652 C13.6366686,11.0889668 13.5773314,10.7593535 13.45872,10.4845898 Z"/>
    <path fill="#0033A0" d="M21.9741657,22.2279492 L18.5210457,22.2279492 L18.5210457,17.8087207 L16.14404,17.8087207 C18.51476,16.0089961 20.0546971,13.1211738 20.0546971,9.87118945 C20.05476,4.4281875 15.7362857,0 10.428,0 C5.11984,0 0.80124,4.4281875 0.80124,9.87118945 C0.80124,13.1211738 2.34124,16.0089961 4.71189714,17.8087207 L0.0257714286,17.8087207 L0.0257714286,24.161543 L3.47889143,24.161543 L3.47889143,26.6471777 L0.0257714286,26.6471777 L0.0257714286,33 L18.5211086,33 L18.5211086,28.5807715 L21.9741657,28.5807715 L21.9741657,22.2279492 L21.9741657,22.2279492 Z M2.68695429,9.87118945 C2.68695429,5.49437109 6.15962286,1.93359375 10.428,1.93359375 C14.69644,1.93359375 18.1690457,5.49437109 18.1690457,9.87118945 C18.1690457,14.2479434 14.69644,17.8087207 10.428,17.8087207 C6.15962286,17.8087207 2.68695429,14.2479434 2.68695429,9.87118945 Z M1.91148571,22.2279492 L1.91148571,19.7423145 L16.6353943,19.7423145 L16.6353943,22.2279492 L1.91148571,22.2279492 Z M16.6354571,31.0664062 L1.91148571,31.0664062 L1.91148571,28.5807715 L16.6354571,28.5807715 L16.6354571,31.0664062 L16.6354571,31.0664062 Z M20.0883886,26.6471777 L5.36454286,26.6471777 L5.36454286,24.161543 L20.0883886,24.161543 L20.0883886,26.6471777 Z"/>
  </g>
</svg>
