<svg xmlns="http://www.w3.org/2000/svg" width="36" height="36" viewBox="0 0 36 36">
  <g fill="none">
    <path fill="#00AEC7" d="M24.0219667 10.7300405C23.6402367 10.7300405 23.3303683 11.0390986 23.3303683 11.4213687 23.3303683 11.8033688 23.6402367 12.1129671 24.0219667 12.1129671 24.404507 12.1129671 24.713565 11.8033688 24.713565 11.4213687 24.713565 11.0390986 24.404507 10.7300405 24.0219667 10.7300405zM11.4559486 23.2957884C11.0734083 23.2957884 10.7643502 23.6056568 10.7643502 23.9873868 10.7643502 24.3699271 11.0734083 24.6789851 11.4559486 24.6789851 11.8376785 24.6789851 12.147547 24.3699271 12.147547 23.9873868 12.147547 23.6056568 11.8376785 23.2957884 11.4559486 23.2957884z"/>
    <path fill="#0033A0" d="M34.5839704,4.25468068 C34.3505559,4.20037942 34.1052546,4.27089002 33.9366775,4.44108808 L31.0695161,7.33094262 L29.6949643,7.33094262 L28.1818227,5.7632296 L28.1818227,4.36949686 L31.0079205,1.50125471 C31.1751469,1.33159698 31.2432261,1.08764645 31.1878442,0.855582833 C31.1327325,0.623789285 30.9619941,0.436841603 30.736144,0.360657756 C30.0261751,0.121299851 29.2832471,-6.56129406e-05 28.5276219,-6.56129406e-05 C26.2750645,-6.56129406e-05 24.2286357,1.05036501 22.9129779,2.88174991 C21.6816086,4.59615737 21.30204,6.6971576 21.8458632,8.70792575 L16.7515389,13.8022501 L8.26433027,5.29559023 L8.26433027,3.62602863 C8.26433027,3.38315872 8.13681682,3.1578489 7.92852683,3.03303705 L3.03844016,0.0986067802 C2.7661233,-0.0648373463 2.41789274,-0.0218825871 2.19366355,0.202616742 L0.237736936,2.15827315 C0.0135077459,2.38277248 -0.0294469442,2.73100304 0.133727044,3.00331989 L3.06761696,7.89340657 C3.19242882,8.10169656 3.41746843,8.22893987 3.66033834,8.22921001 L5.32935973,8.22975035 L13.8173788,16.7364102 L8.74250567,21.8112833 C6.73173752,21.2677302 4.62965666,21.6478392 2.91443872,22.8800189 C1.08413444,24.1948663 0.034579918,26.2407547 0.034579918,28.4933122 C0.034579918,29.2486672 0.155879769,29.9918653 0.395237674,30.7015641 C0.47169166,30.928765 0.660530448,31.1003138 0.893944895,31.1543449 C1.12762955,31.2086462 1.37266064,31.1381356 1.54150787,30.9679376 L4.40839927,28.0783532 L5.7905153,28.0783532 L7.3652524,29.6530902 L7.3652524,31.0352063 L4.475668,33.9020976 C4.30546993,34.0709449 4.23495934,34.315976 4.2892606,34.5496606 C4.34329172,34.7830751 4.51484055,34.9719138 4.7420414,35.0483679 C5.4517402,35.2877257 6.1949383,35.4090256 6.95029339,35.4090256 C9.20285082,35.4090256 11.2484691,34.3592009 12.5635866,32.5288966 C13.7957663,30.8136787 14.1758753,28.7118681 13.6323222,26.7010998 L17.7081599,22.6252621 L18.6418177,23.6394263 L18.2133509,24.067623 C17.9431952,24.3377786 17.9431952,24.7757008 18.2133509,25.0458564 C18.4835065,25.3157419 18.9211586,25.3157419 19.1915844,25.0458564 L19.5795278,24.6579129 L28.3395936,34.1733339 C28.3460773,34.1803579 28.3528313,34.1871117 28.3595851,34.1938657 C29.9805188,35.8147993 32.6067015,35.8153396 34.2284456,34.1935955 C35.845597,32.5756335 35.845597,29.9429671 34.2284456,28.3250052 C34.2214215,28.3179811 34.2141274,28.3112273 34.2068332,28.3044734 L24.6765537,19.5611572 L25.0601746,19.1775363 C25.3303302,18.9076508 25.3303302,18.4697286 25.0601746,18.199573 C24.790019,17.9294174 24.352367,17.9294174 24.0819412,18.199573 L23.6564461,18.6253382 L22.6403908,17.692761 L26.7359499,13.597202 C27.3181352,13.7528116 27.9189613,13.8316971 28.5276219,13.8316971 C32.3411385,13.8316971 35.4433354,10.7292301 35.4433354,6.91598361 C35.4433354,6.16035838 35.3220355,5.41743042 35.0826776,4.70746148 C35.0062236,4.48026063 34.8173848,4.3087118 34.5839704,4.25468068 Z M6.10578692,7.04971065 C5.97611222,6.91976582 5.80024097,6.85357764 5.61653516,6.85357764 L4.05233414,6.85303737 L1.59770024,2.75477673 L2.789897,1.56258005 L6.88113355,4.01775423 L6.88113355,5.58195524 C6.88113355,5.76512071 6.95380539,5.94072189 7.08320995,6.07039658 L15.7735756,14.7804836 L14.7953422,15.7584469 L6.10578692,7.04971065 Z M23.6975098,20.5402012 L33.2602079,29.3129643 C34.3284031,30.3925061 34.3251613,32.1404128 33.2502122,33.2159024 C32.1728315,34.2932829 30.4287069,34.2965248 29.3470039,33.2253578 L20.5583015,23.678869 L23.6975098,20.5402012 Z M22.6774022,19.604112 L19.6205915,22.6603824 L18.6869337,21.6462182 L21.6613469,18.6715348 L22.6774022,19.604112 Z M28.5276219,12.4485004 C27.9227435,12.4485004 27.3278608,12.3515145 26.7599938,12.1602443 C26.5111804,12.0767662 26.236162,12.1410632 26.050295,12.3266602 C22.5831179,15.7938373 15.1122347,23.2644503 12.3612401,26.0157151 C12.175373,26.2015821 12.1108058,26.4766005 12.1948242,26.725684 C12.7697154,28.4327973 12.4946969,30.2536461 11.4400094,31.7219418 C10.3882936,33.1859151 8.75169099,34.0258289 6.95029339,34.0258289 C6.74794678,34.0258289 6.54668087,34.0147525 6.34730607,33.9934102 L8.54394128,31.8137947 C8.67469666,31.68412 8.74844912,31.5074383 8.74844912,31.322922 L8.74844912,29.3664551 C8.74844912,29.1830194 8.67550707,29.0071481 8.54583238,28.8774734 L6.56586194,26.897503 C6.43618724,26.7678283 6.26031592,26.6948862 6.07688032,26.6948862 L4.12041336,26.6948862 C3.93589706,26.6948862 3.75921533,26.7686388 3.62927043,26.899394 L1.44992517,29.0960293 C1.42831273,28.8966545 1.4175065,28.6953885 1.4175065,28.493042 C1.4175065,26.6913742 2.25715014,25.0550417 3.72139354,24.0033259 C5.18941909,22.9486384 7.0105381,22.6733499 8.71792156,23.2485111 C8.96673486,23.3325296 9.24175323,23.2679623 9.42762029,23.0820953 C9.46571228,23.0442735 23.1069496,9.40276598 23.1166752,9.39304037 C23.3025423,9.20717331 23.3668393,8.93242508 23.2830911,8.68334164 C22.7079298,6.97622832 22.9824079,5.15591979 24.0362849,3.68870473 C25.0888112,2.2233807 26.725684,1.38319672 28.5273518,1.38319672 C28.7359119,1.38319672 28.9431213,1.39481343 29.1484395,1.4175065 L26.9974605,3.60063397 C26.8699471,3.73003852 26.798626,3.90428887 26.798626,4.08583344 L26.798626,6.0423004 C26.798626,6.22168372 26.868056,6.39377283 26.9925978,6.52263704 L28.9034084,8.50260748 C29.0336234,8.63768529 29.2132769,8.71386921 29.401035,8.71386921 L31.3575019,8.71386921 C31.541748,8.71386921 31.7184298,8.64038688 31.8483746,8.50936136 L34.02772,6.31299629 C34.0493324,6.51237109 34.0601386,6.71363707 34.0601386,6.91598361 C34.0601386,9.96658075 31.578219,12.4485004 28.5276219,12.4485004 L28.5276219,12.4485004 Z"/>
    <path fill="#00AEC7" d="M21.5770584 12.8883137L12.9226234 21.5427487C12.652738 21.8126341 12.652738 22.2505563 12.9226234 22.5207119 13.192779 22.7908675 13.6307013 22.7908675 13.9008569 22.5207119L22.5552918 13.866277C22.8254474 13.5963915 22.8254474 13.1584693 22.5552918 12.8883137 22.2851362 12.6181581 21.847214 12.6181581 21.5770584 12.8883137L21.5770584 12.8883137zM30.3165924 31.2602459C30.586748 31.529591 31.0246702 31.529591 31.2948258 31.2586249 31.5644412 30.9881992 31.5636307 30.550277 31.2932049 30.2806617L25.0593642 24.0668125C24.7889385 23.7971972 24.350746 23.7980076 24.0814009 24.0684334 23.8115154 24.3391293 23.8123259 24.7767814 24.0827517 25.0463967L30.3165924 31.2602459z"/>
  </g>
</svg>
