<svg xmlns="http://www.w3.org/2000/svg" width="36" height="36" viewBox="0 0 36 36">
  <g fill="none" fill-rule="evenodd">
    <path fill="#0033A0" fill-rule="nonzero" d="M34.2000065,20.4 C33.205894,20.4 32.4000065,21.2058875 32.4000065,22.2 L32.4000065,24 L12.9894065,24 C13.1262707,23.7196106 13.1982504,23.4120047 13.2000065,23.1 C13.2000065,21.940202 12.2598045,21 11.1000065,21 L6.90000653,21 C5.74020855,21 4.80000653,21.940202 4.80000653,23.1 C4.80176259,23.4120047 4.87374237,23.7196106 5.01060653,24 L3.60000653,24 L3.60000653,17.4 C3.60000653,16.4058875 2.79411908,15.6 1.80000653,15.6 C0.805893975,15.6 3.25612693e-06,16.4058875 3.25612693e-06,17.4 L3.25612693e-06,34.2 C-0.00165271489,35.0756624 0.628499397,35.8248485 1.49149972,35.9732324 C2.35450004,36.1216162 3.19869513,35.6259285 3.48960653,34.8 L32.5104065,34.8 C32.8013179,35.6259285 33.645513,36.1216162 34.5085133,35.9732324 C35.3715137,35.8248485 36.0016658,35.0756624 36.0000033,34.2 L36.0000033,22.2 C36.0000033,21.2058875 35.194119,20.4 34.2000065,20.4 Z M32.4000065,30.6 L11.4000065,30.6 C11.0686357,30.6 10.8000065,30.3313708 10.8000065,30 L10.8000065,25.2 L32.4000065,25.2 L32.4000065,30.6 Z M6.00000653,23.1 C6.00000653,22.6029437 6.40295027,22.2 6.90000653,22.2 L11.1000065,22.2 C11.5970628,22.2 12.0000065,22.6029437 12.0000065,23.1 C12.0000065,23.5970563 11.5970628,24 11.1000065,24 L6.90000653,24 C6.40295027,24 6.00000653,23.5970563 6.00000653,23.1 Z M1.80000653,34.8 C1.46863568,34.8 1.20000653,34.5313708 1.20000653,34.2 L1.20000653,17.4 C1.20000653,17.0686292 1.46863568,16.8 1.80000653,16.8 C2.13137738,16.8 2.40000653,17.0686292 2.40000653,17.4 L2.40000653,34.2 C2.40000653,34.5313708 2.13137738,34.8 1.80000653,34.8 Z M3.60000653,25.2 L9.60000653,25.2 L9.60000653,30 C9.60000653,30.9941125 10.405894,31.8 11.4000065,31.8 L32.4000065,31.8 L32.4000065,33.6 L3.60000653,33.6 L3.60000653,25.2 Z M34.8000065,34.2 C34.8000065,34.5313708 34.5313773,34.8 34.2000065,34.8 C33.8686357,34.8 33.6000065,34.5313708 33.6000065,34.2 L33.6000065,22.2 C33.6000065,21.8686292 33.8686357,21.6 34.2000065,21.6 C34.5313773,21.6 34.8000065,21.8686292 34.8000065,22.2 L34.8000065,34.2 Z"/>
    <path fill="#0033A0" fill-rule="nonzero" d="M18.0000065,19.2 C23.3019401,19.2 27.6000065,14.9019336 27.6000065,9.6 C27.6000065,4.2980664 23.3019401,-3.46389584e-14 18.0000065,-3.46389584e-14 C12.6980729,-3.46389584e-14 8.40000653,4.2980664 8.40000653,9.6 C8.40628829,14.8993294 12.7006771,19.1937182 18.0000065,19.2 Z M18.0000065,1.2 C22.6391984,1.2 26.4000065,4.9608081 26.4000065,9.6 C26.4000065,14.2391919 22.6391984,18 18.0000065,18 C13.3608146,18 9.60000653,14.2391919 9.60000653,9.6 C9.60496691,4.96286432 13.3628708,1.20496039 18.0000065,1.2 Z"/>
    <path fill="#00AEC7" fill-rule="nonzero" d="M13.8000065 12L15.6000065 12 15.6000065 13.8C15.6000065 14.4627417 16.1372648 15 16.8000065 15L19.2000065 15C19.8627482 15 20.4000065 14.4627417 20.4000065 13.8L20.4000065 12 22.2000065 12C22.8627482 12 23.4000065 11.4627417 23.4000065 10.8L23.4000065 8.4C23.4000065 7.7372583 22.8627482 7.2 22.2000065 7.2L20.4000065 7.2 20.4000065 5.4C20.4000065 4.7372583 19.8627482 4.2 19.2000065 4.2L16.8000065 4.2C16.1372648 4.2 15.6000065 4.7372583 15.6000065 5.4L15.6000065 7.2 13.8000065 7.2C13.1372648 7.2 12.6000065 7.7372583 12.6000065 8.4L12.6000065 10.8C12.6000065 11.4627417 13.1372648 12 13.8000065 12zM13.8000065 8.4L15.6000065 8.4C16.2627482 8.4 16.8000065 7.8627417 16.8000065 7.2L16.8000065 5.4 19.2000065 5.4 19.2000065 7.2C19.2000065 7.8627417 19.7372648 8.4 20.4000065 8.4L22.2000065 8.4 22.2000065 10.8 20.4000065 10.8C19.7372648 10.8 19.2000065 11.3372583 19.2000065 12L19.2000065 13.8 16.8000065 13.8 16.8000065 12C16.8000065 11.3372583 16.2627482 10.8 15.6000065 10.8L13.8000065 10.8 13.8000065 8.4zM12.6000065 27.6L25.8000065 27.6C26.1313773 27.6 26.4000065 27.3313708 26.4000065 27 26.4000065 26.6686292 26.1313773 26.4 25.8000065 26.4L12.6000065 26.4C12.2686357 26.4 12.0000065 26.6686292 12.0000065 27 12.0000065 27.3313708 12.2686357 27.6 12.6000065 27.6z"/>
    <circle cx="28.2" cy="27" r="1" fill="#00AEC7" fill-rule="nonzero"/>
  </g>
</svg>
