<svg xmlns="http://www.w3.org/2000/svg" width="11" height="11" viewBox="0 0 11 11">
  <path fill="#00AEC7" d="M41.7777778,25.1111111 L41.7777778,28.7777778 L41.7777778,28.7777778 L33.2222222,28.7777778 L33.2222222,25.1111111 C33.2222222,24.7736038 32.9486185,24.5 32.6111111,24.5 C32.2736038,24.5 32,24.7736038 32,25.1111111 L32,28.7777778 L32,28.7777778 C32,29.45 32.55,30 33.2222222,30 L41.7777778,30 C42.45,30 43,29.45 43,28.7777778 L43,25.1111111 C43,24.7736038 42.7263962,24.5 42.3888889,24.5 C42.0513815,24.5 41.7777778,24.7736038 41.7777778,25.1111111 Z M38.1111111,24.9094444 L39.262223,23.762777 C39.5007604,23.5251606 39.8866449,23.5255338 40.1247222,23.7636111 C40.3626649,24.0015538 40.3626649,24.3873351 40.1247222,24.6252778 L38.2071068,26.5428932 C37.8165825,26.9334175 37.1834175,26.9334175 36.7928932,26.5428932 L34.8752778,24.6252778 C34.6373351,24.3873351 34.6373351,24.0015538 34.8752778,23.7636111 C35.1133551,23.5255338 35.4992396,23.5251606 35.737777,23.762777 L36.8888889,24.9094444 L36.8888889,24.9094444 L36.8888889,19.6111111 C36.8888889,19.2736038 37.1624927,19 37.5,19 C37.8375073,19 38.1111111,19.2736038 38.1111111,19.6111111 L38.1111111,24.9094444 L38.1111111,24.9094444 Z" transform="translate(-32 -19)"/>
</svg>
