<svg xmlns="http://www.w3.org/2000/svg" width="24" height="23" viewBox="0 0 24 23">
  <g fill="none" transform="translate(.327)">
    <path fill="#0033A0" d="M22.3009709,7.86184517 L15.0467536,0.60771733 C14.6551513,0.216159801 14.1329403,0.0004921875 13.5762315,0.0004921875 C13.0195675,0.0004921875 12.4973118,0.216070313 12.1057095,0.607627841 L0.607225142,12.106157 C0.215667614,12.4977592 0,13.0199254 0,13.5766342 C0,14.133343 0.215667614,14.6555987 0.607225142,15.0471115 L1.50175355,15.9416399 L7.51409233,21.9539787 L6.68166903,21.9539787 C6.418125,21.9539787 6.20442614,22.1676328 6.20442614,22.4312216 C6.20442614,22.6947656 6.418125,22.908554 6.68166903,22.908554 L9.33004048,22.908554 C9.33250142,22.908554 9.3330831,22.908554 9.33370952,22.908554 L16.226706,22.908554 C16.49025,22.908554 16.7039489,22.6948551 16.7039489,22.4313111 C16.7039489,22.1677223 16.49025,21.9540682 16.226706,21.9540682 L11.1498366,21.9539787 L22.3010156,10.8027997 C23.1117827,9.99194318 23.1117827,8.67261222 22.3009709,7.86184517 Z M21.6260476,10.1278764 L10.1274737,21.6264503 C9.91659375,21.8372855 9.63470455,21.9535313 9.33362003,21.9539787 L9.32999574,21.9539787 C9.02900071,21.9534865 8.74720099,21.8372855 8.53641051,21.6264503 L2.51440696,15.604402 L15.7858307,2.49337259 C15.9721908,2.30701251 15.9721908,2.00480938 15.7858307,1.8184493 C15.5994259,1.63208921 15.2973122,1.63208921 15.1108627,1.81849404 L1.83943892,14.9295234 L1.28210369,14.3721882 C1.07086577,14.1609503 0.95453054,13.8784347 0.95453054,13.576679 C0.95453054,13.2749233 1.07086577,12.9923629 1.28214844,12.7810803 L12.7806328,1.28259588 C12.9919155,1.07135795 13.2744759,0.955022727 13.5762315,0.955022727 C13.8779872,0.955022727 14.1605476,1.07135795 14.3718303,1.28264063 L16.9537116,3.86447727 L3.64904354,16.949103 C3.46268346,17.1354183 3.46268346,17.4376214 3.64904354,17.624071 C3.74224596,17.7172287 3.86439794,17.7638075 3.98650519,17.7638075 C4.10861243,17.7638075 4.23076442,17.7171839 4.32396684,17.6240263 L17.6286349,4.53944531 L21.6260476,8.53672372 C22.0646761,8.97539702 22.0646314,9.68920313 21.6260476,10.1278764 Z"/>
    <path fill="#00AEC7" d="M11.7588516 13.7841136C11.5724915 13.5977536 11.2703778 13.5977983 11.0838835 13.7841136L7.32831392 17.5396385C7.14195384 17.7259986 7.14195384 18.028157 7.32831392 18.2146065 7.42151634 18.3078089 7.54366832 18.3543878 7.66577557 18.3543878 7.78788281 18.3543878 7.9100348 18.3077642 8.00323722 18.2146065L11.7588068 14.4590817C11.9452116 14.2726321 11.9452116 13.9704737 11.7588516 13.7841136zM10.2184837 17.3492067L8.67816051 18.8895298C8.49180043 19.0758899 8.49180043 19.378093 8.67816051 19.5644979 8.77136293 19.6576555 8.89351491 19.7042791 9.01562216 19.7042791 9.13781889 19.7042791 9.25988139 19.6576555 9.35308381 19.5644979L10.893407 18.0241747C11.079767 17.8378146 11.079767 17.5356115 10.893407 17.3492067 10.7070469 17.1628018 10.404978 17.1628018 10.2184837 17.3492067zM11.6359389 15.9318857L11.4334709 16.1343089C11.2470661 16.320669 11.2470661 16.6228274 11.4334261 16.809277 11.5265838 16.9024794 11.6487805 16.949103 11.7708878 16.949103 11.892995 16.949103 12.015147 16.9024794 12.1083047 16.809277L12.3107727 16.6068537C12.4971776 16.4204936 12.4971776 16.1183352 12.3108175 15.9319304 12.1245469 15.7455703 11.822299 15.7455256 11.6359389 15.9318857zM18.2142038 7.32880611C18.1247152 7.23931747 18.0033239 7.18902486 17.8767422 7.18902486 17.7501605 7.18902486 17.6288139 7.23931747 17.5392805 7.32880611L15.5143764 9.35366548C15.4248878 9.44319886 15.3745952 9.56454545 15.3745952 9.69112713 15.3745952 9.81770881 15.4248878 9.93910014 15.5143764 10.0285888L16.8643125 11.3783906C16.9575149 11.471593 17.0796669 11.5181719 17.2017741 11.5181719 17.3239709 11.5181719 17.4460334 11.4715483 17.5392358 11.3783906L19.5640504 9.35362074C19.7504105 9.16726065 19.7504105 8.86505753 19.5640504 8.67869744L18.2142038 7.32880611zM17.2017294 10.3660504L16.5267614 9.69112713 17.8766974 8.3412358 18.5516207 9.01620384 17.2017294 10.3660504z"/>
  </g>
</svg>
