<svg xmlns="http://www.w3.org/2000/svg" width="73" height="67" viewBox="0 0 73 67">
  <g fill="none" fill-rule="evenodd">
    <path fill="#0033A0" fill-rule="nonzero" d="M66.8733938,26.8317451 L66.3554342,26.8531463 C64.8360568,26.9155664 63.4069133,27.5469016 62.336493,28.6258784 L54.329131,36.6125359 C54.1393748,36.3204989 53.921752,36.0427292 53.6740515,35.7836855 C52.6213244,34.6810783 51.1466215,34.0492973 49.6285711,34.0492973 L38.3338691,34.0492973 C36.2027599,34.0492973 34.1247293,33.7706359 32.1563948,33.2217845 C27.0298783,31.7914715 22.1382351,32.824079 18.0100403,36.2076967 C16.2686172,37.6357805 15.0168449,39.1940548 14.2489732,40.2953244 C13.3793674,39.6858363 12.3447753,39.366156 11.2717012,39.3844363 C9.91067531,39.4080667 8.64121002,39.9644977 7.69773641,40.9529653 L0.397205441,48.5918534 C-0.141985456,49.155864 -0.130927425,50.0524848 0.422860196,50.6031197 L14.4263444,64.1063805 C14.9841128,64.6605822 15.8833543,64.654786 16.4340457,64.092113 C16.9838524,63.5294401 16.9781022,62.6239021 16.4198913,62.0688086 L3.41517107,49.5589198 L9.7421504,42.9379259 C10.1583758,42.5023225 10.7187982,42.2562088 11.3190298,42.2463998 C11.9250114,42.2352534 12.4872031,42.4626411 12.9184675,42.8839771 L24.2069769,53.9261006 C24.6373566,54.3474367 24.879307,54.9118931 24.887711,55.5164768 C24.8961152,56.1215063 24.6700885,56.6926506 24.2512092,57.1260249 L18.0339258,63.5561914 L16.4340457,62.02021 C15.8661038,61.4749255 14.9677471,61.4972183 14.4267868,62.0697003 C13.8867112,62.6421821 13.9088272,63.5477201 14.4767692,64.092113 L17.0922214,66.6036321 C17.3673459,66.8671343 17.7194346,66.9982166 18.0710809,66.9982166 C18.4408624,66.9982166 18.8097592,66.8533127 19.0879799,66.56618 L26.2845651,59.1230236 C27.2333466,58.1421356 27.7451137,56.8469176 27.7265361,55.4772413 C27.7176896,54.8508106 27.597378,54.2431058 27.3771015,53.676866 L29.9120509,53.3794786 C31.0881862,53.2417084 32.2846682,53.1712628 33.4687652,53.1712628 L50.6543167,53.1712628 C50.9174984,53.1712628 51.1837766,53.1601164 51.4460737,53.1378234 L53.09284,52.9996074 C54.7621647,52.8600538 56.3708912,52.2759796 57.7460714,51.3120342 C58.4210554,50.8385328 59.0332296,50.2785349 59.5657856,49.6467539 L71.1462279,35.9134303 C72.3838459,34.446111 72.7841478,32.4727428 72.2184174,30.6335778 C71.4983166,28.2950517 69.3017436,26.7336563 66.8733938,26.8317451 Z M68.9832715,34.0599979 L57.4023869,47.7933214 C57.0286244,48.2365045 56.5986872,48.6297514 56.1245176,48.9623616 C55.1589278,49.6396202 54.0287941,50.0493639 52.8575245,50.1478985 L51.2098736,50.2861145 C51.0263098,50.3017195 50.8387651,50.3097451 50.6543167,50.3097451 L33.4687652,50.3097451 C32.1754147,50.3097451 30.868352,50.3859867 29.5842901,50.5362409 L25.4795384,51.0177677 L16.3986599,42.1915594 C17.0170266,41.2677412 18.1533528,39.7785748 19.801446,38.4280704 C23.2347523,35.6142595 27.1364781,34.7903136 31.3991388,35.9794173 C33.6138469,36.5973768 35.9470975,36.9103692 38.3338691,36.9103692 L49.6285711,36.9103692 C50.3791921,36.9103692 51.1085817,37.2233617 51.6296375,37.7682003 C52.0104771,38.1667976 52.2519851,38.6554581 52.3515077,39.1677491 C52.3497384,39.297048 52.365662,39.4259011 52.3988362,39.5511872 C52.4364336,40.2222037 52.2369461,40.9061502 51.7937392,41.4621353 L51.7499492,41.5174218 C51.2204894,42.1826421 50.4309439,42.5647426 49.5843388,42.5647426 L39.7515124,42.5647426 C38.9672747,42.5647426 38.3320998,43.204995 38.3320998,43.9950557 C38.3320998,44.7855622 38.9672747,45.4262604 39.7515124,45.4262604 L49.5843388,45.4262604 C51.2965688,45.4262604 52.8929102,44.654034 53.9646574,43.3070965 L54.0084473,43.2522559 C54.8293977,42.2214318 55.2363343,40.9739207 55.2403151,39.7290846 L64.3380019,30.6545331 C64.9085977,30.0798219 65.6658536,29.7449824 66.4713227,29.7119889 L66.9897245,29.6910336 C68.1344549,29.6419892 69.1681623,30.3798844 69.5069811,31.4816 C69.7834327,32.3795584 69.5874839,33.3435038 68.9832715,34.0599979 L68.9832715,34.0599979 Z"/>
    <path fill="#00AEC7" fill-rule="nonzero" d="M11.2871826,45.263968 C9.16757371,45.263968 7.44340102,47.002369 7.44340102,49.1384756 C7.44340102,51.2754738 9.16757371,53.0138749 11.2871826,53.0138749 C13.4067914,53.0138749 15.1314063,51.2754738 15.1314063,49.1384756 C15.1314063,47.002369 13.4067914,45.263968 11.2871826,45.263968 Z M11.2871826,50.1519112 C10.7329525,50.1519112 10.2817837,49.6975817 10.2817837,49.1384756 C10.2817837,48.5802612 10.7329525,48.1259316 11.2871826,48.1259316 C11.8409701,48.1259316 12.292139,48.5802612 12.292139,49.1384756 C12.292139,49.6975817 11.8409701,50.1519112 11.2871826,50.1519112 Z"/>
    <path fill="#0033A0" fill-rule="nonzero" d="M41.5446873,30.353133 C49.8285008,30.353133 56.5677246,23.5600377 56.5677246,15.2100058 C56.5677246,6.85997386 49.8285008,0.0664328399 41.5446873,0.0664328399 C38.1467667,0.0664328399 34.9416988,1.18197006 32.2758217,3.29177095 C31.6667439,3.77329778 31.0903978,4.30654416 30.5622649,4.87724263 C29.7722771,5.73016929 29.0800426,6.6749428 28.5054658,7.68391977 C27.2072497,9.96448437 26.5216499,12.5674045 26.5216499,15.2100058 C26.5216499,23.5600377 33.2608737,30.353133 41.5446873,30.353133 Z M30.9678745,9.10799084 C31.4340822,8.2889494 31.9953894,7.52251917 32.6371991,6.83010144 C33.0658096,6.36640894 33.534229,5.93392645 34.0283031,5.54290886 C36.1903749,3.83259689 38.7894612,2.92839651 41.5446873,2.92839651 C48.2626796,2.92839651 53.7288996,8.43742014 53.7288996,15.2100058 C53.7288996,21.9821457 48.2626796,27.4916152 41.5446873,27.4916152 C34.8262526,27.4916152 29.3600326,21.9821457 29.3600326,15.2100058 C29.3600326,13.0658739 29.9160318,10.956073 30.9678745,9.10799084 Z"/>
    <path fill="#00AEC7" fill-rule="nonzero" d="M42.8035367,20.107312 C42.2311716,20.450177 41.4876277,20.5718963 40.9833802,20.5718963 C40.0261946,20.5718963 39.1871089,19.434958 39.1871089,18.1392941 C39.1871089,17.3492334 38.5514917,16.7085352 37.7676964,16.7085352 C36.9834589,16.7085352 36.3482839,17.3492334 36.3482839,18.1392941 C36.3482839,20.6173738 37.8459875,22.7022067 39.8620929,23.2760261 C39.9080944,24.024622 40.5229226,24.6180593 41.2770822,24.6180593 C42.0515888,24.6180593 42.6801288,23.9925202 42.6951677,23.2149436 C44.745332,22.6785762 46.5146215,21.1399197 46.5146215,18.450949 C46.5146215,15.2269485 43.2485131,13.468038 41.5712266,13.468038 C41.5499951,13.468038 39.4662144,13.2812234 39.4662144,11.9378527 C39.4662144,9.87486691 41.5499951,9.81690529 41.5712266,9.81690529 C41.9657782,9.81690529 42.4456979,10.0532102 42.8238836,10.4344189 C43.0056781,10.6181125 43.0251403,10.6372843 43.0251403,11.408619 C43.0251403,12.1986797 43.6611998,12.836257 44.4445528,12.836257 C45.228348,12.836257 45.8644076,12.1933294 45.8644076,11.4028229 C45.8644076,10.4883678 45.8644076,9.45219336 44.8315849,8.41066865 C44.2105643,7.78557555 43.466578,7.34060903 42.6925139,7.11857171 C42.6491662,6.3673006 42.0334535,5.77074242 41.2770822,5.77074242 C40.493287,5.77074242 39.8576698,6.41188642 39.8576698,7.20194711 L39.8576698,7.29557738 C38.3068874,7.8765305 36.6273894,9.26493292 36.6273894,11.9378527 C36.6273894,15.2162479 40.0080593,16.3246514 41.5610532,16.3291099 C41.9874519,16.3638869 43.6753541,17.1173871 43.6753541,18.4505031 C43.6753541,19.2352135 43.4068645,19.7457211 42.8035367,20.107312 L42.8035367,20.107312 Z"/>
  </g>
</svg>
