<svg xmlns="http://www.w3.org/2000/svg" width="48" height="48" viewBox="0 0 48 48">
  <g fill="none" fill-rule="evenodd">
    <polygon points="0 0 48 0 48 48 0 48"/>
    <circle cx="24" cy="24" r="15" fill="#FFF"/>
    <path fill="#00AEC7" fill-rule="nonzero" d="M24,4 C12.94,4 4,12.94 4,24 C4,35.06 12.94,44 24,44 C35.06,44 44,35.06 44,24 C44,12.94 35.06,4 24,4 Z M24,36.1480945 C22.8987215,36.1480945 22.0059589,35.2553319 22.0059589,34.1540534 L22.0059589,25.9940411 L22.0059589,25.9940411 L13.8459466,25.9940411 C12.7446681,25.9940411 11.8519055,25.1012785 11.8519055,24 C11.8519055,22.8987215 12.7446681,22.0059589 13.8459466,22.0059589 L22.0059589,22.0059589 L22.0059589,22.0059589 L22.0059589,13.8459466 C22.0059589,12.7446681 22.8987215,11.8519055 24,11.8519055 C25.1012785,11.8519055 25.9940411,12.7446681 25.9940411,13.8459466 L25.9940411,22.0059589 L25.9940411,22.0059589 L34.1540534,22.0059589 C35.2553319,22.0059589 36.1480945,22.8987215 36.1480945,24 C36.1480945,25.1012785 35.2553319,25.9940411 34.1540534,25.9940411 L25.9940411,25.9940411 L25.9940411,25.9940411 L25.9940411,34.1540534 C25.9940411,35.2553319 25.1012785,36.1480945 24,36.1480945 Z"/>
  </g>
</svg>
