<svg height="45" viewBox="0 0 45 45" width="45" xmlns="http://www.w3.org/2000/svg" xmlns:xlink="http://www.w3.org/1999/xlink"><defs><linearGradient id="a" x1="50%" x2="50%" y1="0%" y2="74.169761%"><stop offset="0" stop-color="#00d7e5"/><stop offset="1" stop-color="#00aec7"/></linearGradient><circle id="b" cx="17.5" cy="17.5" r="17.5"/><filter id="c" height="148.6%" width="148.6%" x="-18.6%" y="-18.6%"><feOffset dx="2" dy="2" in="SourceAlpha" result="shadowOffsetOuter1"/><feGaussianBlur in="shadowOffsetOuter1" result="shadowBlurOuter1" stdDeviation="2.5"/><feColorMatrix in="shadowBlurOuter1" type="matrix" values="0 0 0 0 0   0 0 0 0 0   0 0 0 0 0  0 0 0 0.192651721 0"/></filter></defs><g fill="none" fill-rule="evenodd" transform="translate(3 3)"><use fill="#000" filter="url(#c)" xlink:href="#b"/><use fill="url(#a)" fill-rule="evenodd" xlink:href="#b"/><path d="m25.8648952 14.5925814-6.988427 8.0516723-1.510074 1.7395859c-.3567366.410956-.8246268.6161604-1.292042.6161604-.4678901 0-.9353053-.2052044-1.2925169-.6161604l-3.2467305-3.7418333c-.7134731-.821912-.7134731-2.1532779 0-2.9757371.7125232-.8219118 1.8696607-.8219118 2.5831338 0l1.9561136 2.2534177 7.207409-8.3028426c.7134733-.8224591 1.8706108-.8224591 2.583134 0 .7134731.821912.7134731 2.1549196 0 2.9757371z" fill="#fff" fill-rule="nonzero"/></g></svg>