<svg xmlns="http://www.w3.org/2000/svg" width="48" height="42" viewBox="0 0 48 42">
  <g fill="none" fill-rule="evenodd">
    <path fill="#0033A0" fill-rule="nonzero" d="M47.7300396,13.5279824 L40.7854418,8.6226989 L40.7854418,1.45761758 C40.7158154,0.747850549 40.1690374,0.17818022 39.4626462,0.0797538462 L9.03898022,0.0797538462 C8.33269451,0.178285714 7.78581099,0.747850549 7.71618462,1.45761758 L7.71618462,8.56752527 L0.496035165,13.5278769 C0.21003956,13.7354901 0.0289054945,14.0575648 0,14.4097055 L0,40.5895385 C0.0938901099,41.3080615 0.659340659,41.8736176 1.37786374,41.9674022 L47.1237626,41.9674022 C47.7300396,41.9674022 47.9505231,41.2508835 47.9505231,40.5895385 L47.9505231,14.409811 C47.9505231,14.0790857 48.0055912,13.7483604 47.7300396,13.5279824 Z M40.7854418,11.2681846 L45.5254154,14.5199473 L40.7854418,18.1024352 L40.7854418,11.2681846 Z M9.9207033,2.28437802 L38.5808176,2.28437802 L38.5808176,19.8111297 L24.2507604,30.613767 L9.9207033,19.8111297 L9.9207033,2.28437802 L9.9207033,2.28437802 Z M7.71618462,11.2131165 L7.71618462,18.1577143 L2.97621099,14.5200527 L7.71618462,11.2131165 Z M2.20462418,16.7797451 L17.6369934,28.464211 L2.20462418,38.8810549 L2.20462418,16.7797451 Z M4.85021538,39.7628835 L19.5108923,29.8972484 L23.4241055,32.8734593 C23.645644,33.0446769 23.9158154,33.1412044 24.1956923,33.149011 C24.4161758,33.149011 24.5264176,33.0387692 24.7467956,32.8734593 L28.8253187,29.731833 L43.651411,39.7628835 L4.85021538,39.7628835 Z M45.7458989,38.4952615 L30.6442549,28.3539692 L45.7458989,16.7797451 L45.7458989,38.4952615 Z"/>
    <path fill="#00AEC7" fill-rule="nonzero" d="M15.4323692 9.44935385L20.3927209 9.44935385C21.0015297 9.44935385 21.495033 8.95585055 21.495033 8.34704176 21.495033 7.73823297 21.0015297 7.24472967 20.3927209 7.24472967L15.4323692 7.24472967C14.8235604 7.24472967 14.3300571 7.73823297 14.3300571 8.34704176 14.3300571 8.95585055 14.8235604 9.44935385 15.4323692 9.44935385zM15.4323692 14.409811L33.0693626 14.409811C33.6781714 14.409811 34.1716747 13.9163077 34.1716747 13.3074989 34.1716747 12.6986901 33.6781714 12.2051868 33.0693626 12.2051868L15.4323692 12.2051868C14.8235604 12.2051868 14.3300571 12.6986901 14.3300571 13.3074989 14.3300571 13.9163077 14.8235604 14.409811 15.4323692 14.409811zM34.1715692 18.2678505C34.1715692 17.6590418 33.6780659 17.1655385 33.0692571 17.1655385L15.4323692 17.1655385C14.8235604 17.1655385 14.3300571 17.6590418 14.3300571 18.2678505 14.3300571 18.8766593 14.8235604 19.3701626 15.4323692 19.3701626L33.0693626 19.3701626C33.6780659 19.3701626 34.1715692 18.8766593 34.1715692 18.2678505z"/>
  </g>
</svg>
