<svg xmlns="http://www.w3.org/2000/svg" width="9" height="15" viewBox="0 0 9 15">
  <path fill="#53565A" d="M28.848,58.488 C28.9546667,58.488 29.008,58.4346667 29.008,58.328 L29.008,58.328 L28.992,57.176 C28.992,57.1333333 29.0133333,57.112 29.056,57.112 C30.0053333,57.016 30.744,56.7066667 31.272,56.184 C31.8,55.6613333 32.064,54.9946667 32.064,54.184 C32.064,53.608 31.928,53.12 31.656,52.72 C31.384,52.32 31.0213333,51.9813333 30.568,51.704 C30.1146667,51.4266667 29.52,51.128 28.784,50.808 C28.0586667,50.5093333 27.5226667,50.2666667 27.176,50.08 C26.8293333,49.8933333 26.5626667,49.6746667 26.376,49.424 C26.1893333,49.1733333 26.096,48.856 26.096,48.472 C26.096,47.8853333 26.288,47.4373333 26.672,47.128 C27.056,46.8186667 27.6053333,46.664 28.32,46.664 C29.1306667,46.664 29.7653333,46.8613333 30.224,47.256 C30.6826667,47.6506667 30.912,48.1573333 30.912,48.776 L30.912,48.776 L30.912,49.064 C30.912,49.1706667 30.9653333,49.224 31.072,49.224 L31.072,49.224 L31.824,49.224 C31.9306667,49.224 31.984,49.1706667 31.984,49.064 L31.984,49.064 L31.984,48.712 C31.984,47.88 31.7173333,47.1973333 31.184,46.664 C30.6506667,46.1306667 29.9146667,45.8106667 28.976,45.704 C28.9333333,45.704 28.912,45.6826667 28.912,45.64 L28.912,45.64 L28.928,44.376 C28.928,44.2693333 28.8746667,44.216 28.768,44.216 L28.768,44.216 L28.08,44.216 C27.9733333,44.216 27.92,44.2693333 27.92,44.376 L27.92,44.376 L27.936,45.624 C27.936,45.6666667 27.9146667,45.688 27.872,45.688 C26.9866667,45.7733333 26.2933333,46.0586667 25.792,46.544 C25.2906667,47.0293333 25.04,47.6826667 25.04,48.504 C25.04,49.08 25.1706667,49.5573333 25.432,49.936 C25.6933333,50.3146667 26.0293333,50.624 26.44,50.864 C26.8506667,51.104 27.44,51.384 28.208,51.704 C28.9226667,52.0133333 29.472,52.2853333 29.856,52.52 C30.24,52.7546667 30.5253333,53.0053333 30.712,53.272 C30.8986667,53.5386667 30.992,53.8586667 30.992,54.232 C30.992,54.808 30.7893333,55.2693333 30.384,55.616 C29.9786667,55.9626667 29.392,56.136 28.624,56.136 C27.7706667,56.136 27.1013333,55.9466667 26.616,55.568 C26.1306667,55.1893333 25.888,54.6906667 25.888,54.072 L25.888,54.072 L25.888,53.64 C25.888,53.5333333 25.8346667,53.48 25.728,53.48 L25.728,53.48 L25.008,53.48 C24.9013333,53.48 24.848,53.5333333 24.848,53.64 L24.848,53.64 L24.848,54.136 C24.848,54.9573333 25.12,55.632 25.664,56.16 C26.208,56.688 26.9653333,57.0053333 27.936,57.112 C27.9786667,57.112 28,57.1333333 28,57.176 L28,57.176 L27.984,58.328 C27.984,58.4346667 28.0373333,58.488 28.144,58.488 L28.144,58.488 L28.848,58.488 Z" transform="translate(-24 -44)"/>
</svg>
