<svg height="32" viewBox="0 0 32 32" width="32" xmlns="http://www.w3.org/2000/svg"><g fill="none" fill-rule="evenodd"><path d="m0 0h32v32h-32z"/><path d="m16 2.66666667c-7.36 0-13.33333333 5.97333333-13.33333333 13.33333333s5.97333333 13.3333333 13.33333333 13.3333333 13.3333333-5.9733333 13.3333333-13.3333333-5.9733333-13.33333333-13.3333333-13.33333333zm-3.6094757 19.05719093-4.78385763-4.7838576c-.51914767-.5191477-.51914767-1.3608523 0-1.88.5193596-.5193596 1.36122665-.5199467 1.8813101-.0013119l3.84535653 3.8346452 9.1766608-9.17666074c.5191542-.51915416 1.3608694-.51915416 1.8800235 0 .0011072.00110719.0022125.00221634.0033157.00332744l.0038422.00386938c.5175599.52123062.5160729 1.36288222-.0033256 1.88228072l-10.1177075 10.1177075c-.5206991.5206991-1.3649191.5206991-1.8856181 0z" fill="#00aec7" fill-rule="nonzero"/></g></svg>